<svg width="36" height="36" viewBox="0 0 36 36" fill="none" xmlns="http://www.w3.org/2000/svg">
<path d="M7.00001 14C6.74401 14 6.48801 13.902 6.29301 13.707C5.90201 13.316 5.90201 12.684 6.29301 12.293C9.63301 8.952 14.971 9.975 15.196 10.02C15.738 10.128 16.089 10.655 15.98 11.197C15.872 11.737 15.347 12.089 14.805 11.982C14.736 11.967 10.276 11.139 7.70701 13.708C7.51201 13.902 7.25601 14 7.00001 14ZM10 19C9.74401 19 9.48801 18.902 9.29301 18.707C8.90201 18.316 8.90201 17.684 9.29301 17.293C11.666 14.92 16.057 15.984 16.243 16.03C16.778 16.164 17.103 16.705 16.97 17.241C16.838 17.777 16.297 18.104 15.76 17.971C14.796 17.734 12.011 17.404 10.708 18.707C10.512 18.902 10.256 19 10 19Z" fill="#292F33"/>
</svg>
