<svg width="36" height="36" viewBox="0 0 36 36" fill="none" xmlns="http://www.w3.org/2000/svg">
<path d="M15.702 15.598C15.69 15.607 14.442 16.5 12 16.5C9.559 16.5 8.31 15.607 8.3 15.6C8.117 15.463 7.866 15.467 7.689 15.609C7.511 15.751 7.451 15.995 7.543 16.203C7.603 16.338 9.043 19.5 12 19.5C14.958 19.5 16.397 16.338 16.457 16.203C16.549 15.996 16.489 15.754 16.312 15.612C16.136 15.469 15.884 15.465 15.702 15.598ZM6.999 13C6.791 13 6.58 12.935 6.4 12.8C5.958 12.469 5.869 11.842 6.2 11.4C9.539 6.946 14.966 7.974 15.196 8.02C15.738 8.128 16.089 8.655 15.98 9.197C15.872 9.737 15.346 10.088 14.806 9.982C14.62 9.947 10.37 9.174 7.8 12.6C7.604 12.862 7.303 13 6.999 13Z" fill="#292F33"/>
</svg>
