<svg width="36" height="36" viewBox="0 0 36 36" fill="none" xmlns="http://www.w3.org/2000/svg">
<path d="M29 14C28.744 14 28.488 13.902 28.293 13.707C25.716 11.132 21.238 11.971 21.194 11.981C20.646 12.09 20.127 11.734 20.02 11.194C19.913 10.653 20.262 10.128 20.803 10.02C21.03 9.974 26.366 8.955 29.706 12.293C30.097 12.684 30.097 13.316 29.706 13.707C29.512 13.902 29.256 14 29 14ZM26 19C25.744 19 25.488 18.902 25.293 18.707C23.989 17.402 21.203 17.733 20.241 17.971C19.701 18.103 19.164 17.776 19.03 17.241C18.897 16.705 19.222 16.164 19.758 16.03C19.944 15.984 24.333 14.919 26.707 17.293C27.098 17.684 27.098 18.316 26.707 18.707C26.512 18.902 26.256 19 26 19Z" fill="#292F33"/>
</svg>
