<svg width="36" height="36" viewBox="0 0 36 36" fill="none" xmlns="http://www.w3.org/2000/svg">
<path d="M15.682 4.413L11.14 5.214L8.8 0.961001C8.542 0.492001 8.012 0.241001 7.488 0.333001C6.961 0.426001 6.551 0.844001 6.469 1.372L5.724 6.169L1.182 6.97C0.647003 7.064 0.234003 7.495 0.161003 8.034C0.0880029 8.573 0.372003 9.097 0.864003 9.331L4.934 11.263L4.186 16.075C4.103 16.611 4.375 17.139 4.859 17.384C5.038 17.474 5.23 17.517 5.421 17.517C5.748 17.517 6.071 17.389 6.312 17.145L9.824 13.584L14.342 15.729C14.832 15.961 15.416 15.852 15.788 15.457C16.16 15.062 16.234 14.473 15.973 13.998L13.625 9.73L16.79 6.522C17.172 6.135 17.259 5.545 17.007 5.063C16.753 4.581 16.214 4.32 15.682 4.413Z" fill="#E95F28"/>
</svg>
