<svg width="36" height="36" viewBox="0 0 36 36" fill="none" xmlns="http://www.w3.org/2000/svg">
<path d="M30.6 18.2C30.486 18.115 28.669 16.774 25.954 15.856C25.98 15.741 26 15.623 26 15.5C26 15.131 25.861 14.797 25.641 14.536C27.443 14.016 28.975 14 29.002 14C29.553 13.998 30 13.55 29.999 12.998C29.998 12.447 29.552 12 29 12C28.779 12 23.549 12.038 20.293 15.293C20.007 15.579 19.921 16.009 20.076 16.383C20.23 16.756 20.596 17 21 17C25.59 17 29.363 19.773 29.401 19.801C29.581 19.935 29.791 20 29.999 20C30.304 20 30.604 19.861 30.801 19.599C31.131 19.156 31.041 18.531 30.6 18.2Z" fill="#292F33"/>
</svg>
