<svg width="36" height="36" viewBox="0 0 36 36" fill="none" xmlns="http://www.w3.org/2000/svg">
<path d="M16.457 17.797C16.397 17.662 14.958 14.5 12 14.5C9.043 14.5 7.603 17.662 7.543 17.797C7.451 18.004 7.511 18.246 7.687 18.388C7.863 18.53 8.114 18.535 8.297 18.402C8.31 18.393 9.559 17.5 12 17.5C14.426 17.5 15.674 18.381 15.702 18.401C15.79 18.467 15.896 18.5 16 18.5C16.11 18.5 16.221 18.463 16.312 18.391C16.49 18.249 16.549 18.005 16.457 17.797ZM5 16C4.876 16 4.751 15.977 4.629 15.928C4.116 15.723 3.867 15.141 4.072 14.628C6.248 9.188 11.578 8.065 11.804 8.02C12.347 7.914 12.872 8.263 12.981 8.804C13.089 9.344 12.739 9.87 12.2 9.98C12.015 10.018 7.694 10.96 5.929 15.371C5.772 15.762 5.396 16 5 16Z" fill="#292F33"/>
</svg>
