<svg width="36" height="36" viewBox="0 0 36 36" fill="none" xmlns="http://www.w3.org/2000/svg">
<path d="M21.351 7.583C20.054 8.133 19.404 9.884 19.374 12.872L19.413 12.94C20.31 14.259 21.786 15.164 23.501 15.272C23.615 15.279 23.729 15.283 23.842 15.283C26.476 15.283 28.691 13.346 29.095 10.759C28.98 10.654 28.874 10.547 28.752 10.443C25.037 7.273 22.285 7.186 21.351 7.583Z" fill="#292F33"/>
<path d="M30.335 12.068C29.432 14.813 26.85 16.783 23.841 16.783C23.697 16.783 23.552 16.778 23.406 16.769C21.929 16.676 20.564 16.114 19.456 15.185C19.492 15.68 19.532 16.182 19.592 16.725C19.744 18.113 20.476 19.207 21.708 19.888C22.528 20.342 23.508 20.576 24.521 20.64C26.255 20.749 28.091 20.36 29.394 19.731C30.771 19.066 31.666 17.869 31.85 16.446C32.033 15.031 31.496 13.522 30.335 12.068Z" fill="white"/>
<path d="M23.841 16.783C26.85 16.783 29.432 14.813 30.335 12.068C29.981 11.625 29.564 11.188 29.094 10.759C28.69 13.346 26.475 15.283 23.841 15.283C23.728 15.283 23.614 15.279 23.5 15.272C21.785 15.164 20.309 14.259 19.412 12.94L19.373 12.872C19.366 13.573 19.394 14.345 19.456 15.185C20.564 16.114 21.929 16.676 23.406 16.769C23.552 16.779 23.697 16.783 23.841 16.783Z" fill="#F4900C"/>
<path d="M21.413 11.812C22.0244 11.812 22.52 11.3164 22.52 10.705C22.52 10.0936 22.0244 9.598 21.413 9.598C20.8016 9.598 20.306 10.0936 20.306 10.705C20.306 11.3164 20.8016 11.812 21.413 11.812Z" fill="white"/>
</svg>
