<svg width="36" height="36" viewBox="0 0 36 36" fill="none" xmlns="http://www.w3.org/2000/svg">
<path d="M28.312 15.612C28.137 15.47 27.886 15.465 27.702 15.598C27.69 15.607 26.441 16.5 24 16.5C21.56 16.5 20.31 15.607 20.3 15.6C20.117 15.463 19.865 15.467 19.689 15.609C19.511 15.751 19.451 15.995 19.543 16.203C19.603 16.338 21.043 19.5 24 19.5C26.958 19.5 28.397 16.338 28.457 16.203C28.549 15.996 28.489 15.754 28.312 15.612ZM29.001 13C28.696 13 28.397 12.862 28.2 12.6C25.608 9.144 21.239 9.972 21.196 9.98C20.649 10.088 20.128 9.737 20.019 9.196C19.911 8.655 20.262 8.128 20.803 8.019C21.034 7.972 26.46 6.947 29.799 11.399C30.131 11.841 30.041 12.468 29.599 12.799C29.42 12.935 29.21 13 29.001 13Z" fill="#292F33"/>
</svg>
