<svg width="36" height="36" viewBox="0 0 36 36" fill="none" xmlns="http://www.w3.org/2000/svg">
<path d="M12.284 12.33C11.528 12.038 10.813 11.762 10.813 11.362C10.813 10.703 11.697 10.669 11.874 10.669C12.499 10.669 12.81 10.903 13.084 11.11C13.294 11.269 13.512 11.433 13.815 11.433C14.379 11.433 14.636 11.036 14.636 10.667C14.636 9.931 13.734 9.411 12.778 9.193V8.8C12.778 8.282 12.357 7.861 11.839 7.861C11.321 7.861 10.9 8.282 10.9 8.8V9.226C9.756 9.559 9.055 10.4 9.055 11.461C9.055 12.772 10.348 13.31 11.489 13.784C12.306 14.124 13.078 14.445 13.078 14.946C13.078 15.312 12.618 15.708 11.875 15.708C11.125 15.708 10.695 15.408 10.315 15.144C10.053 14.961 9.805 14.788 9.509 14.788C9.079 14.788 8.743 15.15 8.743 15.612C8.743 16.291 9.674 16.968 10.9 17.206V17.676C10.9 18.194 11.321 18.614 11.839 18.614C12.357 18.614 12.778 18.193 12.778 17.676L12.773 17.178C14.069 16.863 14.835 15.956 14.835 14.719C14.836 13.315 13.421 12.769 12.284 12.33Z" fill="#292F33"/>
</svg>
