<svg width="36" height="36" viewBox="0 0 36 36" fill="none" xmlns="http://www.w3.org/2000/svg">
<path d="M28.457 17.797C28.397 17.662 26.958 14.5 24 14.5C21.043 14.5 19.603 17.662 19.543 17.797C19.451 18.004 19.511 18.246 19.688 18.388C19.863 18.53 20.114 18.535 20.298 18.402C20.31 18.393 21.56 17.5 24 17.5C26.426 17.5 27.674 18.381 27.702 18.401C27.79 18.467 27.896 18.5 28 18.5C28.11 18.5 28.221 18.463 28.312 18.391C28.489 18.249 28.55 18.005 28.457 17.797ZM31 16C30.604 16 30.228 15.762 30.071 15.371C28.293 10.926 23.848 9.99 23.803 9.98C23.262 9.872 22.91 9.345 23.019 8.803C23.127 8.261 23.654 7.912 24.196 8.019C24.422 8.064 29.752 9.187 31.928 14.627C32.133 15.14 31.883 15.722 31.37 15.927C31.25 15.977 31.124 16 31 16Z" fill="#292F33"/>
</svg>
