<svg width="36" height="36" viewBox="0 0 36 36" fill="none" xmlns="http://www.w3.org/2000/svg">
<path d="M30.001 11C30.209 11 30.42 10.935 30.6 10.8C31.042 10.469 31.131 9.842 30.8 9.4C27.538 5.05 23.184 5 23 5C22.448 5 22 5.448 22 6C22 6.551 22.4451 6.998 22.996 7C23.1511 7.002 26.564 7.086 29.2 10.6C29.396 10.862 29.697 11 30.001 11Z" fill="#292F33"/>
<path d="M24.5 19C23.1193 19 22 17.433 22 15.5C22 13.567 23.1193 12 24.5 12C25.8807 12 27 13.567 27 15.5C27 17.433 25.8807 19 24.5 19Z" fill="#292F33"/>
</svg>
