<svg width="36" height="36" viewBox="0 0 36 36" fill="none" xmlns="http://www.w3.org/2000/svg">
<path d="M24.299 6.655C24.158 6.675 21.926 7.012 19.356 8.283C19.294 8.182 19.224 8.085 19.137 7.998C18.876 7.737 18.542 7.599 18.201 7.571C19.108 5.928 20.179 4.834 20.199 4.815C20.587 4.425 20.587 3.791 20.196 3.402C19.805 3.013 19.174 3.012 18.784 3.402C18.628 3.558 14.956 7.283 14.956 11.887C14.956 12.292 15.199 12.656 15.573 12.811C15.946 12.966 16.377 12.88 16.663 12.594C19.908 9.349 24.537 8.641 24.584 8.634C24.806 8.602 25 8.499 25.147 8.352C25.362 8.137 25.477 7.826 25.431 7.502C25.35 6.955 24.845 6.577 24.299 6.655ZM11.712 15.13C7.108 15.13 3.383 18.802 3.227 18.958C2.837 19.348 2.837 19.98 3.227 20.37C3.616 20.761 4.249 20.762 4.641 20.373C4.66 20.354 5.754 19.282 7.397 18.376C7.426 18.717 7.563 19.051 7.824 19.312C7.911 19.399 8.008 19.469 8.109 19.531C6.837 22.1 6.5 24.333 6.48 24.474C6.402 25.021 6.782 25.527 7.328 25.605C7.653 25.652 7.962 25.537 8.177 25.322C8.324 25.175 8.427 24.98 8.459 24.757C8.466 24.711 9.157 20.1 12.419 16.838C12.705 16.552 12.79 16.122 12.636 15.748C12.481 15.373 12.117 15.13 11.712 15.13Z" fill="#292F33"/>
</svg>
