<svg width="36" height="36" viewBox="0 0 36 36" fill="none" xmlns="http://www.w3.org/2000/svg">
<path d="M28.416 17.723C28.355 17.632 26.901 15.5 24 15.5C21.1 15.5 19.645 17.632 19.584 17.723C19.449 17.925 19.48 18.193 19.655 18.361C19.829 18.528 20.101 18.546 20.298 18.403C20.31 18.393 21.56 17.5 24 17.5C26.426 17.5 27.674 18.381 27.702 18.401C27.791 18.467 27.896 18.5 28 18.5C28.124 18.5 28.248 18.454 28.344 18.363C28.521 18.196 28.551 17.925 28.416 17.723ZM31.001 16C30.696 16 30.397 15.862 30.2 15.6C27.559 12.079 24.139 12.001 23.994 12C23.444 11.994 23 11.544 23.003 10.995C23.006 10.444 23.45 10 24 10C24.184 10 28.537 10.05 31.8 14.4C32.132 14.842 32.042 15.469 31.6 15.8C31.42 15.935 31.21 16 31.001 16Z" fill="#292F33"/>
</svg>
