<svg width="36" height="36" viewBox="0 0 36 36" fill="none" xmlns="http://www.w3.org/2000/svg">
<path d="M15.707 15.293C12.452 12.038 7.221 12 7 12C6.448 12 6.001 12.447 6.001 12.998C6 13.55 6.447 13.998 6.999 14C7.025 14 8.557 14.016 10.36 14.536C10.139 14.797 10 15.131 10 15.5C10 15.623 10.019 15.741 10.047 15.856C7.331 16.774 5.514 18.115 5.4 18.2C4.958 18.531 4.869 19.158 5.2 19.6C5.396 19.862 5.697 20 6.001 20C6.209 20 6.42 19.935 6.6 19.8C6.637 19.772 10.387 17 15 17C15.404 17 15.769 16.756 15.924 16.383C16.079 16.009 15.993 15.579 15.707 15.293Z" fill="#292F33"/>
</svg>
