<svg width="36" height="36" viewBox="0 0 36 36" fill="none" xmlns="http://www.w3.org/2000/svg">
<path d="M12 15.5C9.1 15.5 7.645 17.632 7.584 17.723C7.45 17.925 7.48 18.193 7.655 18.361C7.83 18.528 8.102 18.546 8.297 18.403C8.31 18.393 9.559 17.5 12 17.5C14.426 17.5 15.674 18.381 15.702 18.401C15.791 18.467 15.896 18.5 16 18.5C16.124 18.5 16.248 18.454 16.344 18.363C16.521 18.196 16.552 17.925 16.416 17.722C16.355 17.632 14.901 15.5 12 15.5ZM4.999 16C4.791 16 4.58 15.935 4.4 15.8C3.958 15.469 3.869 14.842 4.2 14.4C7.462 10.05 11.816 10 12 10C12.552 10 13 10.448 13 11C13 11.551 12.555 11.998 12.004 12C11.848 12.002 8.435 12.086 5.799 15.6C5.604 15.862 5.303 16 4.999 16Z" fill="#292F33"/>
</svg>
