<svg width="36" height="36" viewBox="0 0 36 36" fill="none" xmlns="http://www.w3.org/2000/svg">
<path d="M20.318 4.413L24.86 5.214L27.2 0.961001C27.458 0.492001 27.988 0.241001 28.512 0.333001C29.038 0.426001 29.448 0.844001 29.53 1.372L30.275 6.169L34.817 6.97C35.353 7.064 35.766 7.494 35.838 8.033C35.91 8.572 35.627 9.096 35.135 9.33L31.065 11.262L31.813 16.074C31.896 16.61 31.624 17.138 31.14 17.383C30.961 17.473 30.769 17.516 30.578 17.516C30.251 17.516 29.928 17.388 29.687 17.144L26.175 13.583L21.657 15.728C21.167 15.96 20.583 15.851 20.211 15.456C19.839 15.061 19.765 14.472 20.026 13.997L22.374 9.73L19.209 6.522C18.827 6.135 18.74 5.545 18.992 5.063C19.247 4.581 19.786 4.32 20.318 4.413Z" fill="#E95F28"/>
</svg>
