<svg width="36" height="36" viewBox="0 0 36 36" fill="none" xmlns="http://www.w3.org/2000/svg">
<path d="M6.001 11C5.449 11 5.001 10.552 5.001 10C5.001 9.449 5.446 9.002 5.997 9C6.153 8.998 9.566 8.914 12.202 5.4C12.533 4.96 13.159 4.868 13.602 5.2C14.044 5.531 14.133 6.158 13.802 6.6C10.539 10.95 6.185 11 6.001 11ZM30.987 13.393C31.115 13.93 30.783 14.47 30.246 14.598C29.71 14.726 29.172 14.396 29.042 13.861C29.004 13.71 28.131 10.409 24.101 8.66C23.596 8.44 23.362 7.852 23.582 7.345C23.802 6.838 24.391 6.606 24.897 6.826C29.886 8.991 30.944 13.214 30.987 13.393Z" fill="#292F33"/>
<path d="M14.815 15.375C14.231 17.489 13.173 18.458 11.663 18.041C10.154 17.624 9.32 16.132 9.903 14.018C10.486 11.906 12.078 10.655 13.587 11.072C15.098 11.489 15.399 13.262 14.815 15.375ZM26.231 14.62C26.704 16.761 25.556 19.458 24.027 19.796C22.498 20.134 20.747 18.077 20.274 15.936C19.801 13.796 20.693 11.965 22.222 11.627C23.751 11.289 25.758 12.48 26.231 14.62Z" fill="#292F33"/>
</svg>
