<svg width="36" height="36" viewBox="0 0 36 36" fill="none" xmlns="http://www.w3.org/2000/svg">
<path d="M9.296 6.351C9.132 6.263 8.993 6.127 8.905 5.952C8.689 5.524 8.865 5.025 9.298 4.84C13.564 3.009 16.997 4.797 17.141 4.874C17.574 5.105 17.749 5.621 17.532 6.028C17.316 6.433 16.792 6.574 16.359 6.346C16.236 6.283 13.527 4.914 10.081 6.393C9.824 6.502 9.534 6.478 9.296 6.351ZM21.431 10.101C21.275 10.003 21.145 9.858 21.069 9.677C20.882 9.235 21.092 8.75 21.537 8.593C25.918 7.057 29.222 9.073 29.36 9.16C29.775 9.42 29.915 9.947 29.672 10.338C29.43 10.728 28.896 10.833 28.481 10.576C28.361 10.504 25.754 8.955 22.214 10.197C21.948 10.288 21.661 10.243 21.431 10.101Z" fill="#292F33"/>
<path d="M24.375 14.892C25.5486 14.892 26.5 13.7029 26.5 12.236C26.5 10.7691 25.5486 9.58 24.375 9.58C23.2014 9.58 22.25 10.7691 22.25 12.236C22.25 13.7029 23.2014 14.892 24.375 14.892Z" fill="#292F33"/>
<path d="M13.119 13.83C14.2926 13.83 15.244 12.6409 15.244 11.174C15.244 9.70713 14.2926 8.518 13.119 8.518C11.9454 8.518 10.994 9.70713 10.994 11.174C10.994 12.6409 11.9454 13.83 13.119 13.83Z" fill="#292F33"/>
</svg>
