<svg width="36" height="36" viewBox="0 0 36 36" fill="none" xmlns="http://www.w3.org/2000/svg">
<path d="M23.142 3.403C21.492 1.899 19.712 1 18 1C12.375 1 6 10.611 6 20C6 20.975 6.079 21.899 6.202 22.791C7.261 30.484 12.623 35 18 35C24 35 30 29.389 30 20C30 13.469 26.914 6.839 23.142 3.403Z" fill="#F7DECE"/>
<path d="M23.142 3.40302C26.05 6.92202 28.25 12.421 28.25 17.856C28.25 26.865 22.578 32.249 16.906 32.249C12.365 32.249 7.83105 28.79 6.20105 22.79C7.26105 30.484 12.623 35 18 35C24 35 30 29.389 30 20C30 13.469 26.914 6.83902 23.142 3.40302Z" fill="#E0AA94"/>
</svg>
