<svg width="36" height="36" viewBox="0 0 36 36" fill="none" xmlns="http://www.w3.org/2000/svg">
<g clip-path="url(#clip0)">
<path d="M18 36C27.9411 36 36 27.9411 36 18C36 8.05887 27.9411 0 18 0C8.05887 0 0 8.05887 0 18C0 27.9411 8.05887 36 18 36Z" fill="#AA8DD8"/>
<path d="M10 4.00004C7.42 4.00004 4.369 1.53404 3.414 0.586043C2.843 0.0140429 1.981 -0.156957 1.235 0.153043C0.487 0.462043 0 1.19104 0 2.00004C0 5.45904 1.672 12 8 12C8.757 12 9.45 11.572 9.789 10.894L11.789 6.89404C12.099 6.27404 12.066 5.53804 11.701 4.94804C11.337 4.35904 10.693 4.00004 10 4.00004ZM34.766 0.153043C34.016 -0.157957 33.159 0.0140429 32.586 0.587043C31.7 1.47204 28.589 4.00004 26 4.00004C25.307 4.00004 24.663 4.35904 24.299 4.94904C23.935 5.53804 23.902 6.27504 24.211 6.89504L26.211 10.895C26.55 11.572 27.242 12 28 12C34.328 12 36 5.45904 36 2.00004C36 1.19104 35.513 0.462043 34.766 0.153043Z" fill="#AA8DD8"/>
</g>
<defs>
<clipPath id="clip0">
<rect width="36" height="36" fill="white"/>
</clipPath>
</defs>
</svg>
