<svg width="36" height="36" viewBox="0 0 36 36" fill="none" xmlns="http://www.w3.org/2000/svg">
<path d="M22.494 5.34398C21.807 5.34398 21.142 5.40998 20.503 5.52098C19.684 5.41698 17.763 5.28998 16.912 5.28998C8.439 5.28998 1.026 8.46698 1.026 19.588C1.026 28.624 8.075 35.949 18.002 35.949C27.929 35.949 35.976 28.624 35.976 19.588C35.975 8.33898 26.59 5.34398 22.494 5.34398Z" fill="#DD2E44"/>
<path d="M8.43896 0.0910034C10.076 1.727 11.209 2.357 11.713 5.001C12.011 6.565 13.979 6.511 13.979 6.511C13.979 6.511 10.076 8.274 8.43896 9.911C8.43896 9.911 13.349 8.274 14.986 8.274C14.986 8.274 18.259 9.911 18.259 11.547C18.259 11.547 18.259 8.274 16.623 8.274C16.623 8.274 21.532 8.274 21.532 11.547C21.532 11.547 21.532 6.637 19.895 6.637C19.895 6.637 24.806 5.001 26.443 6.637C26.443 6.637 24.757 4.917 21.532 5.001C21.532 5.001 23.17 3.364 26.443 3.364C26.443 3.364 21.155 1.853 19.518 5.127C19.518 5.127 18.133 3.742 20.903 0.972003C20.903 0.972003 16.623 1.727 16.623 5.001C16.623 5.001 15.071 4.961 13.979 3.742C11.838 1.35 8.43896 0.0910034 8.43896 0.0910034Z" fill="#77B255"/>
</svg>
