<svg width="36" height="36" viewBox="0 0 36 36" fill="none" xmlns="http://www.w3.org/2000/svg">
<path d="M13.589 26.521C13.292 26.026 13.305 25.404 13.624 24.922L18.019 18.276L12.024 13.137C11.468 12.661 11.338 11.854 11.714 11.226L16.018 4.05399C14.349 2.75299 12.263 1.96399 9.98299 1.96399C4.53299 1.96399 0.11499 6.38099 0.11499 11.832C0.11499 12.604 0.21299 13.352 0.38099 14.073C1.75099 22.587 11.216 31.568 18 34.034C18.025 34.025 18.052 34.012 18.077 34.002L13.589 26.521Z" fill="#DD2E44"/>
<path d="M26.018 1.966C23.253 1.966 20.77 3.117 18.981 4.949L14.939 11.686L20.978 16.862C21.552 17.354 21.669 18.197 21.252 18.828L16.648 25.79L20.809 32.725C27.147 29.196 34.43 21.462 35.618 14.076C35.788 13.355 35.886 12.607 35.886 11.835C35.885 6.383 31.467 1.966 26.018 1.966Z" fill="#DD2E44"/>
</svg>
