<svg width="36" height="36" viewBox="0 0 36 36" fill="none" xmlns="http://www.w3.org/2000/svg">
<path d="M18 4C25.257 4 31 8 32.699 6C32.896 5.677 33 5.343 33 5C33 3 26.284 0 18 0C9.716 0 3 3 3 5C3 5.343 3.104 5.677 3.301 6C5 8 10.743 4 18 4Z" fill="#F4900C"/>
<path d="M18 3C11.787 3 7.38399 4.81 5.72699 5.618C5.24999 5.851 5.18799 6.458 5.31199 6.896C5.43599 7.334 16 34 16 34C16 34 16.896 36 18 36C19.104 36 20 34 20 34L30.704 6.779C30.704 6.779 30.917 5.937 30.135 5.55C28.392 4.689 24.047 3 18 3Z" fill="#FFCC4D"/>
<path d="M17.9999 31C17.9999 28.792 16.2089 27 13.9999 27C13.7459 27 13.4999 27.029 13.2589 27.075L15.9999 34C15.9999 34 16.0709 34.14 16.1899 34.342C17.2789 33.627 17.9999 32.399 17.9999 31ZM16.9999 20C16.9999 17.791 15.2079 16 12.9999 16C11.5739 16 10.3299 16.752 9.62195 17.876L11.9839 23.854C12.3109 23.94 12.6469 24 12.9999 24C15.2079 24 16.9999 22.208 16.9999 20Z" fill="#BE1931"/>
<path d="M16 12C18.2091 12 20 10.2091 20 8C20 5.79086 18.2091 4 16 4C13.7909 4 12 5.79086 12 8C12 10.2091 13.7909 12 16 12Z" fill="#BE1931"/>
<path d="M25 9C22.792 9 21 10.791 21 13C21 15.209 22.792 17 25 17C25.682 17 26.315 16.813 26.877 16.512L28.767 11.706C28.227 10.135 26.752 9 25 9ZM19 25C19 26.868 20.288 28.425 22.019 28.864L24.912 21.507C24.342 21.194 23.697 21 23 21C20.792 21 19 22.792 19 25ZM10 12C10 9.791 8.209 8 6 8C5.913 8 5.831 8.02 5.745 8.026C6.295 9.438 7.32 12.042 8.52 15.083C9.416 14.349 10 13.248 10 12Z" fill="#BE1931"/>
</svg>
