<svg width="36" height="36" viewBox="0 0 36 36" fill="none" xmlns="http://www.w3.org/2000/svg">
<path d="M18 36C27.9411 36 36 31.5228 36 26C36 20.4772 27.9411 16 18 16C8.05887 16 0 20.4772 0 26C0 31.5228 8.05887 36 18 36Z" fill="#8899A6"/>
<path d="M18 34.25C27.9411 34.25 36 29.7728 36 24.25C36 18.7272 27.9411 14.25 18 14.25C8.05887 14.25 0 18.7272 0 24.25C0 29.7728 8.05887 34.25 18 34.25Z" fill="#CCD6DD"/>
<path d="M32.6749 23.685C32.6749 27.945 26.1049 31.397 18 31.397C9.89495 31.397 3.32495 27.945 3.32495 23.685C3.32495 19.427 9.89495 15.974 18 15.974C26.104 15.974 32.6749 19.427 32.6749 23.685Z" fill="#DD2E44"/>
<path d="M32.233 22.543C32.233 32.397 3.76697 32.397 3.76697 22.543V13.784H32.233V22.543Z" fill="#F4ABBA"/>
<path d="M17.984 18.166C9 18.166 3.766 14.034 3.766 14.034C3.766 14.034 3.75 14.958 3.75 15.719C3.75 15.719 3.782 20.617 6.322 20.617C8.781 20.617 8.602 22.965 10.156 23.208C11.697 23.449 11.868 22.27 13.781 22.27C15.694 22.27 16.031 24.376 17.984 24.376C20.273 24.376 20.461 22.27 22.373 22.27C24.285 22.27 24.505 23.494 25.759 23.155C27.266 22.747 26.573 20.618 29.646 20.618C32.186 20.618 32.249 15.97 32.249 15.97C32.249 15.21 32.232 14.035 32.232 14.035C32.232 14.035 26.969 18.166 17.984 18.166Z" fill="#DD2E44"/>
<path d="M32.6749 12.737C32.6749 16.996 26.1049 20.449 18 20.449C9.89495 20.449 3.32495 16.996 3.32495 12.737C3.32495 8.47802 9.89495 5.02502 18 5.02502C26.104 5.02502 32.6749 8.47802 32.6749 12.737Z" fill="#EA596E"/>
<path d="M25.664 13.784C25.059 13.784 24.569 13.294 24.569 12.689V5.02499C24.569 4.41999 25.059 3.92999 25.664 3.92999C26.269 3.92999 26.759 4.41999 26.759 5.02499V12.689C26.759 13.294 26.269 13.784 25.664 13.784Z" fill="#FFF8E8"/>
<path d="M25.6639 6.66697C24.5019 6.66697 23.5879 6.13497 23.2189 5.24397C22.8989 4.47097 22.74 2.79397 25.277 0.257973C25.491 0.0439731 25.837 0.0439731 26.051 0.257973C28.588 2.79497 28.4289 4.47097 28.1089 5.24397C27.7399 6.13497 26.8259 6.66697 25.6639 6.66697Z" fill="#FAAA35"/>
<path d="M18 17.068C17.395 17.068 16.905 16.578 16.905 15.973V8.31003C16.905 7.70503 17.395 7.21503 18 7.21503C18.605 7.21503 19.095 7.70503 19.095 8.31003V15.974C19.095 16.578 18.605 17.068 18 17.068Z" fill="#FFF8E8"/>
<path d="M18 9.95201C16.838 9.95201 15.924 9.42001 15.555 8.52901C15.234 7.75601 15.076 6.07901 17.613 3.54301C17.827 3.32901 18.173 3.32901 18.387 3.54301C20.924 6.08001 20.765 7.75601 20.445 8.52901C20.076 9.42001 19.162 9.95201 18 9.95201Z" fill="#FAAA35"/>
<path d="M10.336 13.784C9.73097 13.784 9.24097 13.294 9.24097 12.689V5.02499C9.24097 4.41999 9.73097 3.92999 10.336 3.92999C10.941 3.92999 11.431 4.41999 11.431 5.02499V12.689C11.431 13.294 10.941 13.784 10.336 13.784Z" fill="#FFF8E8"/>
<path d="M10.336 6.66697C9.17402 6.66697 8.26002 6.13497 7.89102 5.24397C7.57002 4.47097 7.41202 2.79397 9.94902 0.257973C10.163 0.0439731 10.509 0.0439731 10.723 0.257973C13.26 2.79497 13.101 4.47097 12.781 5.24397C12.412 6.13497 11.498 6.66697 10.336 6.66697Z" fill="#FAAA35"/>
</svg>
