<svg width="36" height="36" viewBox="0 0 36 36" fill="none" xmlns="http://www.w3.org/2000/svg">
<g clip-path="url(#clip0)">
<path d="M28.84 17.638C27.853 18.682 27.207 20.705 27.402 22.131L28.294 28.572C28.491 29.999 27.593 30.659 26.298 30.041L20.447 27.245C19.152 26.625 17.039 26.634 15.747 27.263L9.92097 30.105C8.62997 30.734 7.72797 30.079 7.91397 28.653L8.75697 22.204C8.94297 20.777 8.28197 18.76 7.28697 17.723L2.79297 13.035C1.79697 11.998 2.13797 10.933 3.54797 10.67L9.91797 9.48199C11.328 9.21899 13.034 7.96399 13.711 6.69299L16.762 0.955994C17.437 -0.315006 18.551 -0.318006 19.235 0.946994L22.33 6.65999C23.016 7.92499 24.73 9.16699 26.144 9.41799L32.522 10.559C33.934 10.811 34.283 11.873 33.296 12.918L28.84 17.638Z" fill="#FFAC33"/>
<path d="M9.78301 2.18104C10.806 3.59404 12.229 7.09804 11.5 7.62804C10.772 8.15904 7.89301 5.71804 6.87001 4.30504C5.84801 2.89204 5.93501 1.63704 6.73901 1.05104C7.54301 0.464042 8.75901 0.769042 9.78301 2.18104ZM29.131 4.30504C28.109 5.71804 25.23 8.16004 24.5 7.62704C23.771 7.09704 25.195 3.59404 26.219 2.18204C27.242 0.768041 28.457 0.463042 29.262 1.05104C30.065 1.63704 30.152 2.89204 29.131 4.30504ZM16.625 33.291C16.624 31.545 17.523 27.87 18.426 27.87C19.323 27.87 20.224 31.545 20.223 33.29C20.223 35.037 19.419 36.002 18.423 36C17.429 36.002 16.625 35.038 16.625 33.291ZM32.804 24.029C31.149 23.49 27.946 21.496 28.225 20.634C28.502 19.776 32.262 20.053 33.915 20.593C35.57 21.133 36.236 22.198 35.928 23.149C35.62 24.099 34.459 24.569 32.804 24.029ZM2.08301 20.594C3.73801 20.054 7.49701 19.777 7.77701 20.638C8.05301 21.495 4.84901 23.492 3.19601 24.03C1.54201 24.57 0.378009 24.1 0.0730086 23.15C-0.234991 22.2 0.427009 21.135 2.08301 20.594Z" fill="#FFD983"/>
</g>
<defs>
<clipPath id="clip0">
<rect width="36" height="36" fill="white"/>
</clipPath>
</defs>
</svg>
