<svg width="36" height="36" viewBox="0 0 36 36" fill="none" xmlns="http://www.w3.org/2000/svg">
<g clip-path="url(#clip0)">
<path d="M9.99904 12C9.84904 12 9.69604 11.966 9.55304 11.894C5.17304 9.70403 2.06904 4.36803 1.05204 1.31603C0.876039 0.792027 1.16004 0.226027 1.68404 0.0510269C2.20904 -0.124973 2.77504 0.160027 2.94904 0.683027C3.82604 3.31503 6.63704 8.20003 10.448 10.105C10.942 10.352 11.142 10.953 10.895 11.447C10.719 11.798 10.366 12 9.99904 12Z" fill="#77B255"/>
<path d="M19 36C22.866 36 26 32.866 26 29C26 25.134 22.866 22 19 22C15.134 22 12 25.134 12 29C12 32.866 15.134 36 19 36Z" fill="#553788"/>
<path d="M10 22C13.866 22 17 18.866 17 15C17 11.134 13.866 8 10 8C6.13401 8 3 11.134 3 15C3 18.866 6.13401 22 10 22Z" fill="#9266CC"/>
<path d="M19 19C22.866 19 26 15.866 26 12C26 8.13401 22.866 5 19 5C15.134 5 12 8.13401 12 12C12 15.866 15.134 19 19 19Z" fill="#AA8DD8"/>
<path d="M27 25C30.866 25 34 21.866 34 18C34 14.134 30.866 11 27 11C23.134 11 20 14.134 20 18C20 21.866 23.134 25 27 25Z" fill="#744EAA"/>
<path d="M9 33C12.866 33 16 29.866 16 26C16 22.134 12.866 19 9 19C5.13401 19 2 22.134 2 26C2 29.866 5.13401 33 9 33Z" fill="#744EAA"/>
<path d="M18 28C21.866 28 25 24.866 25 21C25 17.134 21.866 14 18 14C14.134 14 11 17.134 11 21C11 24.866 14.134 28 18 28Z" fill="#9266CC"/>
<path d="M29 36C32.866 36 36 32.866 36 29C36 25.134 32.866 22 29 22C25.134 22 22 25.134 22 29C22 32.866 25.134 36 29 36Z" fill="#9266CC"/>
</g>
<defs>
<clipPath id="clip0">
<rect width="36" height="36" fill="white"/>
</clipPath>
</defs>
</svg>
