<svg width="36" height="36" viewBox="0 0 36 36" fill="none" xmlns="http://www.w3.org/2000/svg">
<path d="M18 35C27.3888 35 35 27.3888 35 18C35 8.61116 27.3888 1 18 1C8.61116 1 1 8.61116 1 18C1 27.3888 8.61116 35 18 35Z" fill="#D99E82"/>
<path d="M22.638 16.947C23.815 16.562 25.082 17.208 25.465 18.387C25.849 19.566 25.205 20.834 24.024 21.218C22.843 21.602 20.153 21.419 19.769 20.24C19.386 19.059 21.456 17.329 22.638 16.947ZM31.208 16.275C30.828 16.727 30.153 16.787 29.701 16.406C29.249 16.025 29.19 15.351 29.57 14.898C29.951 14.447 31.084 13.841 31.536 14.221C31.989 14.602 31.589 15.822 31.208 16.275ZM9.20802 9.27501C8.82802 9.72701 8.15302 9.78701 7.70102 9.40601C7.24902 9.02501 7.19002 8.35201 7.57002 7.89801C7.95102 7.44701 9.08402 6.84101 9.53602 7.22101C9.98902 7.60201 9.58902 8.82201 9.20802 9.27501ZM21.301 7.38101C20.553 6.90301 20.332 5.90901 20.811 5.16101C21.29 4.41201 22.284 4.19301 23.033 4.67101C23.782 5.15001 24.905 6.72101 24.427 7.46901C23.947 8.21901 22.05 7.86101 21.301 7.38101ZM13.375 13.598C12.86 12.532 13.311 11.247 14.38 10.734C15.449 10.221 16.731 10.673 17.244 11.742C17.757 12.812 17.926 15.385 16.857 15.896C15.786 16.41 13.886 14.669 13.375 13.598ZM14.399 27.697C15.001 26.823 16.199 26.601 17.071 27.205C17.945 27.81 18.165 29.006 17.561 29.88C16.957 30.754 15.033 32.027 14.161 31.424C13.286 30.82 13.795 28.57 14.399 27.697ZM24.412 27.291C23.725 26.855 23.523 25.943 23.963 25.257C24.401 24.572 25.312 24.371 25.998 24.81C26.684 25.248 27.713 26.688 27.274 27.372C26.836 28.06 25.098 27.731 24.412 27.291ZM5.53602 18.42C6.29802 17.567 7.60702 17.494 8.45902 18.257C9.31102 19.021 9.38302 20.328 8.62002 21.179C7.85702 22.033 5.62802 23.134 4.77702 22.37C3.92302 21.607 4.77202 19.271 5.53602 18.42Z" fill="#8A4B38"/>
</svg>
