<svg width="36" height="36" viewBox="0 0 36 36" fill="none" xmlns="http://www.w3.org/2000/svg">
<path d="M36 11C36 9.896 35.104 9 34 9C32.896 9 32 9.896 32 11C32 11 31.989 14.285 29 14.894V12C29 5.925 24.075 1 18 1C11.925 1 7 5.925 7 12V15.237C1.778 16.806 0 23.231 0 27C0 28.104 0.896 29 2 29C3.104 29 4 28.104 4 27C4 27 4.002 23.46 7.336 23.042C7.838 27.883 8.954 33 11 33H12C16 33 15 35 19 35C23 35 22 33 25 33C28 33 27.395 35 31 35C32.657 35 34 33.657 34 32C34 31.325 31.726 27.006 30.245 22.732C35.981 21.348 36 14.58 36 11Z" fill="#E1E8ED"/>
</svg>
