<svg width="36" height="36" viewBox="0 0 36 36" fill="none" xmlns="http://www.w3.org/2000/svg">
<path d="M36 22C36 24.209 34.209 26 32 26H4C1.791 26 0 24.209 0 22V4C0 1.791 1.791 0 4 0H32C34.209 0 36 1.791 36 4V22Z" fill="#CCD6DD"/>
<path d="M4 4H32V22H4V4Z" fill="#5DADEC"/>
<path d="M13 26H23V32H13V26Z" fill="#CCD6DD"/>
<path d="M13 26H23V28H13V26Z" fill="#9AAAB4"/>
<path d="M36 33C36 31.343 34.657 30 33 30H3C1.343 30 0 31.343 0 33C0 34.657 1.343 36 3 36H33C34.657 36 36 34.657 36 33Z" fill="#E1E8ED"/>
<path d="M3 32H5V34H3V32ZM7 32H9V34H7V32ZM11 32H13V34H11V32ZM15 32H17V34H15V32ZM19 32H21V34H19V32ZM23 32H25V34H23V32ZM27 32H29V34H27V32ZM31 32H33V34H31V32Z" fill="#F5F8FA"/>
</svg>
