<svg width="36" height="36" viewBox="0 0 36 36" fill="none" xmlns="http://www.w3.org/2000/svg">
<path d="M33 31C33 33.2 31.2 35 29 35H7C4.8 35 3 33.2 3 31V14C3 11.8 4.8 10 7 10H29C31.2 10 33 11.8 33 14V31Z" fill="#FDD888"/>
<path d="M36 11C36 13.2 34.2 15 32 15H4C1.8 15 0 13.2 0 11C0 8.8 1.8 7 4 7H32C34.2 7 36 8.8 36 11Z" fill="#FDD888"/>
<path d="M3 15H33V17H3V15Z" fill="#FCAB40"/>
<path d="M19 3H17C15.343 3 14 4.343 14 6V35H22V6C22 4.344 20.657 3 19 3Z" fill="#DA2F47"/>
<path d="M16 6.99995C17.1 6.99995 17.263 6.48395 16.361 5.85295L9.63899 1.14695C8.73699 0.515948 7.55399 0.780948 7.00799 1.73595L4.99199 5.26395C4.44599 6.21895 4.89999 6.99995 5.99999 6.99995H16ZM20 6.99995C18.9 6.99995 18.737 6.48395 19.639 5.85295L26.362 1.14695C27.263 0.515948 28.447 0.780948 28.993 1.73595L31.009 5.26295C31.554 6.21895 31.1 6.99995 30 6.99995H20Z" fill="#DA2F47"/>
</svg>
