<svg width="36" height="36" viewBox="0 0 36 36" fill="none" xmlns="http://www.w3.org/2000/svg">
<g clip-path="url(#clip0)">
<path d="M33.541 23.198C33.905 21.62 33.784 19.932 33.083 18.252C32.405 16.627 31.236 15.342 29.812 14.479C30.13 13.287 30.046 12.004 29.488 10.729C28.647 8.80898 26.828 7.52798 24.776 7.16698C25.025 6.59498 25.105 5.87798 24.812 4.99998C23.812 1.99998 19.812 3.99998 16.812 0.000976562C14.372 1.46498 13.842 3.64098 13.934 5.48798C11.513 5.89998 10.134 6.42398 10.134 6.42398V6.42598C8.774 6.97598 7.812 8.30898 7.812 9.86798C7.812 10.747 8.13 11.544 8.64 12.18L7.948 12.438L7.949 12.441C5.619 13.312 3.974 15.417 3.974 17.88C3.974 18.927 4.274 19.907 4.794 20.758C1.971 22.027 0 24.781 0 28C0 32.418 3.691 36 8.244 36C11.513 36 14.803 35.297 17.775 34.335C20.018 35.375 23.47 36 28.667 36C32.717 36 36 32.717 36 28.667C36 26.491 35.047 24.542 33.541 23.198Z" fill="#BF6952"/>
</g>
<defs>
<clipPath id="clip0">
<rect width="36" height="36" fill="white"/>
</clipPath>
</defs>
</svg>
