<svg width="36" height="36" viewBox="0 0 36 36" fill="none" xmlns="http://www.w3.org/2000/svg">
<g clip-path="url(#clip0)">
<path d="M18 36C27.9411 36 36 31.5228 36 26C36 20.4772 27.9411 16 18 16C8.05887 16 0 20.4772 0 26C0 31.5228 8.05887 36 18 36Z" fill="#292F33"/>
<path d="M18 34C27.9411 34 36 29.5228 36 24C36 18.4772 27.9411 14 18 14C8.05887 14 0 18.4772 0 24C0 29.5228 8.05887 34 18 34Z" fill="#66757F"/>
<path d="M18 31C3.042 31 1 16 1 12H35C35 14 33.042 31 18 31Z" fill="#E1E8ED"/>
<path d="M35 12.056C35 17.272 27.389 21.5 18 21.5C8.611 21.5 1 17.271 1 12.056C1 6.84002 8.611 3.61102 18 3.61102C27.389 3.61102 35 6.84002 35 12.056Z" fill="#77B255"/>
<path d="M18 20C26.2843 20 33 16.866 33 13C33 9.13401 26.2843 6 18 6C9.71573 6 3 9.13401 3 13C3 16.866 9.71573 20 18 20Z" fill="#A6D388"/>
<path d="M21 17C20.744 17 20.488 16.902 20.293 16.707C17.956 14.37 17.917 11.822 20.168 8.44502C20.907 7.33602 21.068 6.19902 20.646 5.06802C20.185 3.83202 19.208 3.07202 18.915 2.99102C18.362 2.99102 17.957 2.54802 17.957 1.99502C17.957 1.44302 18.448 1.00002 19 1.00002C19.997 1.00002 21.395 2.15302 22.183 3.62502C23.217 5.55802 23.093 7.66402 21.832 9.55402C19.871 12.496 20.301 13.886 21.707 15.292C22.098 15.683 22.098 16.315 21.707 16.706C21.512 16.902 21.256 17 21 17ZM15 15C14.744 15 14.488 14.902 14.293 14.707C11.956 12.37 11.917 9.82202 14.168 6.44502C14.895 5.35402 15.061 4.36202 14.662 3.49802C14.218 2.53702 13.231 2.02902 12.978 1.99902C12.426 1.99902 11.989 1.55202 11.989 0.999023C11.989 0.447023 12.447 -0.000976562 13 -0.000976562C13.997 -0.000976562 15.585 0.973023 16.36 2.42202C16.841 3.32102 17.412 5.18302 15.832 7.55302C13.871 10.495 14.301 11.885 15.707 13.291C16.098 13.682 16.098 14.314 15.707 14.705C15.512 14.902 15.256 15 15 15Z" fill="#5C913B"/>
</g>
<defs>
<clipPath id="clip0">
<rect width="36" height="36" fill="white"/>
</clipPath>
</defs>
</svg>
