<svg width="36" height="36" viewBox="0 0 36 36" fill="none" xmlns="http://www.w3.org/2000/svg">
<path d="M3 19.5C3 10.388 10.387 3 19.499 3C28.612 3 35.999 10.387 35.999 19.5C35.999 28.613 28.612 36 19.499 36C10.387 36 3 28.613 3 19.5Z" fill="#F4900C"/>
<path d="M11.414 7.58502C11.147 7.31802 10.617 7.38802 10.059 7.70502C6.75897 4.97302 1.40597 4.05302 1.16397 4.01302C0.617971 3.92402 0.104971 4.29002 0.0139705 4.83402C-0.0770295 5.37802 0.28997 5.89402 0.83497 5.98502C0.88797 5.99402 5.76897 6.83902 8.65597 9.14502C8.38097 9.67002 8.33197 10.16 8.58597 10.413C8.97597 10.804 9.92597 10.487 10.707 9.70602C11.488 8.92602 11.804 7.97602 11.414 7.58502Z" fill="#662113"/>
<path d="M21 1.00001C21 1.00001 17.894 5.31801 13.979 6.27301C11 7.00001 7.04096 7.07001 6.64596 6.15001C6.25196 5.23101 8.21796 2.21301 11.615 0.757014C15.012 -0.697986 21 1.00001 21 1.00001Z" fill="#5C913B"/>
</svg>
