<svg width="36" height="36" viewBox="0 0 36 36" fill="none" xmlns="http://www.w3.org/2000/svg">
<g clip-path="url(#clip0)">
<path d="M18 36C27.9411 36 36 31.5228 36 26C36 20.4772 27.9411 16 18 16C8.05887 16 0 20.4772 0 26C0 31.5228 8.05887 36 18 36Z" fill="#99AAB5"/>
<path d="M18 34C27.9411 34 36 29.5228 36 24C36 18.4772 27.9411 14 18 14C8.05887 14 0 18.4772 0 24C0 29.5228 8.05887 34 18 34Z" fill="#CCD6DD"/>
<path d="M18 31C3.042 31 1 16 1 12H35C35 14 33.042 31 18 31Z" fill="#F5F8FA"/>
<path d="M34.385 9.64401C36.827 -0.478992 24.604 1.93801 22.181 3.84501C20.841 3.69701 19.445 3.61101 18 3.61101C8.611 3.61101 1 6.84001 1 12.055C1 17.271 8.611 21.5 18 21.5C27.389 21.5 35 17.271 35 12.056C35 11.193 34.774 10.392 34.385 9.64401ZM31.882 6.95201C30.525 6.01401 28.78 5.25801 26.761 4.70201C28.636 4.12601 31.312 4.39301 31.882 6.95201Z" fill="#CCD6DD"/>
<path d="M18 20C26.2843 20 33 16.866 33 13C33 9.13401 26.2843 6 18 6C9.71573 6 3 9.13401 3 13C3 16.866 9.71573 20 18 20Z" fill="#8A4B38"/>
<path d="M20 17C19.744 17 19.488 16.902 19.293 16.707C16.956 14.37 16.917 11.822 19.168 8.44502C19.907 7.33602 20.068 6.19902 19.646 5.06802C19.185 3.83202 18.208 3.07202 17.915 2.99102C17.362 2.99102 16.957 2.54802 16.957 1.99502C16.957 1.44302 17.448 1.00002 18 1.00002C18.997 1.00002 20.395 2.15302 21.183 3.62502C22.217 5.55802 22.093 7.66402 20.832 9.55402C18.871 12.496 19.301 13.886 20.707 15.292C21.098 15.683 21.098 16.315 20.707 16.706C20.512 16.902 20.256 17 20 17ZM14 15C13.744 15 13.488 14.902 13.293 14.707C10.956 12.37 10.917 9.82202 13.168 6.44502C13.895 5.35402 14.061 4.36202 13.662 3.49802C13.218 2.53702 12.231 2.02902 11.978 1.99902C11.426 1.99902 10.989 1.55202 10.989 0.999023C10.989 0.447023 11.447 -0.000976562 12 -0.000976562C12.997 -0.000976562 14.585 0.973023 15.36 2.42202C15.841 3.32102 16.412 5.18302 14.832 7.55302C12.871 10.495 13.301 11.885 14.707 13.291C15.098 13.682 15.098 14.314 14.707 14.705C14.512 14.902 14.256 15 14 15Z" fill="#D99E82"/>
</g>
<defs>
<clipPath id="clip0">
<rect width="36" height="36" fill="white"/>
</clipPath>
</defs>
</svg>
