<svg width="36" height="36" viewBox="0 0 36 36" fill="none" xmlns="http://www.w3.org/2000/svg">
<path d="M27.287 34.627C26.883 34.627 26.481 34.503 26.135 34.256L18 28.422L9.865 34.256C9.172 34.752 8.242 34.752 7.553 34.248C6.864 33.749 6.574 32.863 6.832 32.054L9.866 22.262L1.804 16.581C1.119 16.076 0.833998 15.188 1.096 14.378C1.36 13.57 2.112 13.021 2.962 13.015L12.947 13L16.126 3.45102C16.394 2.64202 17.149 2.09802 18 2.09802C18.851 2.09802 19.606 2.64302 19.875 3.45102L23 13L33.036 13.015C33.889 13.021 34.642 13.571 34.903 14.378C35.166 15.188 34.881 16.076 34.195 16.581L26.133 22.262L29.167 32.054C29.427 32.863 29.134 33.749 28.447 34.248C28.1 34.502 27.694 34.627 27.287 34.627Z" fill="#FFAC33"/>
</svg>
