<svg width="36" height="36" viewBox="0 0 36 36" fill="none" xmlns="http://www.w3.org/2000/svg">
<path d="M7.75405 7.75405C4.06805 11.44 1.64005 16.37 0.843047 21.335L14.665 35.157C19.63 34.36 24.56 31.932 28.246 28.246C31.932 24.56 34.36 19.63 35.157 14.665L21.335 0.843047C16.37 1.64005 11.44 4.06805 7.75405 7.75405ZM33.369 2.63105C30.707 1.15205 27.634 0.510047 24.472 0.564047L35.437 11.528C35.49 8.36605 34.848 5.29305 33.369 2.63105ZM2.63105 33.369C5.29305 34.848 8.36705 35.49 11.529 35.436L0.564047 24.472C0.510047 27.633 1.15205 30.707 2.63105 33.369Z" fill="#662113"/>
<path d="M22.828 11.757L20.414 14.171L19.707 13.464C19.316 13.073 18.684 13.073 18.293 13.464C17.902 13.855 17.902 14.488 18.293 14.878L19 15.586L15.586 19L14.879 18.293C14.488 17.902 13.856 17.902 13.465 18.293C13.074 18.684 13.074 19.316 13.465 19.707L14.172 20.414L11.758 22.828L11.051 22.121C10.66 21.73 10.028 21.73 9.63696 22.121C9.24597 22.512 9.24597 23.145 9.63696 23.535L10.344 24.242L9.34396 25.242C8.95296 25.634 8.95296 26.266 9.34396 26.657C9.73496 27.048 10.367 27.048 10.758 26.657L11.758 25.657L12.465 26.364C12.856 26.755 13.488 26.755 13.879 26.364C14.27 25.972 14.27 25.34 13.879 24.95L13.172 24.243L15.586 21.829L16.293 22.536C16.684 22.928 17.316 22.928 17.707 22.536C18.098 22.145 18.098 21.512 17.707 21.122L17 20.414L20.414 17L21.121 17.707C21.512 18.098 22.145 18.098 22.535 17.707C22.926 17.316 22.927 16.684 22.535 16.293L21.828 15.586L24.242 13.172L24.949 13.879C25.34 14.27 25.972 14.269 26.363 13.879C26.754 13.488 26.754 12.856 26.363 12.465L25.656 11.758L26.656 10.758C27.046 10.367 27.046 9.73496 26.656 9.34396C26.265 8.95296 25.632 8.95296 25.241 9.34396L24.241 10.344L23.534 9.63696C23.144 9.24597 22.51 9.24597 22.12 9.63696C21.729 10.027 21.729 10.66 22.12 11.051L22.828 11.757ZM0.563965 24.472L11.529 35.437C12.569 35.419 13.617 35.326 14.665 35.158L0.842965 21.335C0.674965 22.384 0.581965 23.431 0.563965 24.472ZM24.472 0.563965C23.432 0.581965 22.384 0.674965 21.336 0.842965L35.158 14.665C35.326 13.616 35.419 12.569 35.437 11.529L24.472 0.563965Z" fill="#E1E8ED"/>
</svg>
