<svg width="36" height="36" viewBox="0 0 36 36" fill="none" xmlns="http://www.w3.org/2000/svg">
<g clip-path="url(#clip0)">
<path d="M24 7C21 7 21 8 18 8C15 8 15 7 12 7C8 7 3 9 3 16C3 27 9 36 13 36C16 36 16 35 18 35C20 35 20 36 23 36C27 36 33 27 33 16C33 8.999 28 7 24 7Z" fill="#77B255"/>
<path d="M17.311 7.87999C17.311 7.87999 15.536 3.20599 10.731 1.81999C6.88796 0.711992 4.41296 2.07999 4.41296 2.07999C4.41296 2.07999 7.42496 6.07099 10.308 6.90199C13.19 7.73199 17.311 7.87999 17.311 7.87999Z" fill="#3E721D"/>
<path d="M18 10C17.448 10 17 9.55201 17 9.00001C17 5.55901 18.2 2.38501 20.293 0.293006C20.684 -0.0979941 21.316 -0.0979941 21.707 0.293006C22.098 0.684006 22.098 1.31701 21.707 1.70701C19.986 3.42701 19 6.08501 19 9.00001C19 9.55201 18.552 10 18 10Z" fill="#662113"/>
</g>
<defs>
<clipPath id="clip0">
<rect width="36" height="36" fill="white"/>
</clipPath>
</defs>
</svg>
