<svg width="36" height="36" viewBox="0 0 36 36" fill="none" xmlns="http://www.w3.org/2000/svg">
<path d="M36 13.5C36 8.942 31.565 5.233 26 5.021V5H10V5.021C4.435 5.233 0 8.942 0 13.5C0 15.361 0.747 17.076 2 18.476V31C2 33.209 3.791 35 6 35H30C32.209 35 34 33.209 34 31V18.476C35.253 17.076 36 15.361 36 13.5Z" fill="#D99E82"/>
<path d="M19 18.476H34V19.976H19V18.476Z" fill="#CC927A"/>
<path d="M21 13.5C21 10.039 17.462 7.209 13 7.011C12.835 7.004 10.668 7 10.5 7C5.806 7 2 9.91 2 13.5C2 15.095 2.754 16.553 4 17.684V30C4 31.657 5.343 33 7 33H16C17.657 33 19 31.657 19 30V17.679C20.244 16.548 21 15.093 21 13.5Z" fill="#FFE8B6"/>
</svg>
