<svg width="36" height="36" viewBox="0 0 36 36" fill="none" xmlns="http://www.w3.org/2000/svg">
<path d="M18 36C27.9411 36 36 27.9411 36 18C36 8.05887 27.9411 0 18 0C8.05887 0 0 8.05887 0 18C0 27.9411 8.05887 36 18 36Z" fill="#F5F8FA"/>
<path d="M18.0001 11C17.4481 11 17.0001 10.552 17.0001 9.99996V2.99996C17.0001 2.44796 17.4481 1.99996 18.0001 1.99996C18.5521 1.99996 19.0001 2.44796 19.0001 2.99996V9.99996C19.0001 10.552 18.5521 11 18.0001 11ZM11.4171 15.5C11.3171 15.5 11.2151 15.485 11.1151 15.453L3.07405 12.911C2.54705 12.744 2.25505 12.183 2.42205 11.656C2.58805 11.129 3.15205 10.838 3.67705 11.004L11.7191 13.546C12.2461 13.713 12.5381 14.275 12.3711 14.801C12.2351 15.227 11.8411 15.5 11.4171 15.5ZM25.0421 15.209C24.6081 15.209 24.2091 14.924 24.0821 14.487C23.9281 13.956 24.2331 13.402 24.7641 13.248L31.5141 11.29C32.0451 11.137 32.5991 11.443 32.7521 11.972C32.9061 12.503 32.6011 13.057 32.0701 13.211L25.3201 15.169C25.2281 15.196 25.1341 15.209 25.0421 15.209ZM27.0431 30.167C26.7371 30.167 26.4371 30.027 26.2401 29.764L20.7811 22.431C20.4511 21.989 20.5431 21.362 20.9861 21.032C21.4281 20.701 22.0551 20.794 22.3851 21.237L27.8441 28.57C28.1741 29.012 28.0821 29.639 27.6391 29.969C27.4601 30.103 27.2501 30.167 27.0431 30.167ZM8.74905 30.084C8.55205 30.084 8.35405 30.026 8.17905 29.905C7.72505 29.589 7.61405 28.967 7.92905 28.513L13.0541 21.138C13.3691 20.684 13.9921 20.572 14.4461 20.887C14.9001 21.202 15.0111 21.826 14.6961 22.279L9.57105 29.654C9.37705 29.935 9.06505 30.084 8.74905 30.084ZM3.50005 27.062C3.06005 27.062 2.65605 26.769 2.53505 26.324L0.347055 18.262C0.202055 17.729 0.517055 17.18 1.05105 17.035C1.58605 16.894 2.13405 17.206 2.27805 17.739L4.46605 25.801C4.61105 26.334 4.29605 26.883 3.76205 27.027C3.67405 27.052 3.58605 27.062 3.50005 27.062ZM22.0001 34H13.0001C12.4481 34 12.0001 33.553 12.0001 33C12.0001 32.447 12.4481 32 13.0001 32H22.0001C22.5531 32 23.0001 32.447 23.0001 33C23.0001 33.553 22.5531 34 22.0001 34ZM32.1261 27.125C32.0471 27.125 31.9661 27.116 31.8861 27.096C31.3501 26.964 31.0221 26.422 31.1551 25.886L33.2801 17.261C33.4131 16.725 33.9591 16.399 34.4901 16.529C35.0261 16.661 35.3541 17.203 35.2211 17.74L33.0961 26.365C32.9831 26.82 32.5751 27.125 32.1261 27.125ZM30.3121 7.68796C30.1421 7.68796 29.9701 7.64496 29.8121 7.55396L22.2501 3.17896C21.7721 2.90196 21.6081 2.29096 21.8861 1.81196C22.1611 1.33396 22.7721 1.16896 23.2521 1.44696L30.8141 5.82196C31.2921 6.09896 31.4561 6.70996 31.1781 7.18896C30.9931 7.50896 30.6571 7.68796 30.3121 7.68796ZM5.50105 7.68796C5.18905 7.68796 4.88306 7.54296 4.68806 7.27096C4.36606 6.82096 4.46805 6.19696 4.91705 5.87496L11.1051 1.43696C11.5541 1.11496 12.1791 1.21796 12.5011 1.66596C12.8231 2.11496 12.7201 2.73996 12.2721 3.06196L6.08306 7.49996C5.90605 7.62596 5.70305 7.68796 5.50105 7.68796Z" fill="#CCD6DD"/>
<path d="M25.493 13.516L18.285 8.433C17.937 8.188 17.471 8.19 17.124 8.439L9.957 13.606C9.614 13.854 9.463 14.29 9.582 14.697L12.082 23.28C12.206 23.706 12.597 24 13.042 24H22C22.43 24 22.81 23.726 22.948 23.319L25.865 14.652C26.006 14.233 25.854 13.771 25.493 13.516ZM1.292 19.542C1.35 19.542 1.409 19.537 1.467 19.526C1.761 19.474 2.017 19.293 2.164 19.032L5.539 13.032C5.59 12.941 5.626 12.844 5.647 12.741L6.98 6.2C7.04 5.906 6.964 5.6 6.774 5.368C6.584 5.135 6.3 5 6 5H5.572C2.145 8.277 0 12.884 0 18C0 18.266 0.028 18.525 0.04 18.788L0.642 19.302C0.824 19.458 1.055 19.542 1.292 19.542ZM10.617 2.995C10.723 3.214 10.93 3.368 11.17 3.407L17.545 4.449C17.585 4.455 17.626 4.459 17.666 4.459C17.706 4.459 17.747 4.456 17.788 4.449L23.872 3.449C24.072 3.416 24.252 3.303 24.367 3.135C24.483 2.967 24.525 2.76 24.485 2.56L24.193 1.117C22.26 0.407 20.18 0 18 0C15.575 0 13.266 0.486 11.155 1.356L10.634 2.306C10.517 2.519 10.511 2.776 10.617 2.995ZM31.134 5.719L29.63 5.624C29.402 5.611 29.175 5.7 29.021 5.873C28.869 6.046 28.803 6.275 28.846 6.503L30.013 12.701C30.03 12.787 30.061 12.849 30.106 12.925C31.598 15.429 33.258 18.226 33.487 18.707C33.511 18.791 33.549 18.786 33.601 18.858C33.741 19.053 33.973 19 34.213 19H34.22C34.418 19 34.543 19.094 35.988 18.247C35.989 18.164 36 18.083 36 18C36 13.247 34.144 8.936 31.134 5.719ZM14.541 33.376C14.552 33.177 14.483 32.981 14.35 32.832L9.85 27.832C9.79 27.766 9.719 27.71 9.639 27.669C3.754 24.6 3.645 24.564 3.573 24.539C3.495 24.514 3.412 24.5 3.331 24.5C2.794 24.5 2.636 24.565 2.146 26.524C4.382 30.673 8.199 33.84 12.79 35.227L14.29 33.894C14.439 33.762 14.529 33.575 14.541 33.376ZM32.374 24.809C32.185 24.729 31.969 24.731 31.782 24.814L25.699 27.481C25.593 27.527 25.499 27.597 25.425 27.686L21.175 32.769C21.046 32.923 20.985 33.121 21.003 33.321C21.023 33.521 21.12 33.705 21.275 33.831C21.958 34.39 22.536 34.861 23.042 35.271C27.479 33.977 31.196 31.023 33.496 27.125L32.784 25.236C32.712 25.043 32.563 24.889 32.374 24.809Z" fill="#31373D"/>
</svg>
