<svg width="36" height="36" viewBox="0 0 36 36" fill="none" xmlns="http://www.w3.org/2000/svg">
<path d="M26.617 32.441C26.597 32.402 26.244 31.763 25.592 31.269C25.695 30.848 25.648 30.434 25.285 30.166C24.385 29.504 16.465 30.392 15.899 33.223C15.665 34.394 16.487 34.394 16.937 34.032C16.8 34.531 16.725 35.043 16.768 35.522C16.792 35.791 17.029 35.989 17.299 35.966C17.328 35.964 17.356 35.959 17.383 35.951C17.608 35.891 17.764 35.676 17.743 35.435C17.713 35.101 17.765 34.741 17.854 34.384C18.055 34.564 18.278 34.711 18.54 34.653C18.852 34.583 19.05 34.275 19.18 33.941C19.195 34.153 19.226 34.289 19.23 34.304C19.299 34.563 19.563 34.715 19.823 34.649L19.829 34.647C20.086 34.578 20.24 34.314 20.177 34.056C20.173 34.039 20.126 33.827 20.158 33.491C20.6 33.758 21.158 34 21.615 33.889C22.196 33.747 22.474 33.258 22.612 32.776C23.051 33.188 23.31 33.671 23.57 34.23C23.671 34.449 23.914 34.557 24.139 34.497C24.167 34.49 24.193 34.481 24.219 34.468C24.465 34.355 24.571 34.063 24.457 33.818C24.272 33.419 24.043 32.938 23.664 32.47C24.01 32.701 24.375 32.863 24.614 32.723C24.78 32.626 24.978 32.421 25.159 32.17C25.536 32.506 25.748 32.891 25.751 32.897C25.861 33.101 26.095 33.197 26.31 33.139C26.345 33.13 26.379 33.116 26.413 33.099C26.652 32.973 26.743 32.68 26.617 32.441Z" fill="#D39954"/>
<path d="M21.708 6.31999C18.967 5.38799 15.73 3.18599 14.954 0.289991C14.681 -0.730009 14.002 1.57999 13.063 1.83099C12.124 2.08299 10.381 0.421991 10.655 1.44199C11.431 4.33799 9.72903 7.86399 7.82103 10.041C4.24603 14.121 1.53403 18.991 2.93103 24.206C4.93103 31.671 13.031 34.952 21.341 32.725C29.651 30.498 35.025 23.607 33.025 16.143C31.627 10.928 26.843 8.06599 21.708 6.31999Z" fill="#EDD6A6"/>
<path d="M13.66 32.585C10.364 30.592 5.82203 27.312 5.43303 21.355C5.00803 14.836 10.369 11.257 10.737 7.52899C11.181 11.957 7.17803 14.765 7.52303 20.395C7.83603 25.496 9.95203 29.236 13.66 32.585Z" fill="#E2A759"/>
<path d="M19.764 32.885C16.667 30.951 12.832 26.969 11.82 21.682C10.363 14.071 12.923 9.53699 12.023 3.79199C13.92 10.436 13.057 13.549 14.325 20.128C15.15 24.41 17.225 30.341 19.764 32.885ZM27.922 28.764C29.78 25.39 32.224 20.238 29.582 14.884C26.691 9.02599 20.108 8.64699 17.925 5.60299C19.754 9.65999 24.775 10.05 27.292 15.098C29.572 19.672 29.458 24.01 27.922 28.764Z" fill="#E2A759"/>
<path d="M22.786 32.076C24.501 28.853 25.831 23.487 24.064 18.402C21.521 11.082 17.037 8.43601 14.943 3.01001C16.622 9.71301 18.926 11.976 21.117 18.308C22.544 22.428 23.713 28.603 22.786 32.076Z" fill="#E2A759"/>
</svg>
