<svg width="36" height="36" viewBox="0 0 36 36" fill="none" xmlns="http://www.w3.org/2000/svg">
<path d="M16.769 22H3.80603C3.80603 22 6.05403 29.146 9.59003 32.584C11.998 34.924 16.048 35.105 17.489 35.105C20.369 35.105 24.039 34.913 26.447 32.571C30.645 28.493 32.612 22 32.612 22H16.769Z" fill="#55ACEE"/>
<path d="M31.091 25.783C31.714 24.479 32.139 23.37 32.378 22.695C32.243 22.455 32.042 22.223 31.79 22H4.62802C4.37702 22.223 4.17602 22.454 4.04102 22.694C4.27802 23.366 4.69302 24.47 5.25402 25.735C7.34102 27.242 11.676 28.45 18.21 28.45C24.672 28.45 28.978 27.267 31.091 25.783Z" fill="#3B88C3"/>
<path d="M2 17V21.453C2 23.771 9.251 25.651 18 25.651C26.751 25.651 34 23.771 34 21.453V17H2Z" fill="#55ACEE"/>
<path d="M3.85705 19.283C4.75805 19.614 10.5501 21.666 17.8561 21.666C26.0821 21.666 32.1101 19.878 33.4901 18.887C34.8701 17.894 34.8181 9.29203 28.535 5.97703C23.17 3.14603 23.0201 0.366028 17.907 0.366028C10.243 0.367028 -3.29595 16.652 3.85705 19.283Z" fill="#F9D2DC"/>
<path d="M11.848 11.769C14.758 15.669 21.331 13.525 24.141 10.794C26.43 8.568 29.32 9.161 32.593 10.01C31.701 8.427 30.393 6.969 28.524 5.983C23.161 3.154 23.011 0.375 17.9 0.375C13.851 0.375 8.16303 4.923 4.75403 9.6C6.64803 8.983 9.55603 8.698 11.848 11.769Z" fill="#F98097"/>
<path d="M12 8C12.5523 8 13 7.55228 13 7C13 6.44772 12.5523 6 12 6C11.4477 6 11 6.44772 11 7C11 7.55228 11.4477 8 12 8Z" fill="#EA596E"/>
<path d="M18 11C18.5523 11 19 10.5523 19 10C19 9.44772 18.5523 9 18 9C17.4477 9 17 9.44772 17 10C17 10.5523 17.4477 11 18 11Z" fill="#EA596E"/>
<path d="M22 6C22.5523 6 23 5.55228 23 5C23 4.44772 22.5523 4 22 4C21.4477 4 21 4.44772 21 5C21 5.55228 21.4477 6 22 6Z" fill="#EA596E"/>
</svg>
