<svg width="36" height="36" viewBox="0 0 36 36" fill="none" xmlns="http://www.w3.org/2000/svg">
<path d="M28.736 28.767L7.27798 28.843L5.62898 33.678C5.56698 33.865 5.52798 34.065 5.55598 34.26C5.70098 35.244 6.54898 36 7.57298 36H28.467C29.491 36 30.339 35.244 30.484 34.26C30.513 34.065 30.474 33.865 30.411 33.678L28.736 28.767Z" fill="#BF6952"/>
<path d="M28.736 28.767L28.546 28.211C28.347 27.613 27.787 27.21 27.157 27.21H8.88295C8.25295 27.21 7.69295 27.613 7.49395 28.211L7.27795 28.843C10.206 31.187 13.914 32.597 17.956 32.597C22.044 32.597 25.793 31.159 28.736 28.767Z" fill="#854836"/>
<path d="M17.956 30.7759C26.3993 30.7759 33.244 23.9313 33.244 15.488C33.244 7.04462 26.3993 0.199951 17.956 0.199951C9.51264 0.199951 2.66797 7.04462 2.66797 15.488C2.66797 23.9313 9.51264 30.7759 17.956 30.7759Z" fill="#AA8DD8"/>
<path d="M23.266 16.565C25.5829 16.565 27.461 14.6869 27.461 12.37C27.461 10.0532 25.5829 8.17505 23.266 8.17505C20.9492 8.17505 19.071 10.0532 19.071 12.37C19.071 14.6869 20.9492 16.565 23.266 16.565Z" fill="#744EAA"/>
<path d="M14.875 21.808C16.6125 21.808 18.021 20.3995 18.021 18.662C18.021 16.9245 16.6125 15.516 14.875 15.516C13.1375 15.516 11.729 16.9245 11.729 18.662C11.729 20.3995 13.1375 21.808 14.875 21.808Z" fill="#744EAA"/>
<path d="M15.924 7.12605C17.0827 7.12605 18.022 6.18675 18.022 5.02805C18.022 3.86936 17.0827 2.93005 15.924 2.93005C14.7654 2.93005 13.826 3.86936 13.826 5.02805C13.826 6.18675 14.7654 7.12605 15.924 7.12605Z" fill="#744EAA"/>
</svg>
