<svg width="36" height="36" viewBox="0 0 36 36" fill="none" xmlns="http://www.w3.org/2000/svg">
<path d="M6.71899 9.98701L8.66699 31H27.167L29.312 9.28101L6.71899 9.98701Z" fill="#CCD6DD"/>
<path d="M28.5831 19.229L7.10706 19.375C7.10706 19.375 8.16706 30.25 10.4791 30.25H25.5001C27.8621 30.25 28.5831 19.229 28.5831 19.229Z" fill="#E27E00"/>
<path d="M17.984 17.438C12.516 17.438 8.08301 18.269 8.08301 19.293C8.08301 19.321 8.09901 19.348 8.10501 19.375C8.25501 20.017 10.142 20.574 12.914 20.885L23.258 20.862C25.919 20.547 27.717 20.002 27.864 19.376C27.87 19.349 27.886 19.322 27.886 19.294C27.885 18.268 23.452 17.438 17.984 17.438Z" fill="#FFB900"/>
<path d="M16.396 21.122L18.333 22.083L23.806 21.163L23.241 20.861C21.718 21.042 19.919 21.148 17.984 21.148C17.442 21.148 16.914 21.138 16.396 21.122Z" fill="#F4BD61"/>
<path d="M19 18.292L12.797 19.125L16.396 21.122C16.914 21.138 17.442 21.148 17.984 21.148C19.919 21.148 21.718 21.042 23.241 20.861L19 18.292Z" fill="#F1F2F2"/>
<path d="M18.299 27.76L22.738 26.401L23.806 21.163L18.333 22.083L18.299 27.76Z" fill="#E9AB61"/>
<path d="M16.396 21.122C15.145 21.084 13.975 21.002 12.929 20.884L13.393 26.148L18.299 27.76L18.333 22.083L16.396 21.122Z" fill="#E4973E"/>
<path d="M12.797 19.125L12.929 20.885C13.975 21.003 15.145 21.085 16.396 21.123L12.797 19.125Z" fill="#D1D3D4"/>
<path d="M30.0879 7.82999C29.4389 7.78199 28.871 8.24799 28.812 8.89399L27.334 25.149C26.764 28.233 25.3759 30 21 30H14.9999C10.4039 30 9.10395 28.053 8.58595 24.676L7.15095 8.89399C7.09195 8.24799 6.52695 7.77399 5.87495 7.82999C5.22895 7.88899 4.75295 8.45999 4.81195 9.10599L6.81695 31.155C7.07295 33.074 8.22695 34.175 9.98195 34.175H25.982C28.517 34.175 29.004 32.438 29.152 31.107L31.152 9.10699C31.21 8.45999 30.7339 7.88899 30.0879 7.82999Z" fill="#8899A6"/>
<path d="M31.2001 8.99801C31.2001 10.848 27.172 12.348 18 12.348C8.82805 12.348 4.80005 10.848 4.80005 8.99801C4.80005 7.14701 8.82805 5.64801 18 5.64801C27.172 5.64801 31.2001 7.14701 31.2001 8.99801Z" fill="#CCD6DD"/>
<path d="M30.529 9.10301C30.243 8.63201 29.628 8.48201 29.155 8.76701C26.822 10.183 20.342 10.371 18.034 10.313C18.026 10.313 18.02 10.317 18.012 10.317C18.005 10.317 17.998 10.313 17.991 10.313C15.691 10.37 9.20604 10.184 6.87004 8.76701C6.39804 8.48101 5.78304 8.63001 5.49604 9.10301C5.20904 9.57601 5.36004 10.19 5.83204 10.477C8.62704 12.173 15.154 12.319 17.327 12.319C17.697 12.319 17.934 12.315 18.012 12.314C18.09 12.315 18.326 12.319 18.697 12.319C20.87 12.319 27.397 12.172 30.192 10.477C30.665 10.189 30.815 9.57501 30.529 9.10301Z" fill="white"/>
</svg>
