<svg width="36" height="36" viewBox="0 0 36 36" fill="none" xmlns="http://www.w3.org/2000/svg">
<path d="M18 22C14.377 22 11.973 21.578 9 21C8.321 20.869 7 21 7 23C7 27 11.595 32 18 32C24.404 32 29 27 29 23C29 21 27.679 20.868 27 21C24.027 21.578 21.623 22 18 22Z" fill="#292F33"/>
<path d="M9 23C9 23 12 24 18 24C24 24 27 23 27 23C27 23 25.656 29.75 18 29.75C10.344 29.75 9 23 9 23Z" fill="white"/>
<path d="M18 27.594C14.404 27.594 11.728 27.222 10.063 26.849L9.23801 24.978C10.061 25.29 13.127 25.875 18.001 25.875C22.955 25.875 26.038 25.259 26.865 24.937L26.164 26.779C24.53 27.159 21.745 27.594 18 27.594Z" fill="#292F33"/>
</svg>
