<svg width="36" height="36" viewBox="0 0 36 36" fill="none" xmlns="http://www.w3.org/2000/svg">
<path d="M22.0001 26.575C22.0161 26.571 20.5501 26.953 19.5541 27.061C19.1881 27.103 18.8171 27.137 18.4371 27.15V31.667H20.0001C21.1001 31.667 22.0001 30.767 22.0001 29.667V26.575ZM14.0001 26.575C13.9841 26.571 15.4501 26.953 16.4461 27.061C16.8121 27.103 17.1831 27.137 17.5631 27.15V31.667H16.0001C14.9001 31.667 14.0001 30.767 14.0001 29.667V26.575Z" fill="white"/>
<path d="M18.0005 27.189C17.8525 27.189 17.7095 27.178 17.5625 27.173V31.689H18.4375V27.172C18.2925 27.177 18.1485 27.189 18.0005 27.189Z" fill="#292F33"/>
<path d="M27.3349 23.629C27.1569 23.468 26.8909 23.458 26.6999 23.6C26.6699 23.622 24.4409 25.268 21.2889 26.07C20.8459 26.183 19.4249 26.5 18.0029 26.501C16.5789 26.501 15.1539 26.183 14.7109 26.07C11.5589 25.268 9.32989 23.622 9.29989 23.6C9.10989 23.458 8.84289 23.468 8.66489 23.629C8.48689 23.789 8.44789 24.052 8.57089 24.257C8.66789 24.419 10.4559 27.324 13.9999 28.738V26.909C13.9839 26.905 15.4499 27.287 16.4459 27.395C16.8119 27.437 17.1829 27.471 17.5629 27.484C17.7089 27.489 17.8519 27.5 17.9999 27.5C18.1479 27.5 18.2909 27.489 18.4379 27.484C18.8179 27.471 19.1889 27.438 19.5549 27.395C20.5509 27.287 22.0169 26.905 22.0009 26.909V28.738C25.5449 27.324 27.3329 24.419 27.4299 24.257C27.5519 24.052 27.5129 23.789 27.3349 23.629Z" fill="#292F33"/>
</svg>
