<svg width="36" height="36" viewBox="0 0 36 36" fill="none" xmlns="http://www.w3.org/2000/svg">
<path d="M7 21.262C7 25.226 11.596 30.262 18 30.262C24.404 30.262 29 25.262 29 21.262C29 21.262 18.667 24.018 7 21.262Z" fill="#292F33"/>
<path d="M18.545 23.604L17.454 23.599C14.238 23.525 12 23.003 12 23.003V29.964C12 32.964 14 35.964 18 35.964C22 35.964 24 32.964 24 29.964V23.044C22.078 23.438 20.213 23.586 18.545 23.604Z" fill="#E8596E"/>
<path d="M18 31.843C18.301 31.843 18.545 31.599 18.545 31.298V23.604L17.454 23.599V31.298C17.455 31.599 17.699 31.843 18 31.843Z" fill="#DD2F45"/>
</svg>
