<svg width="36" height="36" viewBox="0 0 36 36" fill="none" xmlns="http://www.w3.org/2000/svg">
<path d="M19.279 19.28C15.785 22.774 13.06 24.684 9.634 26.993C8.853 27.522 7.706 28.922 9.635 30.852C13.492 34.709 22.746 35.099 28.922 28.923C35.099 22.746 34.71 13.493 30.851 9.635C28.922 7.705 27.521 8.853 26.993 9.634C24.685 13.059 22.774 15.785 19.279 19.28Z" fill="#292F33"/>
<path d="M11.564 28.923C11.564 28.923 15.422 26.994 21.208 21.207C26.995 15.421 28.923 11.564 28.923 11.564C28.923 11.564 30.851 17.351 24.101 24.101C17.351 30.852 11.564 28.923 11.564 28.923Z" fill="white"/>
</svg>
