<svg width="36" height="36" viewBox="0 0 36 36" fill="none" xmlns="http://www.w3.org/2000/svg">
<path d="M29.503 23.52C29.826 22.771 29.964 22.263 29.969 22.243C30.103 21.709 29.779 21.168 29.244 21.033C28.708 20.897 28.167 21.221 28.029 21.756C27.955 22.051 26.081 29 18 29C9.919 29 8.045 22.051 7.97 21.755C7.832 21.221 7.291 20.897 6.755 21.032C6.221 21.167 5.897 21.708 6.03 22.242C6.052 22.33 8.331 31 18 31C19.65 31 21.07 30.734 22.315 30.315C26.645 28.857 28.689 25.405 29.503 23.52Z" fill="#292F33"/>
<path d="M33.175 27.309L29.504 23.52C28.69 25.405 26.646 28.857 22.315 30.315L26 34C27.728 35.728 31 36 33 34C35 32 34.903 29.038 33.175 27.309Z" fill="#E75A70"/>
</svg>
