<svg width="36" height="36" viewBox="0 0 36 36" fill="none" xmlns="http://www.w3.org/2000/svg">
<path d="M18 30C17.696 30 17.409 29.862 17.219 29.625L14.025 25.633L11.8 28.6C11.626 28.832 11.36 28.977 11.071 28.997C10.781 29.018 10.497 28.912 10.293 28.707L9.293 27.707C8.902 27.316 8.902 26.684 9.293 26.293C9.684 25.902 10.316 25.902 10.707 26.293L10.892 26.478L13.2 23.4C13.386 23.152 13.675 23.004 13.984 23C14.279 22.99 14.587 23.133 14.78 23.375L18 27.399L21.219 23.375C21.412 23.134 21.703 23 22.016 23C22.326 23.005 22.615 23.152 22.8 23.4L25.109 26.477L25.294 26.292C25.685 25.901 26.317 25.901 26.708 26.292C27.099 26.683 27.099 27.315 26.708 27.706L25.708 28.706C25.503 28.911 25.229 29.02 24.93 28.996C24.641 28.975 24.375 28.831 24.201 28.599L21.975 25.632L18.782 29.624C18.591 29.862 18.304 30 18 30Z" fill="#292F33"/>
</svg>
