<svg width="36" height="36" viewBox="0 0 36 36" fill="none" xmlns="http://www.w3.org/2000/svg">
<path d="M23.186 29.526C22.193 29.526 21.234 29.071 20.398 28.187C17.582 25.202 16.829 25.854 15.581 26.936C14.8 27.615 13.827 28.459 12.376 28.459C10.025 28.459 8.407 26.157 8.34 26.059C8.026 25.605 8.14 24.982 8.594 24.668C9.045 24.356 9.668 24.468 9.984 24.919C10.285 25.348 11.301 26.459 12.377 26.459C13.081 26.459 13.633 25.98 14.272 25.426C16.088 23.848 18.036 22.771 21.855 26.814C22.678 27.687 23.307 27.588 23.763 27.406C25.422 26.741 26.968 23.708 26.96 22.256C26.957 21.704 27.402 21.254 27.954 21.251H27.96C28.51 21.251 28.957 21.695 28.96 22.246C28.972 24.349 27.106 28.222 24.506 29.263C24.063 29.438 23.621 29.525 23.186 29.526V29.526Z" fill="#292F33"/>
</svg>
