<svg width="36" height="36" viewBox="0 0 36 36" fill="none" xmlns="http://www.w3.org/2000/svg">
<path d="M27.335 23.629C27.157 23.468 26.891 23.458 26.7 23.6C26.661 23.629 22.778 26.5 18 26.5C13.234 26.5 9.33801 23.629 9.30001 23.6C9.10901 23.458 8.84301 23.47 8.66501 23.629C8.48801 23.789 8.44801 24.053 8.57101 24.257C8.70001 24.472 11.788 31 18 31C24.212 31 27.301 24.472 27.429 24.257C27.552 24.052 27.513 23.789 27.335 23.629Z" fill="#DA2F47"/>
<path d="M18.5 23C20.433 23 22 21.433 22 19.5C22 17.567 20.433 16 18.5 16C16.567 16 15 17.567 15 19.5C15 21.433 16.567 23 18.5 23Z" fill="#BB1A34"/>
<path d="M28.93 25C31.1391 25 32.93 23.2091 32.93 21C32.93 18.7909 31.1391 17 28.93 17C26.7209 17 24.93 18.7909 24.93 21C24.93 23.2091 26.7209 25 28.93 25Z" fill="#FF7892"/>
<path d="M6.92999 25C9.13913 25 10.93 23.2091 10.93 21C10.93 18.7909 9.13913 17 6.92999 17C4.72085 17 2.92999 18.7909 2.92999 21C2.92999 23.2091 4.72085 25 6.92999 25Z" fill="#FF7892"/>
</svg>
