<svg width="36" height="36" viewBox="0 0 36 36" fill="none" xmlns="http://www.w3.org/2000/svg">
<path d="M18 27.136C21.335 27.136 23.547 27.524 26.284 28.056C26.909 28.176 28.125 28.056 28.125 26.215C28.125 22.533 23.895 17.931 18 17.931C12.105 17.931 7.875 22.533 7.875 26.215C7.875 28.056 9.091 28.177 9.716 28.056C12.452 27.524 14.665 27.136 18 27.136Z" fill="#292F33"/>
<path d="M25.712 32.287V25.186C25.712 22.593 21.823 20.001 17.934 20.001C14.045 20.001 10.156 22.594 10.156 25.186V32.287C5.753 32.636 2.797 33.272 2.797 34C2.797 35.105 9.574 36 17.934 36C26.294 36 33.071 35.105 33.071 34C33.071 33.272 30.115 32.636 25.712 32.287V32.287Z" fill="#77AF57"/>
<path d="M15.875 24.463C16.5571 24.463 17.11 23.9101 17.11 23.228C17.11 22.5459 16.5571 21.993 15.875 21.993C15.1929 21.993 14.64 22.5459 14.64 23.228C14.64 23.9101 15.1929 24.463 15.875 24.463Z" fill="#5D8F3F"/>
<path d="M20.698 26.875C21.3801 26.875 21.933 26.3221 21.933 25.64C21.933 24.9579 21.3801 24.405 20.698 24.405C20.0159 24.405 19.463 24.9579 19.463 25.64C19.463 26.3221 20.0159 26.875 20.698 26.875Z" fill="#5D8F3F"/>
<path d="M22.452 30.712C22.5613 30.0388 22.1041 29.4044 21.4308 29.2951C20.7576 29.1858 20.1232 29.643 20.0139 30.3163C19.9047 30.9896 20.3619 31.6239 21.0351 31.7332C21.7084 31.8425 22.3427 31.3853 22.452 30.712Z" fill="#5D8F3F"/>
<path d="M16.8492 32.8308C17.0054 31.8686 16.352 30.962 15.3898 30.8058C14.4276 30.6496 13.521 31.303 13.3648 32.2652C13.2086 33.2274 13.862 34.134 14.8242 34.2902C15.7864 34.4464 16.693 33.793 16.8492 32.8308Z" fill="#5D8F3F"/>
</svg>
