<svg width="36" height="36" viewBox="0 0 36 36" fill="none" xmlns="http://www.w3.org/2000/svg">
<path d="M18 29.5C13.66 29.5 12.526 25.165 12.515 25.121C12.46 24.903 12.558 24.676 12.753 24.564C12.944 24.458 13.183 24.485 13.344 24.636C13.383 24.67 14.41 25.5 18 25.5C21.644 25.5 22.647 24.645 22.657 24.637C22.822 24.491 23.066 24.466 23.254 24.577C23.442 24.69 23.538 24.908 23.485 25.121C23.474 25.165 22.34 29.5 18 29.5ZM13.949 26.008C14.526 27.072 15.724 28.5 18 28.5C20.276 28.5 21.475 27.072 22.051 26.008C21.231 26.266 19.95 26.5 18 26.5C16.05 26.5 14.769 26.266 13.949 26.008ZM13 25H13.01H13Z" fill="#292F33"/>
</svg>
