<svg width="36" height="36" viewBox="0 0 36 36" fill="none" xmlns="http://www.w3.org/2000/svg">
<path d="M21.871 27C23.206 26.588 24.5 25.844 24.5 24.5C24.5 21.881 19.588 21.532 19.027 21.501C18.75 21.465 18.517 21.695 18.501 21.969C18.484 22.243 18.691 22.48 18.965 22.499C19 22.501 22.5 22.798 22.5 24.5C22.5 26.202 19 26.499 18.965 26.501C18.955 26.502 18.948 26.507 18.939 26.508C18.815 26.516 18.709 26.573 18.629 26.667L18.614 26.688C18.585 26.727 18.559 26.766 18.541 26.813C18.53 26.84 18.525 26.87 18.52 26.899C18.515 26.923 18.503 26.945 18.501 26.969C18.5 26.979 18.505 26.989 18.505 27C18.505 27.011 18.5 27.021 18.501 27.031C18.503 27.056 18.514 27.077 18.52 27.101C18.526 27.13 18.531 27.16 18.542 27.188C18.555 27.22 18.574 27.248 18.593 27.276C18.61 27.299 18.623 27.323 18.643 27.343C18.666 27.367 18.695 27.386 18.724 27.405C18.748 27.422 18.769 27.438 18.795 27.451C18.826 27.466 18.86 27.472 18.896 27.478C18.919 27.484 18.94 27.496 18.965 27.498C19 27.501 22.5 27.798 22.5 29.5C22.5 31.202 19 31.499 18.965 31.501C18.692 31.521 18.484 31.758 18.501 32.031C18.518 32.296 18.737 32.5 19 32.5L19.027 32.499C19.588 32.468 24.5 32.119 24.5 29.5C24.5 28.156 23.206 27.412 21.871 27Z" fill="#292F33"/>
</svg>
