<svg width="36" height="36" viewBox="0 0 36 36" fill="none" xmlns="http://www.w3.org/2000/svg">
<path d="M26.125 29.261C26.097 29.261 26.068 29.258 26.041 29.251C17.617 27.309 10.045 29.229 9.969 29.249C9.858 29.277 9.738 29.254 9.645 29.183C9.554 29.111 9.5 29.002 9.5 28.886C9.5 25.708 13.213 22.014 18 22.014C22.787 22.014 26.5 25.708 26.5 28.886C26.5 29 26.448 29.109 26.358 29.18C26.291 29.232 26.209 29.261 26.125 29.261Z" fill="#292F33"/>
<path d="M18.629 23.079V23.906L17.538 23.907V23.07C15.261 23.197 13.347 24.232 12.083 25.586L12.091 26.047C12.177 28.979 14.171 31.849 18.083 31.849C21.982 31.849 23.975 28.998 24.074 26.076L24.083 25.792C22.854 24.377 20.938 23.255 18.629 23.079V23.079Z" fill="#F4ABBA"/>
<path d="M18 23.049C17.843 23.049 17.692 23.063 17.538 23.071V27.518C17.538 27.819 17.782 28.063 18.083 28.063C18.384 28.063 18.628 27.819 18.628 27.518V23.08C18.421 23.063 18.214 23.049 18 23.049V23.049Z" fill="#EA596E"/>
</svg>
