<svg width="36" height="36" viewBox="0 0 36 36" fill="none" xmlns="http://www.w3.org/2000/svg">
<path d="M18.625 20.937C15.082 21.696 12.644 21.787 9.615 21.845C8.924 21.86 7.66 22.264 8.079 24.22C8.917 28.131 14.458 32.057 20.721 30.715C26.983 29.373 30.429 23.521 29.591 19.61C29.172 17.654 27.852 17.802 27.216 18.074C24.43 19.261 22.168 20.178 18.625 20.937Z" fill="#292F33"/>
<g clip-path="url(#clip0)">
<path d="M11 24.004V30.004C11 33.004 13 36.004 17 36.004C21 36.004 23 33.004 23 30.004V24.004H11Z" fill="#E8596E"/>
<path d="M17 31.883C17.301 31.883 17.545 31.639 17.545 31.338V25.043H16.454V31.338C16.455 31.639 16.699 31.883 17 31.883Z" fill="#DD2F45"/>
<path d="M10.034 23.801C10.034 23.801 13.177 24.15 19.044 22.893C24.911 21.636 27.635 20.029 27.635 20.029C27.635 20.029 26.518 24.359 19.673 25.826C12.828 27.293 10.034 23.801 10.034 23.801Z" fill="white"/>
</g>
<defs>
<clipPath id="clip0">
<rect width="36" height="36" fill="white"/>
</clipPath>
</defs>
</svg>
