<svg width="36" height="36" viewBox="0 0 36 36" fill="none" xmlns="http://www.w3.org/2000/svg">
<path fill-rule="evenodd" clip-rule="evenodd" d="M1.24 11.018C1.48 11.257 2.678 11.975 2.917 12.693C3.157 13.41 3.637 17.477 5.075 18.674C6.558 19.906 12.152 19.448 13.223 18.914C15.62 17.719 15.914 14.383 16.338 12.693C16.577 11.736 18.015 11.736 18.015 11.736C18.015 11.736 19.453 11.736 19.693 12.692C20.117 14.383 20.413 17.719 22.808 18.913C23.88 19.448 29.474 19.907 30.959 18.675C32.395 17.478 32.874 13.411 33.114 12.693C33.352 11.976 34.552 11.258 34.791 11.019C35.032 10.78 35.032 9.823 34.791 9.583C34.312 9.105 28.657 8.679 22.568 9.344C21.353 9.477 20.891 9.822 18.014 9.822C15.139 9.822 14.675 9.476 13.461 9.344C7.376 8.678 1.72 9.104 1.24 9.582C1.001 9.821 1.001 10.779 1.24 11.018Z" fill="#292F33"/>
</svg>
