<svg width="36" height="36" viewBox="0 0 36 36" fill="none" xmlns="http://www.w3.org/2000/svg">
<path d="M27 26.637L36 18C36 17.34 35.959 16.691 35.891 16.05L27 24.637V23.546C27 22.442 26.104 21.546 25 21.546H11C9.896 21.546 9 22.442 9 23.546V24.637L0.11 16.05C0.041 16.691 0 17.34 0 18L9 26.637L1.547 25.282C1.888 26.052 2.288 26.789 2.73 27.497L9 28.637V30C9 31.104 9.896 32 11 32H25C26.104 32 27 31.104 27 30V28.637L33.271 27.496C33.712 26.788 34.112 26.051 34.453 25.281L27 26.637Z" fill="#292F33"/>
</svg>
