<svg width="36" height="36" viewBox="0 0 36 36" fill="none" xmlns="http://www.w3.org/2000/svg">
<path d="M23.777 0.345002C22.565 0.251002 21.304 0.186002 20.004 0.155002C19.343 0.139002 18.676 0.129002 18 0.129002C17.328 0.129002 16.664 0.139002 16.007 0.154002C14.705 0.185002 13.443 0.250002 12.23 0.344002C5.34 0.880002 0.168999 2.451 0.168999 5.287C0.168999 8.875 8.433 11.058 18 11.058C27.567 11.058 35.831 8.875 35.831 5.287C35.831 2.452 30.663 0.882002 23.777 0.345002ZM18 7.383C11.139 7.383 5.09 6.55 5.09 4.647C5.09 4.111 5.584 3.624 6.429 3.198C7.582 2.617 9.407 2.154 11.618 1.849C13.529 1.587 15.716 1.439 18 1.439C20.291 1.439 22.485 1.587 24.4 1.852C26.642 2.162 28.486 2.635 29.632 3.229C30.439 3.647 30.91 4.123 30.91 4.647C30.91 6.55 24.861 7.383 18 7.383Z" fill="#5DADEC"/>
</svg>
