<svg width="36" height="36" viewBox="0 0 36 36" fill="none" xmlns="http://www.w3.org/2000/svg">
<path d="M34.202 25.803C33.966 25.013 33.423 24.317 32.624 23.928C31.702 23.479 30.668 23.537 29.831 23.988C29.671 23.052 29.081 22.199 28.161 21.751C26.644 21.011 24.813 21.641 24.074 23.157C23.969 23.372 23.894 23.594 23.844 23.816C23.069 26.372 24.484 30.157 26.036 31.764C27.266 31.894 28.989 31.566 30.549 30.891C32.049 29.431 33.282 27.708 34.202 25.803Z" fill="#FFAC33"/>
<path d="M35.654 27.222C36.393 25.706 35.764 23.875 34.249 23.136C33.327 22.687 32.293 22.745 31.456 23.196C31.296 22.26 30.706 21.407 29.786 20.959C28.269 20.219 26.438 20.85 25.699 22.365C25.594 22.58 25.519 22.802 25.469 23.024C24.695 25.58 26.109 29.365 27.661 30.972C29.884 31.206 33.738 29.993 35.276 27.811C35.421 27.632 35.549 27.437 35.654 27.222Z" fill="#DD2E44"/>
</svg>
