<svg width="36" height="36" viewBox="0 0 36 36" fill="none" xmlns="http://www.w3.org/2000/svg">
<path d="M22.468 27.371C22.468 27.371 23.465 26.65 22.633 25.757C21.801 24.864 21.012 25.809 21.012 25.809L16.864 29.675C16.795 29.47 16.405 28.932 16.314 28.728L22.069 23.362C22.069 23.362 23.067 22.641 22.233 21.747C21.401 20.855 20.611 21.798 20.611 21.798L15.198 26.844C15.073 26.686 14.737 26.304 14.604 26.146L20.88 20.296C20.88 20.296 21.877 19.574 21.044 18.682C20.212 17.789 19.423 18.733 19.423 18.733L13.145 24.581C12.995 24.436 12.533 23.972 12.381 23.835L18.247 18.367C18.247 18.367 19.243 17.645 18.411 16.753C17.578 15.86 16.79 16.804 16.79 16.804L10.587 22.585L10.09 23.049L9.87 23.256C9.87 23.256 9.332 24 8.783 23.435L10.625 19.277C10.625 19.277 11.205 18.203 10.132 17.622C9.057 17.041 8.477 18.115 8.477 18.115L6.809 20.873C6.146 21.966 5.46 23.051 4.65 24.04C2.366 26.833 2.439 30.954 4.968 33.669C7.727 36.628 12.364 36.791 15.323 34.033L15.77 33.615L22.468 27.371Z" fill="#F4900C"/>
</svg>
