<svg width="36" height="36" viewBox="0 0 36 36" fill="none" xmlns="http://www.w3.org/2000/svg">
<path d="M31.982 30.178C31.985 30.118 32 30.061 32 30C32 28.344 30.656 27 29 27C27.973 27 27.068 27.518 26.527 28.305C26.057 28.11 25.541 28 25 28C22.791 28 21 29.791 21 32C21 34.209 22.791 36 25 36C26.365 36 27.568 35.313 28.29 34.269C28.77 35.289 29.798 36 31 36C32.657 36 34 34.657 34 33C34 31.688 33.154 30.586 31.982 30.178ZM11 28C10.458 28 9.944 28.11 9.473 28.305C8.932 27.518 8.027 27 7 27C5.344 27 4 28.344 4 30C4 30.061 4.014 30.118 4.018 30.178C2.846 30.586 2 31.688 2 33C2 34.657 3.343 36 5 36C6.202 36 7.231 35.289 7.709 34.269C8.432 35.313 9.634 36 11 36C13.209 36 15 34.209 15 32C15 29.791 13.209 28 11 28Z" fill="#E1E8ED"/>
<path d="M15.391 20.08C14.938 19.885 14.412 20.053 14.152 20.47L9.152 28.47C8.96 28.779 8.949 29.167 9.126 29.485C9.302 29.803 9.636 30 10 30H13C13.459 30 13.859 29.688 13.97 29.242L15.97 21.242C16.089 20.766 15.844 20.272 15.391 20.08ZM26.848 28.47L21.848 20.47C21.586 20.052 21.061 19.886 20.61 20.08C20.157 20.272 19.911 20.766 20.031 21.242L22.031 29.242C22.142 29.688 22.541 30 23 30H26C26.363 30 26.698 29.803 26.875 29.484C27.051 29.167 27.041 28.778 26.848 28.47Z" fill="#F5F8FA"/>
</svg>
