<svg width="36" height="36" viewBox="0 0 36 36" fill="none" xmlns="http://www.w3.org/2000/svg">
<path d="M35 18C35 24.075 30.075 29 24 29H12C5.925 29 1 24.075 1 18C1 11.925 5.925 7 12 7H24C30.075 7 35 11.925 35 18Z" fill="#E6AAAA"/>
<path d="M10 24C12.2091 24 14 21.3137 14 18C14 14.6863 12.2091 12 10 12C7.79086 12 6 14.6863 6 18C6 21.3137 7.79086 24 10 24Z" fill="#662113"/>
<path d="M26 24C28.2091 24 30 21.3137 30 18C30 14.6863 28.2091 12 26 12C23.7909 12 22 14.6863 22 18C22 21.3137 23.7909 24 26 24Z" fill="#662113"/>
</svg>
