<svg width="36" height="36" viewBox="0 0 36 36" fill="none" xmlns="http://www.w3.org/2000/svg">
<g clip-path="url(#clip0)">
<path d="M13.393 23.154L11.854 20.935C11.854 20.935 11.311 20.068 10.443 20.61C9.576 21.151 10.119 22.019 10.119 22.019L11.877 25.399C11.877 25.399 12.021 26.167 10.959 25.308C10.496 24.934 10.762 25.145 10.762 25.145L10.322 24.784L4.831 20.276C4.831 20.276 4.122 19.528 3.472 20.318C2.824 21.109 3.695 21.659 3.695 21.659L8.888 25.925C8.768 26.045 8.406 26.459 8.288 26.588L2.731 22.028C2.731 22.028 2.021 21.279 1.373 22.069C0.722997 22.86 1.595 23.41 1.595 23.41L7.15 27.972C7.047 28.112 6.787 28.448 6.691 28.586L1.899 24.652C1.899 24.652 1.189 23.904 0.540997 24.694C-0.110004 25.485 0.762996 26.036 0.762996 26.036L5.857 30.22C5.793 30.398 5.494 30.866 5.447 31.04L1.775 28.028C1.775 28.028 1.066 27.276 0.417997 28.069C-0.232003 28.86 0.639996 29.41 0.639996 29.41L6.57 34.278L6.965 34.604C9.585 36.755 13.454 36.375 15.605 33.755C17.576 31.352 17.422 27.902 15.365 25.686C14.636 24.904 14.005 24.033 13.393 23.154ZM35.583 28.07C34.935 27.277 34.226 28.029 34.226 28.029L30.554 31.041C30.507 30.867 30.208 30.398 30.144 30.221L35.238 26.037C35.238 26.037 36.111 25.486 35.461 24.695C34.813 23.905 34.103 24.653 34.103 24.653L29.311 28.587C29.215 28.448 28.954 28.112 28.852 27.973L34.407 23.411C34.407 23.411 35.28 22.861 34.63 22.07C33.982 21.28 33.273 22.029 33.273 22.029L27.715 26.589C27.598 26.46 27.236 26.046 27.115 25.926L32.308 21.66C32.308 21.66 33.178 21.11 32.531 20.319C31.881 19.529 31.172 20.277 31.172 20.277L25.681 24.785L25.242 25.146C25.242 25.146 26.232 24.305 25.045 25.309C23.857 26.313 24.127 25.4 24.127 25.4L25.885 22.02C25.885 22.02 26.428 21.152 25.561 20.611C24.692 20.069 24.15 20.936 24.15 20.936L22.612 23.155C21.999 24.034 21.368 24.905 20.638 25.688C18.58 27.905 18.426 31.354 20.399 33.757C22.549 36.377 26.419 36.757 29.039 34.606L29.435 34.28L35.365 29.412C35.36 29.411 36.232 28.861 35.583 28.07Z" fill="#F4900C"/>
<path d="M11.182 25.478C11.182 25.478 8.58901 28.792 11.666 32.938C11.878 33.223 12.416 33.084 12.187 32.75C11.937 32.386 9.437 28.854 11.787 25.693C11.787 25.693 11.406 25.646 11.182 25.478ZM24.765 25.576C24.765 25.576 27.359 28.89 24.281 33.036C24.069 33.321 23.531 33.182 23.76 32.848C24.01 32.484 26.51 28.952 24.16 25.791C24.159 25.792 24.541 25.745 24.765 25.576Z" fill="#B55005"/>
</g>
<defs>
<clipPath id="clip0">
<rect width="36" height="36" fill="white"/>
</clipPath>
</defs>
</svg>
