<svg width="36" height="36" viewBox="0 0 36 36" fill="none" xmlns="http://www.w3.org/2000/svg">
<path d="M34.808 9.627C34.637 9.461 33.541 9.901 32.432 9.336C30.144 8.17 24.362 7.045 20.598 9.712C20.195 9.997 18.511 10.045 18.04 10.025C17.569 10.046 15.885 9.998 15.482 9.712C11.719 7.045 5.937 8.17 3.649 9.336C2.54 9.901 1.444 9.461 1.273 9.627C1.026 9.866 1.026 10.823 1.274 11.063C1.52 11.302 2.751 11.578 2.996 12.295C3.243 13.013 3.245 17.253 5.209 18.719C7.048 20.091 11.338 20.504 14.057 18.957C16.429 17.608 16.346 14.768 16.781 13.076C16.936 12.473 17.373 12.169 18.041 12.169C18.709 12.169 19.146 12.473 19.301 13.076C19.736 14.767 19.652 17.608 22.025 18.957C24.744 20.503 29.034 20.09 30.872 18.719C32.837 17.254 32.839 13.013 33.085 12.295C33.33 11.578 34.561 11.301 34.807 11.063C35.055 10.823 35.056 9.866 34.808 9.627ZM14.614 13.277C14.537 14.382 14.34 16.504 13.017 17.257C12.206 17.719 11.149 18 10.043 18H10.042C8.817 18 7.119 17.653 6.455 17.158C5.625 16.539 5.309 13.991 5.19 13.038C5.114 12.431 4.91 10.948 5.578 10.72C6.638 10.359 8.117 10.077 9.63 10.077C10.323 10.077 12.651 10.12 13.785 10.818C14.79 11.435 14.657 12.669 14.614 13.277ZM30.892 13.024C30.773 13.978 30.457 16.539 29.627 17.158C28.963 17.653 27.265 18 26.04 18H26.039C24.932 18 23.876 17.719 23.064 17.257C21.741 16.505 21.544 14.396 21.467 13.291C21.425 12.683 21.291 11.44 22.296 10.823C23.431 10.125 25.758 10.077 26.451 10.077C27.964 10.077 29.442 10.354 30.503 10.715C31.171 10.943 30.968 12.417 30.892 13.024Z" fill="#292F33"/>
</svg>
