<svg width="36" height="36" viewBox="0 0 36 36" fill="none" xmlns="http://www.w3.org/2000/svg">
<path d="M25.35 25.981L25.317 25.961C24.478 25.446 23.37 25.711 22.855 26.55L22.704 26.795C22.162 26.233 21.454 25.821 20.636 25.654L19.237 25.368L20.509 19.144C20.706 18.179 20.078 17.229 19.114 17.032L19.076 17.024C18.111 16.827 17.161 17.455 16.964 18.419L15.291 26.602L15.276 26.676L14.963 28.207L14.962 28.217L13.834 33.75C13.614 34.828 14.104 36 15.729 36H19C21.804 36 22.635 34.99 23.198 32.907L25.939 28.444C26.453 27.605 26.189 26.497 25.35 25.981Z" fill="#F19020"/>
<path d="M22.345 30.737C22.367 30.741 22.389 30.743 22.409 30.743C22.569 30.743 22.711 30.63 22.742 30.469C22.837 29.969 22.734 29.508 22.436 29.101C21.55 27.89 19.177 27.591 19.076 27.58C18.883 27.555 18.721 27.69 18.699 27.876C18.676 28.061 18.809 28.231 18.995 28.253C19.6 28.326 21.299 28.693 21.889 29.501C22.074 29.753 22.135 30.028 22.076 30.34C22.04 30.525 22.161 30.703 22.345 30.737Z" fill="#65471B"/>
<path d="M18.317 35.371C18.62 35.442 18.897 35.473 19.15 35.473C20.239 35.473 20.874 34.897 21.182 34.503C21.854 33.64 21.941 32.474 21.636 31.889C20.936 30.545 18.497 30.53 18.394 30.53C18.207 30.53 18.055 30.682 18.055 30.869C18.055 31.056 18.207 31.208 18.394 31.208C18.985 31.209 20.612 31.389 21.034 32.201C21.215 32.548 21.155 33.433 20.647 34.086C20.306 34.525 19.653 34.988 18.473 34.711C18.107 34.626 17.857 34.441 17.788 34.205C17.74 34.041 17.787 33.864 17.915 33.732C18.128 33.511 18.508 33.447 18.953 33.561C19.137 33.607 19.32 33.496 19.366 33.316C19.412 33.134 19.302 32.949 19.121 32.903C18.429 32.727 17.814 32.859 17.426 33.261C17.127 33.571 17.019 33.995 17.137 34.396C17.277 34.872 17.707 35.227 18.317 35.371Z" fill="#65471B"/>
</svg>
