<svg width="36" height="36" viewBox="0 0 36 36" fill="none" xmlns="http://www.w3.org/2000/svg">
<path d="M32 6.13C30.81 7.571 28.818 8.081 26.924 8.251C26.606 6.713 25.241 1 22.5 1C20.097 1 19.231 2.091 18 2.091C16.769 2.091 15.903 1 13.5 1C10.759 1 9.39399 6.713 9.07599 8.251C7.18199 8.081 5.18999 7.57 3.99999 6.13C1.84699 3.524 -1.00001 5.444 0.441988 8.304C2.71999 12.821 8.22999 16 18 16C27.769 16 33.279 12.821 35.558 8.304C37 5.444 34.153 3.524 32 6.13Z" fill="#664500"/>
<path d="M21.5 3C19.631 3 18.957 3.964 18 3.964C17.043 3.964 16.369 3 14.5 3C12.037 3 11 9.75 11 9.75C11 9.75 12.282 12 18 12C23.719 12 25 9.75 25 9.75C25 9.75 23.963 3 21.5 3Z" fill="#825D0E"/>
<path d="M11 6C11 6 13.074 8 18 8C22.927 8 25 6 25 6V8C25 8 22.778 10 18 10C13.222 10 11 8 11 8V6Z" fill="#664500"/>
</svg>
