<svg width="36" height="36" viewBox="0 0 36 36" fill="none" xmlns="http://www.w3.org/2000/svg">
<path d="M17.276 35.149C17.276 35.149 18.541 34.738 18.705 33.797C18.878 32.825 18.081 32.63 18.081 32.63C18.081 32.63 19.122 32.422 19.253 31.254C19.376 30.153 18.392 29.891 18.392 29.891C18.392 29.891 19.362 29.491 19.408 28.352C19.446 27.393 18.413 26.924 18.413 26.924C18.413 26.924 23.451 25.703 23.969 25.583C24.485 25.463 25.289 24.968 25.038 23.889C24.789 22.809 23.834 22.771 23.341 22.886C22.847 23.001 16.597 24.452 14.441 24.954L13.002 25.288C12.462 25.415 12.217 25.178 12.598 24.776C13.106 24.24 13.431 23.647 13.544 22.663C13.663 21.628 13.312 20.35 13.111 19.854C12.737 18.933 12.106 18.205 11.377 17.955C10.24 17.565 9.432 18.276 9.835 19.516C10.439 21.37 10.043 22.891 9.002 23.809C6.553 25.966 5.414 27.504 6.172 30.782C7 34.357 10.549 36.658 14.124 35.83L17.276 35.149Z" fill="#F19020"/>
</svg>
