<svg width="32" height="32" viewBox="0 0 32 32" fill="none" xmlns="http://www.w3.org/2000/svg">
<path fill-rule="evenodd" clip-rule="evenodd" d="M13.5 9C12.6716 9 12 9.67157 12 10.5C12 11.3284 12.6716 12 13.5 12C14.3284 12 15 11.3284 15 10.5C15 9.67157 14.3284 9 13.5 9ZM18.5 9C17.6716 9 17 9.67157 17 10.5C17 11.3284 17.6716 12 18.5 12C19.3284 12 20 11.3284 20 10.5C20 9.67157 19.3284 9 18.5 9ZM17 15.5C17 14.6716 17.6716 14 18.5 14C19.3284 14 20 14.6716 20 15.5C20 16.3284 19.3284 17 18.5 17C17.6716 17 17 16.3284 17 15.5ZM13.5 14C12.6716 14 12 14.6716 12 15.5C12 16.3284 12.6716 17 13.5 17C14.3284 17 15 16.3284 15 15.5C15 14.6716 14.3284 14 13.5 14ZM12 20.5C12 19.6716 12.6716 19 13.5 19C14.3284 19 15 19.6716 15 20.5C15 21.3284 14.3284 22 13.5 22C12.6716 22 12 21.3284 12 20.5ZM18.5 19C17.6716 19 17 19.6716 17 20.5C17 21.3284 17.6716 22 18.5 22C19.3284 22 20 21.3284 20 20.5C20 19.6716 19.3284 19 18.5 19Z" fill="#1F1E23"/>
</svg>
