<svg class="md:w-10 md:h-10 sm:w-8 sm:h-8 w-6 h-6" viewBox="0 0 36 36"><path d="M18 36c9.941 0 18-8.059 18-18S27.941 0 18 0 0 8.059 0 18s8.059 18 18 18z" class="fill-current text-gray-400"></path><path d="M30.6 18.2c-.114-.085-1.931-1.426-4.646-2.344.026-.115.046-.233.046-.356 0-.369-.139-.703-.359-.964A13.866 13.866 0 0129.002 14 1 1 0 0029 12c-.221 0-5.451.038-8.707 3.293A1 1 0 0021 17c4.59 0 8.363 2.772 8.401 2.801a1.003 1.003 0 001.4-.202A1 1 0 0030.6 18.2zm-14.893-2.907C12.452 12.038 7.221 12 7 12a1.001 1.001 0 00-.001 2c.026 0 1.558.016 3.361.536-.221.261-.36.595-.36.964 0 .123.019.241.047.356-2.716.918-4.533 2.259-4.647 2.344a.999.999 0 101.2 1.6c.037-.028 3.787-2.8 8.4-2.8a1.002 1.002 0 00.707-1.707z" fill="#664500"></path></svg>