<svg class="md:w-10 md:h-10 sm:w-8 sm:h-8 w-6 h-6" viewBox="0 0 36 36"><path d="M18 36c9.941 0 18-8.059 18-18S27.941 0 18 0 0 8.059 0 18s8.059 18 18 18z" class="fill-current text-gray-400"></path><path d="M11.5 20c1.38 0 2.5-1.567 2.5-3.5S12.88 13 11.5 13 9 14.567 9 16.5s1.12 3.5 2.5 3.5zM28.457 17.797c-.06-.135-1.499-3.297-4.457-3.297-2.957 0-4.397 3.162-4.457 3.297a.503.503 0 00.755.605c.012-.009 1.262-.902 3.702-.902 2.426 0 3.674.881 3.702.901a.498.498 0 00.755-.604zM5.999 12.458a1 1 0 01-.799-1.6c3.262-4.35 7.616-4.4 7.8-4.4a1 1 0 01.004 2c-.156.002-3.569.086-6.205 3.6a.995.995 0 01-.8.4zm23.002 2.125a.998.998 0 01-.801-.4c-2.592-3.457-6.961-2.627-7.004-2.62a1 1 0 01-.393-1.961c.231-.047 5.657-1.072 8.996 3.38a1 1 0 01-.798 1.601z" fill="#664500"></path></svg>