<svg class="md:w-10 md:h-10 sm:w-8 sm:h-8 w-6 h-6" viewBox="0 0 36 36"><path d="M18 36c9.941 0 18-8.059 18-18S27.941 0 18 0 0 8.059 0 18s8.059 18 18 18z" class="fill-current text-gray-400"></path><path d="M13.503 14.845c3.124 3.124 4.39 6.923 2.828 8.485-1.562 1.562-5.361.297-8.485-2.828-3.125-3.124-4.391-6.923-2.828-8.485 1.563-1.562 5.361-.296 8.485 2.828zm8.994 0c-3.124 3.124-4.39 6.923-2.828 8.485 1.562 1.562 5.361.297 8.485-2.828 3.125-3.125 4.391-6.923 2.828-8.485-1.562-1.562-5.361-.297-8.485 2.828z" fill="#292F33"></path></svg>