<svg class="md:w-10 md:h-10 sm:w-8 sm:h-8 w-6 h-6" viewBox="0 0 36 36"><path d="M18 36c9.941 0 18-8.059 18-18S27.941 0 18 0 0 8.059 0 18s8.059 18 18 18z" class="fill-current text-gray-400"></path><path d="M31.001 16a.998.998 0 01-.801-.4c-2.641-3.521-6.061-3.599-6.206-3.6a1.002 1.002 0 01-.991-1.005A.997.997 0 0124 10c.184 0 4.537.05 7.8 4.4a1 1 0 01-.799 1.6zM4.999 16a1 1 0 01-.799-1.6C7.462 10.05 11.816 10 12 10a1 1 0 01.004 2c-.156.002-3.569.086-6.205 3.6a.995.995 0 01-.8.4zm10.898 1.396c.023-.052.059-.096.073-.154a1 1 0 00-.727-1.213c-.18-.045-4.467-1.08-7.797 1.138a1 1 0 001.109 1.665c1.092-.729 2.362-.995 3.468-1.061-.009.076-.023.151-.023.229a2 2 0 004 0c0-.212-.042-.412-.103-.604zm11.999-.001c.023-.052.059-.095.073-.152a.999.999 0 00-.727-1.213c-.18-.045-4.466-1.08-7.797 1.138a1 1 0 101.11 1.664c1.092-.729 2.361-.994 3.469-1.06-.009.076-.024.15-.024.228a2 2 0 004 0 1.96 1.96 0 00-.104-.605z" fill="#664500"></path></svg>