<svg class="md:w-10 md:h-10 sm:w-8 sm:h-8 w-6 h-6" viewBox="0 0 36 36"><path d="M18 36c9.941 0 18-8.059 18-18S27.941 0 18 0 0 8.059 0 18s8.059 18 18 18z" class="fill-current text-gray-400"></path><path d="M17.312 17.612a.501.501 0 00-.61-.014c-.012.009-1.26.902-3.702.902-2.441 0-3.69-.893-3.7-.9a.5.5 0 00-.757.603c.06.135 1.5 3.297 4.457 3.297 2.958 0 4.397-3.162 4.457-3.297a.498.498 0 00-.145-.591zm10 0a.5.5 0 00-.61-.014c-.012.009-1.261.902-3.702.902-2.44 0-3.69-.893-3.7-.9a.5.5 0 00-.757.603c.06.135 1.5 3.297 4.457 3.297 2.958 0 4.397-3.162 4.457-3.297a.498.498 0 00-.145-.591zM6 14a1 1 0 01-.004-2c.156-.002 3.569-.086 6.205-3.6a1 1 0 011.6 1.2C10.538 13.95 6.184 14 6 14zm24 0c-.184 0-4.537-.05-7.8-4.4a1 1 0 111.599-1.2c2.641 3.521 6.061 3.599 6.206 3.6.55.006.994.456.991 1.005A.996.996 0 0130 14z" fill="#664500"></path></svg>