<svg class="md:w-10 md:h-10 sm:w-8 sm:h-8 w-6 h-6" viewBox="0 0 36 36"><path d="M18 36c9.941 0 18-8.059 18-18S27.941 0 18 0 0 8.059 0 18s8.059 18 18 18z" class="fill-current text-gray-400"></path><path d="M29 12c-5.554 0-7.802-4.367-7.895-4.553a1 1 0 011.787-.899C22.967 6.694 24.713 10 29 10a1 1 0 110 2zM7 12a1 1 0 010-2c5.083 0 5.996-3.12 6.033-3.253a1.007 1.007 0 011.219-.709c.53.139.851.673.718 1.205C14.921 7.437 13.704 12 7 12zM12 20c1.38 0 2.5-1.567 2.5-3.5S13.38 13 12 13s-2.5 1.567-2.5 3.5S10.62 20 12 20zM24 20c1.38 0 2.5-1.567 2.5-3.5S25.38 13 24 13s-2.5 1.567-2.5 3.5S22.62 20 24 20z" fill="#664500"></path></svg>