<svg class="md:w-10 md:h-10 sm:w-8 sm:h-8 w-6 h-6" viewBox="0 0 36 36"><path d="M18 36c9.941 0 18-8.059 18-18S27.941 0 18 0 0 8.059 0 18s8.059 18 18 18z" class="fill-current text-gray-400"></path><path d="M11.226 15.512c-.317 0-.636.039-.947.116-2.87.707-3.513 4.121-3.539 4.267a.5.5 0 00.877.407c.01-.012 1.01-1.178 3.379-1.761a8.698 8.698 0 012.073-.265c1.104 0 1.732.253 1.735.254.067.028.131.04.207.04a.5.5 0 00.306-.902c-.367-.435-1.953-2.156-4.091-2.156zm13.548 0c.317 0 .636.039.947.116 2.87.707 3.513 4.121 3.539 4.267a.5.5 0 01-.877.407c-.01-.012-1.01-1.178-3.379-1.761a8.698 8.698 0 00-2.073-.265c-1.104 0-1.731.253-1.735.254a.511.511 0 01-.206.04.5.5 0 01-.306-.902c.366-.435 1.952-2.156 4.09-2.156z" fill="#664500"></path></svg>