<svg class="md:w-10 md:h-10 sm:w-8 sm:h-8 w-6 h-6" viewBox="0 0 36 36"><path d="M18 36c9.941 0 18-8.059 18-18S27.941 0 18 0 0 8.059 0 18s8.059 18 18 18z" class="fill-current text-gray-400"></path><g clip-path="url(#prefix__clip0)"><path d="M15.894 14.211l-6-3a2.001 2.001 0 00-1.789 3.579l4.212 2.106c-.306.533-.317 1.105-.317 1.105v2s0 2 2 2 2-2 2-2v-2s-.003-.109-.025-.263a1.98 1.98 0 00.814-.843 2.001 2.001 0 00-.895-2.684zm12.895-2.105a2 2 0 00-2.684-.895l-6 3a2 2 0 00-.895 2.684c.186.372.476.654.814.843-.021.154-.024.263-.024.263v2s0 2 2 2 2-2 2-2v-2s-.011-.572-.318-1.105l4.212-2.106a2 2 0 00.895-2.684z" fill="#553986"></path></g><defs><clipPath id="prefix__clip0"><path fill="#fff" d="M0 0h36v36H0z"></path></clipPath></defs></svg>