<svg class="md:w-10 md:h-10 sm:w-8 sm:h-8 w-6 h-6" viewBox="0 0 36 36"><path d="M18 36c9.941 0 18-8.059 18-18S27.941 0 18 0 0 8.059 0 18s8.059 18 18 18z" class="fill-current text-gray-400"></path><path d="M11.5 20c1.38 0 2.5-1.567 2.5-3.5S12.88 13 11.5 13 9 14.567 9 16.5s1.12 3.5 2.5 3.5zM24.5 20c1.38 0 2.5-1.567 2.5-3.5S25.88 13 24.5 13 22 14.567 22 16.5s1.12 3.5 2.5 3.5zM5.999 12a1 1 0 01-.799-1.6C8.462 6.05 12.816 6 13 6a1 1 0 01.004 2c-.155.002-3.568.086-6.204 3.6a.998.998 0 01-.801.4zm24.002 0a.998.998 0 01-.801-.4c-2.64-3.521-6.061-3.598-6.206-3.6a1.002 1.002 0 01-.991-1.005A.997.997 0 0123 6c.184 0 4.537.05 7.8 4.4a1 1 0 01-.799 1.6z" fill="#664500"></path></svg>