<svg class="md:w-10 md:h-10 sm:w-8 sm:h-8 w-6 h-6" viewBox="0 0 36 36"><path d="M18 36c9.941 0 18-8.059 18-18S27.941 0 18 0 0 8.059 0 18s8.059 18 18 18z" class="fill-current text-gray-400"></path><path d="M24.5 22a5.5 5.5 0 100-11 5.5 5.5 0 000 11zM11.5 22a5.5 5.5 0 100-11 5.5 5.5 0 000 11z" fill="#F5F8FA"></path><path d="M11.5 19a2.5 2.5 0 100-5 2.5 2.5 0 000 5zM24.5 19a2.5 2.5 0 100-5 2.5 2.5 0 000 5zM30.001 11a.998.998 0 01-.801-.4c-2.64-3.521-6.061-3.598-6.206-3.6a1.002 1.002 0 01-.991-1.005A.997.997 0 0123 5c.184 0 4.537.05 7.8 4.4a1 1 0 01-.799 1.6zM5.999 11A1 1 0 015.2 9.4C8.462 5.05 12.816 5 13 5a1 1 0 01.004 2c-.155.002-3.568.086-6.204 3.6a.998.998 0 01-.801.4z" fill="#664500"></path></svg>