<svg class="md:w-10 md:h-10 sm:w-8 sm:h-8 w-6 h-6" viewBox="0 0 36 36"><path d="M18 36c9.941 0 18-8.059 18-18S27.941 0 18 0 0 8.059 0 18s8.059 18 18 18z" class="fill-current text-gray-400"></path><g clip-path="url(#prefix__clip0)"><path d="M13.5 20c1.933 0 3.5-2.015 3.5-4.5S15.433 11 13.5 11 10 13.015 10 15.5s1.567 4.5 3.5 4.5zM23.5 20c1.933 0 3.5-2.015 3.5-4.5S25.433 11 23.5 11 20 13.015 20 15.5s1.567 4.5 3.5 4.5z" fill="#F5F8FA"></path><path d="M14 18c1.105 0 2-1.12 2-2.5s-.895-2.5-2-2.5-2 1.12-2 2.5.895 2.5 2 2.5zM23 18c1.105 0 2-1.12 2-2.5s-.895-2.5-2-2.5-2 1.12-2 2.5.895 2.5 2 2.5z" fill="#292F33"></path></g><defs><clipPath id="prefix__clip0"><path fill="#fff" d="M0 0h36v36H0z"></path></clipPath></defs></svg>