<svg class="md:w-10 md:h-10 sm:w-8 sm:h-8 w-6 h-6" viewBox="0 0 36 36"><path d="M18 36c9.941 0 18-8.059 18-18S27.941 0 18 0 0 8.059 0 18s8.059 18 18 18z" class="fill-current text-gray-400"></path><path d="M30 15a.987.987 0 01-.371-.072c-5.229-2.091-7.372-5.241-7.461-5.374a1 1 0 011.662-1.113c.019.027 1.93 2.785 6.541 4.629A1 1 0 0130 15zM6 15a1.001 1.001 0 01-.372-1.929c4.612-1.844 6.523-4.602 6.542-4.629a1.002 1.002 0 011.387-.27.998.998 0 01.275 1.383c-.089.133-2.232 3.283-7.46 5.374A1.015 1.015 0 016 15zM14.999 18c-.15 0-.303-.034-.446-.105-3.512-1.756-7.07-.018-7.105 0a1 1 0 11-.895-1.789c.182-.09 4.498-2.197 8.895 0A1 1 0 0114.999 18zm14 0c-.15 0-.303-.034-.446-.105-3.513-1.756-7.07-.018-7.105 0a1 1 0 11-.895-1.789c.182-.09 4.501-2.196 8.895 0A1 1 0 0128.999 18z" fill="#664500"></path></svg>