<svg class="md:w-10 md:h-10 sm:w-8 sm:h-8 w-6 h-6" viewBox="0 0 36 36"><path d="M18 36c9.941 0 18-8.059 18-18S27.941 0 18 0 0 8.059 0 18s8.059 18 18 18z" class="fill-current text-gray-400"></path><path d="M29 10c-5.554 0-7.802-4.367-7.895-4.553a1 1 0 011.787-.899C22.967 4.694 24.713 8 29 8a1 1 0 110 2zM7 10a1 1 0 010-2c5.083 0 5.996-3.12 6.033-3.253a1.007 1.007 0 011.219-.709c.53.139.851.673.718 1.205C14.921 5.437 13.704 10 7 10zM6.001 19a1 1 0 01-.601-1.799c.143-.107 2.951-2.183 6.856-2.933C9.781 13.027 7.034 13 6.999 13A1.001 1.001 0 017 11c.221 0 5.452.038 8.707 3.293A1 1 0 0115 16c-4.613 0-8.363 2.772-8.4 2.8a.996.996 0 01-.599.2zm23.998-.001a.998.998 0 01-.598-.198C29.363 18.772 25.59 16 21 16a1 1 0 01-.707-1.707C23.549 11.038 28.779 11 29 11a1 1 0 01.002 2c-.036 0-2.783.027-5.258 1.268 3.905.75 6.713 2.826 6.855 2.933a1 1 0 01-.6 1.798z" fill="#664500"></path></svg>