<svg class="md:w-10 md:h-10 sm:w-8 sm:h-8 w-6 h-6" viewBox="0 0 36 36"><path d="M18 36c9.941 0 18-8.059 18-18S27.941 0 18 0 0 8.059 0 18s8.059 18 18 18z" class="fill-current text-gray-400"></path><path d="M15.703 17.598c-.013.009-1.262.902-3.703.902-2.442 0-3.69-.893-3.7-.9a.499.499 0 00-.716.678c.061.09 1.515 2.222 4.416 2.222 2.9 0 4.355-2.132 4.416-2.223a.5.5 0 00-.713-.679zm12.642.042a.5.5 0 00-.643-.042c-.012.009-1.262.902-3.702.902-2.441 0-3.69-.893-3.7-.9a.499.499 0 00-.716.678c.061.09 1.515 2.222 4.416 2.222 2.9 0 4.355-2.132 4.416-2.223a.498.498 0 00-.071-.637zM31.001 16a.998.998 0 01-.801-.4c-2.641-3.521-6.061-3.599-6.206-3.6a1.002 1.002 0 01-.991-1.005A.997.997 0 0124 10c.184 0 4.537.05 7.8 4.4a1 1 0 01-.799 1.6zM4.999 16a1 1 0 01-.799-1.6C7.462 10.05 11.816 10 12 10a1 1 0 01.004 2c-.156.002-3.569.086-6.205 3.6a.995.995 0 01-.8.4z" fill="#664500"></path></svg>