<svg class="md:w-10 md:h-10 sm:w-8 sm:h-8 w-6 h-6" viewBox="0 0 36 36"><path d="M18 36c9.941 0 18-8.059 18-18S27.941 0 18 0 0 8.059 0 18s8.059 18 18 18z" class="fill-current text-gray-400"></path><path d="M24.5 19a5.5 5.5 0 100-11 5.5 5.5 0 000 11zM11.5 19a5.5 5.5 0 100-11 5.5 5.5 0 000 11z" fill="#F4F7F9"></path><path d="M10.5 13a2.5 2.5 0 002.5-2.5c0-1.252-.923-2.28-2.124-2.462a5.441 5.441 0 00-2.178.736A2.487 2.487 0 008 10.5a2.5 2.5 0 002.5 2.5zm13 0a2.5 2.5 0 002.5-2.5c0-1.252-.923-2.28-2.124-2.462a5.437 5.437 0 00-2.177.736A2.484 2.484 0 0021 10.5a2.5 2.5 0 002.5 2.5z" fill="#65471B"></path></svg>