<svg class="md:w-10 md:h-10 sm:w-8 sm:h-8 w-6 h-6" viewBox="0 0 36 36"><path d="M18 36c9.941 0 18-8.059 18-18S27.941 0 18 0 0 8.059 0 18s8.059 18 18 18z" class="fill-current text-gray-400"></path><path d="M24.5 19a4.5 4.5 0 100-9 4.5 4.5 0 000 9z" fill="#fff"></path><path d="M24.5 17.221a2.721 2.721 0 100-5.442 2.721 2.721 0 000 5.442z" fill="#DD2E44"></path><path d="M11.5 19a4.5 4.5 0 100-9 4.5 4.5 0 000 9z" fill="#fff"></path><path d="M11.5 17.221a2.721 2.721 0 100-5.442 2.721 2.721 0 000 5.442z" fill="#DD2E44"></path></svg>