<svg class="md:w-10 md:h-10 sm:w-8 sm:h-8 w-6 h-6" viewBox="0 0 36 36"><path d="M18 36c9.941 0 18-8.059 18-18S27.941 0 18 0 0 8.059 0 18s8.059 18 18 18z" class="fill-current text-gray-400"></path><path d="M13.119 13.83c1.174 0 2.125-1.19 2.125-2.656 0-1.467-.951-2.656-2.125-2.656s-2.125 1.19-2.125 2.656c0 1.467.951 2.656 2.125 2.656zM24.375 14.892c1.174 0 2.125-1.19 2.125-2.656 0-1.467-.951-2.656-2.125-2.656s-2.125 1.19-2.125 2.656c0 1.467.951 2.656 2.125 2.656z" fill="#65471B"></path><path d="M9.296 6.351a.925.925 0 01-.391-.399.8.8 0 01.393-1.112c4.266-1.831 7.699-.043 7.843.034.433.231.608.747.391 1.154-.216.405-.74.546-1.173.318-.123-.063-2.832-1.432-6.278.047a.915.915 0 01-.785-.042zm12.135 3.75a.924.924 0 01-.362-.424.8.8 0 01.468-1.084c4.381-1.536 7.685.48 7.823.567.415.26.555.787.312 1.178-.242.39-.776.495-1.191.238-.12-.072-2.727-1.621-6.267-.379a.924.924 0 01-.783-.096z" fill="#65471B"></path></svg>