<svg class="md:w-10 md:h-10 sm:w-8 sm:h-8 w-6 h-6" viewBox="0 0 36 36"><path d="M18 36c9.941 0 18-8.059 18-18S27.941 0 18 0 0 8.059 0 18s8.059 18 18 18z" class="fill-current text-gray-400"></path><path d="M12.5 20c1.38 0 2.5-1.567 2.5-3.5S13.88 13 12.5 13 10 14.567 10 16.5s1.12 3.5 2.5 3.5zM23.5 20c1.38 0 2.5-1.567 2.5-3.5S24.88 13 23.5 13 21 14.567 21 16.5s1.12 3.5 2.5 3.5zM29 12c-5.554 0-7.802-4.367-7.895-4.553a1 1 0 011.787-.899C22.967 6.694 24.713 10 29 10a1 1 0 110 2zm-22-.006a1 1 0 010-2c5.083 0 5.996-3.12 6.033-3.253.145-.528.69-.848 1.219-.709.53.139.851.673.718 1.205-.049.194-1.266 4.757-7.97 4.757z" fill="#664500"></path></svg>