<svg class="md:w-10 md:h-10 sm:w-8 sm:h-8 w-6 h-6" viewBox="0 0 36 36"><path d="M18 36c9.941 0 18-8.059 18-18S27.941 0 18 0 0 8.059 0 18s8.059 18 18 18z" class="fill-current text-gray-400"></path><g clip-path="url(#prefix__clip0)"><path d="M28.028 13.036c-.244-.3-6.771-1.502-6.826-1.502-.118 0-.251.089-.275.205a4.073 4.073 0 00.466 2.941c.521.876 1.337 1.47 2.296 1.673.232.049.471.074.707.074 1.746 0 3.296-1.336 3.686-3.177a.265.265 0 00-.054-.214zm-13.272-1.502c-.056 0-6.583 1.202-6.827 1.502a.257.257 0 00-.052.213c.389 1.84 1.939 3.176 3.686 3.176.236 0 .474-.025.707-.074 1.972-.417 3.211-2.486 2.762-4.613-.024-.115-.157-.204-.276-.204z" fill="#292F33"></path></g><defs><clipPath id="prefix__clip0"><path fill="#fff" d="M0 0h36v36H0z"></path></clipPath></defs></svg>