<svg class="md:w-10 md:h-10 sm:w-8 sm:h-8 w-6 h-6" viewBox="0 0 36 36"><path d="M18 36c9.941 0 18-8.059 18-18S27.941 0 18 0 0 8.059 0 18s8.059 18 18 18z" class="fill-current text-gray-400"></path><path d="M16 16.958c-.419 0-.809-.265-.949-.684-.203-.599-1.018-2.316-2.051-2.316-1.062 0-1.888 1.827-2.051 2.316a1 1 0 11-1.897-.633c.125-.377 1.304-3.684 3.949-3.684 2.645 0 3.823 3.307 3.949 3.684a1 1 0 01-.95 1.317zm10 0a.999.999 0 01-.948-.684c-.203-.599-1.019-2.316-2.052-2.316-1.062 0-1.889 1.827-2.052 2.316a1 1 0 01-1.897-.633c.125-.377 1.304-3.684 3.948-3.684s3.823 3.307 3.948 3.684A1 1 0 0126 16.958z" fill="#664500"></path></svg>