<svg class="md:w-10 md:h-10 sm:w-8 sm:h-8 w-6 h-6" viewBox="0 0 36 36"><path d="M18 36c9.941 0 18-8.059 18-18S27.941 0 18 0 0 8.059 0 18s8.059 18 18 18z" class="fill-current text-gray-400"></path><path d="M11.016 6.08c-2.255.604-3.48 1.965-3.555 2.05a1.002 1.002 0 00.091 1.412.998.998 0 001.411-.091c.079-.087 2.09-2.253 5.81-1.492A1 1 0 1015.174 6c-1.635-.336-3.026-.223-4.158.08zm13.968.001c-1.132-.303-2.523-.416-4.159-.082a1 1 0 10.401 1.959c3.724-.762 5.731 1.405 5.814 1.497.367.407 1 .444 1.41.078a.997.997 0 00.088-1.404c-.075-.084-1.3-1.444-3.554-2.048z" fill="#664500"></path></svg>