<svg class="md:w-10 md:h-10 sm:w-8 sm:h-8 w-6 h-6" viewBox="0 0 36 36"><path d="M18 36c9.941 0 18-8.059 18-18S27.941 0 18 0 0 8.059 0 18s8.059 18 18 18z" class="fill-current text-gray-400"></path><path d="M8.111 21.383a1 1 0 01-.845-1.533c.916-1.453 3.701-3.938 7.69-2.962a1 1 0 01-.476 1.942c-3.604-.882-5.502 2.056-5.521 2.086a1.001 1.001 0 01-.848.467zm11.973-3.742a1 1 0 01-.634-1.774c3.176-2.604 6.762-1.562 8.215-.646a1 1 0 01-1.064 1.694c-.138-.084-3.052-1.823-5.884.499a.992.992 0 01-.633.227z" fill="#664500"></path></svg>