<svg class="md:w-10 md:h-10 sm:w-8 sm:h-8 w-6 h-6" viewBox="0 0 36 36"><path d="M18 36c9.941 0 18-8.059 18-18S27.941 0 18 0 0 8.059 0 18s8.059 18 18 18z" class="fill-current text-gray-400"></path><path d="M6.001 11a1 1 0 01-.004-2c.156-.002 3.569-.086 6.205-3.6a1 1 0 011.6 1.2C10.539 10.95 6.185 11 6.001 11zm24.986 2.393a1 1 0 01-1.945.468c-.038-.151-.911-3.452-4.941-5.201a1 1 0 01.796-1.834c4.989 2.165 6.047 6.388 6.09 6.567zM14.815 15.375c-.584 2.114-1.642 3.083-3.152 2.666-1.509-.417-2.343-1.909-1.76-4.023.583-2.112 2.175-3.363 3.684-2.946 1.511.417 1.812 2.19 1.228 4.303zm11.416-.755c.473 2.141-.675 4.838-2.204 5.176-1.529.338-3.28-1.719-3.753-3.86-.473-2.14.419-3.971 1.948-4.309 1.529-.338 3.536.853 4.009 2.993z" fill="#65471B"></path></svg>