<svg class="md:w-10 md:h-10 sm:w-8 sm:h-8 w-6 h-6" viewBox="0 0 36 36"><path d="M18 36c9.941 0 18-8.059 18-18S27.941 0 18 0 0 8.059 0 18s8.059 18 18 18z" class="fill-current text-gray-400"></path><path d="M11.471 13.529c0 1.706-.987 3.088-2.206 3.088-1.219 0-2.206-1.382-2.206-3.088 0-1.705.987-3.088 2.206-3.088 1.218 0 2.206 1.383 2.206 3.088zm11.529 0c0 1.706-.987 3.088-2.206 3.088-1.218 0-2.206-1.382-2.206-3.088 0-1.705.988-3.088 2.206-3.088 1.219 0 2.206 1.383 2.206 3.088z" fill="#664500"></path></svg>