<svg class="md:w-10 md:h-10 sm:w-8 sm:h-8 w-6 h-6" viewBox="0 0 36 36"><path d="M18 36c9.941 0 18-8.059 18-18S27.941 0 18 0 0 8.059 0 18s8.059 18 18 18z" class="fill-current text-gray-400"></path><path d="M12 19.25c1.38 0 2.5-1.231 2.5-2.75s-1.12-2.75-2.5-2.75-2.5 1.231-2.5 2.75 1.12 2.75 2.5 2.75zM24 20c1.38 0 2.5-1.567 2.5-3.5S25.38 13 24 13s-2.5 1.567-2.5 3.5S22.62 20 24 20zM7.102 12.559a.996.996 0 00.885.135c4.187-1.355 7.027.554 7.146.636a1.003 1.003 0 001.39-.25.998.998 0 00-.241-1.388c-.15-.106-3.736-2.575-8.91-.901a.998.998 0 00-.27 1.768zm22.899-2.151c-.368 0-.731-.161-.979-.471-1.395-1.751-4.299-3.287-5.314-3.287-.642 0-1.925.911-2.604 1.568a1.251 1.251 0 01-1.743-1.794c.391-.38 2.436-2.275 4.347-2.275 2.005 0 5.538 2.056 7.27 4.229a1.25 1.25 0 01-.977 2.03z" fill="#664500"></path></svg>