<svg class="md:w-10 md:h-10 sm:w-8 sm:h-8 w-6 h-6" viewBox="0 0 36 36"><path d="M18 36c9.941 0 18-8.059 18-18S27.941 0 18 0 0 8.059 0 18s8.059 18 18 18z" class="fill-current text-gray-400"></path><path d="M15.682 4.413l-4.542.801L8.8.961a1.252 1.252 0 00-2.331.411l-.745 4.797-4.542.801a1.25 1.25 0 00-.318 2.361l4.07 1.932-.748 4.812a1.253 1.253 0 001.235 1.442c.327 0 .65-.128.891-.372l3.512-3.561 4.518 2.145a1.25 1.25 0 001.631-1.731L13.625 9.73l3.165-3.208a1.252 1.252 0 00-1.108-2.109zm4.636 0l4.542.801L27.2.961a1.251 1.251 0 012.33.411l.745 4.797 4.542.801c.536.094.949.524 1.021 1.063a1.252 1.252 0 01-.703 1.297l-4.07 1.932.748 4.812a1.253 1.253 0 01-1.235 1.442c-.327 0-.65-.128-.891-.372l-3.512-3.561-4.518 2.145a1.25 1.25 0 01-1.631-1.731l2.348-4.267-3.165-3.208a1.252 1.252 0 01-.217-1.459 1.259 1.259 0 011.326-.65z" fill="#E95F28"></path></svg>