<svg class="md:w-10 md:h-10 sm:w-8 sm:h-8 w-6 h-6" viewBox="0 0 36 36"><path d="M18 36c9.941 0 18-8.059 18-18S27.941 0 18 0 0 8.059 0 18s8.059 18 18 18z" class="fill-current text-gray-400"></path><path d="M14.222 13.222c0 1.391-.846 2.519-1.889 2.519-1.043 0-1.889-1.127-1.889-2.519 0-1.391.845-2.519 1.889-2.519 1.043.001 1.889 1.128 1.889 2.519zm15.664-2.951a1.061 1.061 0 00.849-1.7c-3.466-4.622-8.092-4.675-8.287-4.675a1.062 1.062 0 00-.004 2.125c.166.002 3.792.091 6.592 3.825.208.278.527.425.85.425zm-8.108 2.951c0 1.391.846 2.519 1.889 2.519 1.043 0 1.889-1.127 1.889-2.519 0-1.391-.845-2.519-1.889-2.519-1.044.001-1.889 1.128-1.889 2.519zM6.114 10.271a1.062 1.062 0 01-.849-1.7c3.466-4.622 8.092-4.675 8.287-4.675a1.062 1.062 0 01.004 2.125c-.166.002-3.792.091-6.592 3.825a1.06 1.06 0 01-.85.425z" fill="#65471B"></path></svg>