<svg class="md:w-10 md:h-10 sm:w-8 sm:h-8 w-6 h-6" viewBox="0 0 36 36"><path d="M18 36c9.941 0 18-8.059 18-18S27.941 0 18 0 0 8.059 0 18s8.059 18 18 18z" class="fill-current text-gray-400"></path><g clip-path="url(#prefix__clip0)" fill="#65471B"><path d="M12.176 18.416c1.462 0 2.647-1.66 2.647-3.706 0-2.047-1.185-3.706-2.647-3.706-1.462 0-2.647 1.66-2.647 3.706 0 2.047 1.185 3.706 2.647 3.706zM14.825 9.946c-.322 0-.64-.146-.848-.423-.991-1.321-2.028-2.029-3.083-2.104-1.39-.095-2.523.947-2.734 1.158A1.057 1.057 0 116.663 7.08c.457-.457 2.129-1.936 4.381-1.773 1.695.12 3.251 1.111 4.627 2.945a1.059 1.059 0 01-.846 1.694zM23.707 18.122c-1.462 0-2.647-1.66-2.647-3.707 0-2.046 1.185-3.705 2.647-3.705 1.462 0 2.647 1.659 2.647 3.705 0 2.047-1.185 3.707-2.647 3.707zM21.058 9.651c.322 0 .64-.146.848-.423.99-1.32 2.028-2.029 3.083-2.104 1.39-.095 2.523.947 2.734 1.158a1.057 1.057 0 101.497-1.497c-.457-.457-2.13-1.936-4.381-1.773-1.695.12-3.251 1.111-4.627 2.945a1.059 1.059 0 00.846 1.694z"></path></g><defs><clipPath id="prefix__clip0"><path fill="#fff" d="M0 0h36v36H0z"></path></clipPath></defs></svg>