<svg class="md:w-10 md:h-10 sm:w-8 sm:h-8 w-6 h-6" viewBox="0 0 36 36"><path d="M18 36c9.941 0 18-8.059 18-18S27.941 0 18 0 0 8.059 0 18s8.059 18 18 18z" class="fill-current text-gray-400"></path><path d="M28.457 17.797c-.06-.135-1.499-3.297-4.457-3.297-2.957 0-4.397 3.162-4.457 3.297a.503.503 0 00.755.605c.012-.009 1.262-.902 3.702-.902 2.426 0 3.674.881 3.702.901a.498.498 0 00.755-.604zm-12 0c-.06-.135-1.499-3.297-4.457-3.297-2.957 0-4.397 3.162-4.457 3.297a.499.499 0 00.754.605C8.31 18.393 9.559 17.5 12 17.5c2.426 0 3.674.881 3.702.901a.498.498 0 00.755-.604zM31 16c-.396 0-.772-.238-.929-.629-1.778-4.445-6.223-5.381-6.268-5.391a1 1 0 11.393-1.961c.226.045 5.556 1.168 7.732 6.608A1 1 0 0131 16zM5 16a1 1 0 01-.928-1.372c2.176-5.44 7.506-6.563 7.732-6.608a1 1 0 01.396 1.96c-.185.038-4.506.98-6.271 5.391A1.002 1.002 0 015 16z" fill="#664500"></path></svg>