<svg class="md:w-10 md:h-10 sm:w-8 sm:h-8 w-6 h-6" viewBox="0 0 36 36"><path d="M18 36c9.941 0 18-8.059 18-18S27.941 0 18 0 0 8.059 0 18s8.059 18 18 18z" class="fill-current text-gray-400"></path><path d="M29 14a.997.997 0 01-.707-.293c-2.577-2.575-7.055-1.736-7.099-1.726a.996.996 0 01-1.174-.787.998.998 0 01.783-1.174c.227-.046 5.563-1.065 8.903 2.273A.999.999 0 0129 14zM7 14a.999.999 0 01-.707-1.707c3.34-3.341 8.678-2.318 8.903-2.273a1 1 0 01-.391 1.962c-.069-.015-4.529-.843-7.098 1.726A1 1 0 017 14zm19 5a.997.997 0 01-.707-.293c-1.304-1.305-4.09-.974-5.052-.736a1 1 0 01-.483-1.941c.186-.046 4.575-1.111 6.949 1.263A.999.999 0 0126 19zm-16 0a.999.999 0 01-.707-1.707c2.373-2.373 6.764-1.309 6.95-1.263a1 1 0 01-.483 1.941c-.964-.237-3.749-.567-5.052.736A1.001 1.001 0 0110 19z" fill="#664500"></path></svg>