<svg xmlns="http://www.w3.org/2000/svg" viewBox="0 0 36 36"><path d="M18 36c9.941 0 18-8.059 18-18S27.941 0 18 0 0 8.059 0 18s8.059 18 18 18z" fill="#CBD5E1"></path><ellipse fill="#664500" cx="17.999" cy="26" rx="2" ry="2.5"/><path fill="#DD2E44" d="M17.179 2.72c-.043-.049-.11-.076-.189-.091 0 0-15.924-3.023-16.613-2.415C-.311.823.74 16.998.74 16.998c.005.081.023.15.067.199.604.684 4.758-2.004 9.279-6.001 4.522-3.998 7.697-7.792 7.093-8.476z"/><path fill="#EA596E" d="M.349.271C.334.301.321.342.311.394.47 1.765 2.006 13.046 2.963 16.572c1.436-.803 2.895-1.894 4.609-3.253C6.116 10.654 1.158.146.349.271z"/><path fill="#3B88C3" d="M29.902 29.229l-10.573-1.303c-1.13-.102-3.117-.112-3.015-1.902.093-1.623 2.04-1.373 3.479-1.16l10.638 1.774-.529 2.591z"/><path fill="#88C9F9" d="M30.43 26.639l-4.222-.724c-.494-.089-.934.647-.956 1.426-.025.866.227 1.304.726 1.406l4.144.512.308-2.62z"/><path fill="#3B88C3" d="M34.918 26.341l-2.622 2.411-4.687-5.097 2.622-2.411c1.361-1.252 3.499-1.162 4.751.199l.135.147c1.251 1.362 1.162 3.499-.199 4.751z"/><ellipse transform="rotate(-42.597 29.954 26.205)" fill="#88C9F9" cx="29.952" cy="26.203" rx="2.77" ry="3.462"/><ellipse transform="rotate(-42.597 29.954 26.205)" fill="#269" cx="29.952" cy="26.203" rx="1.385" ry="2.077"/><circle fill="#55ACEE" cx="2.5" cy="33.5" r="1.5"/><circle fill="#55ACEE" cx="29" cy="2" r="2"/><path fill="#EA596E" d="M4.864 29.246L2.526 23.63.412 29.675zM26 5l-4 1 1-4z"/><path fill="#77B255" d="M31.999 13L36 7.999 33 6z"/></svg>
