<svg class="md:w-10 md:h-10 sm:w-8 sm:h-8 w-6 h-6" viewBox="0 0 36 36"><path d="M18 36c9.941 0 18-8.059 18-18S27.941 0 18 0 0 8.059 0 18s8.059 18 18 18z" class="fill-current text-gray-400"></path><path d="M25.178 25.622c-.845.445-4.378 1.467-7.178 1.467-3 0-6.508-1.022-7.353-1.467-.844-.444-1.776.344-1.51 1.867.363 2.074 1.253 4.684 3.387 4.195C13.224 31.524 15 30 18 30c3.022 0 4.645 1.524 5.345 1.684 2.133.489 2.893-2.122 3.255-4.195.267-1.523-.578-2.311-1.422-1.867z" fill="#292F33"></path><path d="M25.721 28.741l-.805-3c-1.155.485-4.343 1.348-6.917 1.348-2.835 0-6.12-.912-7.186-1.388l-.815 3.04a1.004 1.004 0 00.707 1.225 1.004 1.004 0 001.225-.707l.748-2.331c.892.344 3.114.664 5.322.66 2.161-.004 4.308-.324 5.18-.66l.616 2.331a.998.998 0 001.22.707 1 1 0 00.705-1.225z" fill="#fff"></path><path d="M22.929 29.906a.751.751 0 00-.578-.889.751.751 0 00-.889.578l-.119.643c-.351-.19-1.839-.646-3.343-.649-1.553-.003-3.125.454-3.484.649l-.198-.643c-.086-.404-.517-.664-.92-.578-.403.086-.679.486-.593.889l.318 1.514C14.038 30.941 15.632 30 18 30c2.255 0 3.729.847 4.624 1.345l.305-1.439z" fill="#fff"></path></svg>