<svg class="md:w-10 md:h-10 sm:w-8 sm:h-8 w-6 h-6" viewBox="0 0 36 36"><path d="M18 36c9.941 0 18-8.059 18-18S27.941 0 18 0 0 8.059 0 18s8.059 18 18 18z" class="fill-current text-gray-400"></path><path d="M17.219 29.625a1 1 0 001.563-.001l3.193-3.992 2.226 2.967a1 1 0 00.729.397.975.975 0 00.778-.29l1-1a.999.999 0 10-1.414-1.414l-.185.185L22.8 23.4a.996.996 0 00-.784-.4c-.313 0-.604.134-.797.375L18 27.399l-3.22-4.024a1.002 1.002 0 00-1.58.025l-2.308 3.078-.185-.185a.999.999 0 10-1.414 1.414l1 1A.998.998 0 0011.8 28.6l2.225-2.967 3.194 3.992z" fill="#664500"></path></svg>