<svg class="md:w-10 md:h-10 sm:w-8 sm:h-8 w-6 h-6" viewBox="0 0 36 36"><path d="M18 36c9.941 0 18-8.059 18-18S27.941 0 18 0 0 8.059 0 18s8.059 18 18 18z" class="fill-current text-gray-400"></path><path d="M7 21.262c0 3.964 4.596 9 11 9s11-5 11-9c0 0-10.333 2.756-22 0z" fill="#65471B"></path><path d="M18.545 23.604l-1.091-.005c-3.216-.074-5.454-.596-5.454-.596v6.961c0 3 2 6 6 6s6-3 6-6v-6.92a28.815 28.815 0 01-5.455.56z" fill="#E8596E"></path><path d="M18 31.843a.545.545 0 00.545-.545v-7.694l-1.091-.005v7.699a.546.546 0 00.546.545z" fill="#DD2F45"></path></svg>