<svg class="md:w-10 md:h-10 sm:w-8 sm:h-8 w-6 h-6" viewBox="0 0 36 36"><path d="M18 36c9.941 0 18-8.059 18-18S27.941 0 18 0 0 8.059 0 18s8.059 18 18 18z" class="fill-current text-gray-400"></path><g clip-path="url(#prefix__clip0)"><path d="M28.023 24.191C27.046 24.383 23 26 18 26s-9.046-1.617-10.023-1.809C7 24 6.885 25.264 7.442 27.132 8 29 11 33 18 33s10-4 10.558-5.868c.557-1.868.442-3.132-.535-2.941z" fill="#292F33"></path><path d="M8 25s5 2 10 2 10-2 10-2-.5 3-1.5 3-1.5-1-1.5-1-4 2-7 2-7-2-7-2-.5 1-1.5 1S8 25 8 25z" fill="#F5F8FA"></path></g><defs><clipPath id="prefix__clip0"><path fill="#fff" d="M0 0h36v36H0z"></path></clipPath></defs></svg>