<svg class="md:w-10 md:h-10 sm:w-8 sm:h-8 w-6 h-6" viewBox="0 0 36 36"><path d="M18 36c9.941 0 18-8.059 18-18S27.941 0 18 0 0 8.059 0 18s8.059 18 18 18z" class="fill-current text-gray-400"></path><g clip-path="url(#prefix__clip0)"><path d="M9.447 24.895C9.201 24.402 9.45 24 10 24h18c.55 0 .799.402.553.895C28.553 24.895 26 30 19 30c-7 0-9.553-5.105-9.553-5.105z" fill="#292F33"></path><path d="M19 26c-2.771 0-5.157.922-6.292 2.256C14.2 29.211 16.253 30 19 30s4.801-.789 6.292-1.744C24.157 26.922 21.771 26 19 26z" fill="#F2ABBA"></path></g><defs><clipPath id="prefix__clip0"><path fill="#fff" d="M0 0h36v36H0z"></path></clipPath></defs></svg>