<svg class="md:w-10 md:h-10 sm:w-8 sm:h-8 w-6 h-6" viewBox="0 0 36 36"><path d="M18 36c9.941 0 18-8.059 18-18S27.941 0 18 0 0 8.059 0 18s8.059 18 18 18z" class="fill-current text-gray-400"></path><g clip-path="url(#prefix__clip0)"><path d="M25.861 16.129a.372.372 0 00-.535-.029c-.033.029-3.303 2.9-7.326 2.9-4.013 0-7.293-2.871-7.326-2.9a.374.374 0 00-.535.029.57.57 0 00-.079.628C10.168 16.972 12.769 22 18 22s7.833-5.028 7.94-5.243a.57.57 0 00-.079-.628z" fill="#664500"></path></g><defs><clipPath id="prefix__clip0"><path fill="#fff" d="M0 0h36v36H0z"></path></clipPath></defs></svg>