<svg class="md:w-10 md:h-10 sm:w-8 sm:h-8 w-6 h-6" viewBox="0 0 36 36"><path d="M18 36c9.941 0 18-8.059 18-18S27.941 0 18 0 0 8.059 0 18s8.059 18 18 18z" class="fill-current text-gray-400"></path><g clip-path="url(#prefix__clip0)"><path d="M18.625 20.937c-3.543.759-5.981.85-9.01.908-.691.015-1.955.419-1.536 2.375.838 3.911 6.379 7.837 12.642 6.495 6.262-1.342 9.708-7.194 8.87-11.105-.419-1.956-1.739-1.808-2.375-1.536-2.786 1.187-5.048 2.104-8.591 2.863z" fill="#65471B"></path><path d="M11 24.004v6c0 3 2 6 6 6s6-3 6-6v-6H11z" fill="#E8596E"></path><path d="M17 31.883a.545.545 0 00.545-.545v-6.295h-1.091v6.295a.546.546 0 00.546.545z" fill="#DD2F45"></path><path d="M10.034 23.801s3.143.349 9.01-.908c5.867-1.257 8.591-2.864 8.591-2.864s-1.117 4.33-7.962 5.797c-6.845 1.467-9.639-2.025-9.639-2.025z" fill="#fff"></path></g><defs><clipPath id="prefix__clip0"><path fill="#fff" d="M0 0h36v36H0z"></path></clipPath></defs></svg>