<svg class="md:w-10 md:h-10 sm:w-8 sm:h-8 w-6 h-6" viewBox="0 0 36 36"><path d="M18 36c9.941 0 18-8.059 18-18S27.941 0 18 0 0 8.059 0 18s8.059 18 18 18z" class="fill-current text-gray-400"></path><path d="M17.999 28.5c1.105 0 2-1.12 2-2.5s-.895-2.5-2-2.5-2 1.12-2 2.5.895 2.5 2 2.5z" fill="#664500"></path><path d="M13.346 31.273a.75.75 0 01-.722-.954c.437-1.54.258-3.029-.49-4.086-.497-.702-1.205-1.131-1.943-1.178a.75.75 0 01-.702-.795c.026-.413.381-.751.795-.701 1.193.074 2.313.733 3.073 1.807 1.011 1.429 1.27 3.383.709 5.361a.749.749 0 01-.72.546zm11.037-3.061a.744.744 0 01-.412-.124c-1.167-.77-1.82-2.117-1.792-3.695.029-1.635.809-3.153 1.984-3.869a.748.748 0 011.03.251.748.748 0 01-.251 1.03c-.735.448-1.244 1.499-1.264 2.614-.02 1.055.389 1.936 1.118 2.417a.75.75 0 01-.413 1.376z" fill="#E2A62D"></path><path d="M29.902 29.229l-10.573-1.303c-1.13-.102-3.117-.112-3.015-1.902.093-1.623 2.04-1.373 3.479-1.16l10.638 1.774-.529 2.591z" fill="#3B88C3"></path><path d="M30.43 26.639l-4.222-.724c-.494-.089-.934.647-.956 1.426-.025.866.227 1.304.726 1.406l4.144.512.308-2.62z" fill="#88C9F9"></path><path d="M34.918 26.341l-2.622 2.411-4.687-5.097 2.622-2.411a3.372 3.372 0 014.751.199l.135.147a3.373 3.373 0 01-.199 4.751z" fill="#3B88C3"></path><path d="M32.294 28.753c1.127-1.035.99-3.015-.304-4.423-1.294-1.407-3.256-1.71-4.382-.674s-.99 3.016.304 4.424c1.294 1.407 3.256 1.709 4.382.673z" fill="#88C9F9"></path><path d="M31.357 27.734c.563-.518.39-1.622-.386-2.467-.777-.844-1.863-1.109-2.426-.591-.563.518-.39 1.622.387 2.466.776.845 1.862 1.11 2.425.592z" fill="#269"></path></svg>