<svg class="md:w-10 md:h-10 sm:w-8 sm:h-8 w-6 h-6" viewBox="0 0 36 36"><path d="M18 36c9.941 0 18-8.059 18-18S27.941 0 18 0 0 8.059 0 18s8.059 18 18 18z" class="fill-current text-gray-400"></path><path d="M26.041 29.251a.381.381 0 00.317-.071.375.375 0 00.142-.294c0-3.178-3.713-6.872-8.5-6.872s-8.5 3.694-8.5 6.872a.38.38 0 00.145.297.381.381 0 00.324.066c.076-.02 7.648-1.94 16.072.002z" fill="#292F33"></path><path d="M18.629 23.079v.827l-1.091.001v-.837c-2.277.127-4.191 1.162-5.455 2.516l.008.461c.086 2.932 2.08 5.802 5.992 5.802 3.899 0 5.892-2.851 5.991-5.773l.009-.284a8.057 8.057 0 00-5.454-2.713z" fill="#F4ABBA"></path><path d="M18 23.049c-.157 0-.308.014-.462.022v4.447a.545.545 0 101.09 0V23.08a7.61 7.61 0 00-.628-.031z" fill="#EA596E"></path></svg>