<svg class="md:w-10 md:h-10 sm:w-8 sm:h-8 w-6 h-6" viewBox="0 0 36 36"><g clip-path="url(#prefix__clip0)" fill="#AA8DD8"><path d="M18 36c9.941 0 18-8.059 18-18S27.941 0 18 0 0 8.059 0 18s8.059 18 18 18z"></path><path d="M10 4C7.42 4 4.369 1.534 3.414.586A1.998 1.998 0 001.235.153 1.998 1.998 0 000 2c0 3.459 1.672 10 8 10a2 2 0 001.789-1.106l2-4A1.999 1.999 0 0010 4zM34.766.153a1.996 1.996 0 00-2.18.434C31.7 1.472 28.589 4 26 4a1.999 1.999 0 00-1.789 2.895l2 4A2 2 0 0028 12c6.328 0 8-6.541 8-10 0-.809-.487-1.538-1.234-1.847z"></path></g><defs><clipPath id="prefix__clip0"><path fill="#fff" d="M0 0h36v36H0z"></path></clipPath></defs></svg>