<svg class="md:w-10 md:h-10 sm:w-8 sm:h-8 w-6 h-6" viewBox="0 0 36 36"><path d="M35 18.619a6.869 6.869 0 00-6.869-6.869c-.979 0-2.752.578-2.752.578l-13.126 1.384s-2.717-1.581-4.383-1.581a6.869 6.869 0 00-6.835 7.571C1.406 28.763 8.849 36 18 36c9.389 0 17-7.611 17-17 0-.052-.009-.101-.012-.153.003-.076.012-.151.012-.228z" fill="#FFCB4C"></path><path d="M6.266 13.688c.25-.188 1.113-.512 1.716.051 1.018.949 1.265-1.445 4.477.303 1.469.799 8.989.96 9.699.607 2.692-1.337 4.768-2.198 5.572-1.743.624.353-.973.955.195 1.092 1.193.14 1.261-.49 2.202-.246 1.655.429-1.094 2.324-1.094 2.324-4.357 3.575-19.429.903-22.089-.776-1.099-.694-1.064-1.323-.678-1.612z" fill="#F19020"></path><path d="M29.688 9.115L18 7.812 5.938 9.115c3.656 3.667 4.844 7.917 4.844 7.917l4.437.892 9.501.014c-.001 0 1.53-5.782 4.968-8.823z" fill="#D93047"></path><path d="M29.306 9.435c1.281-1.263-4.775-1.821-9.587-1.821-4.812 0-8.359 1.052-8.359 1.052s-5.092.784-4.395 1.557c.988 1.094 2.2 3.153 2.2 3.153s4.757 2.405 8.351-.626c2.5 1.5 6 .969 7.562-1.609 0 0 1.217.453 2.451.531 0 0 .953-1.425 1.777-2.237z" fill="#C02334"></path><path d="M29.609 15.646c-1.749 1.262-2.091-.253-3.685-.253-1.115 0-1.231.606-2.789 1.328-.957.444-2.326-.764-3.176-.764-1.15 0-2.217 1.553-3.719.73-.84-.46-1.487-1.259-2.623-1.229-1.955.052-1.914.954-3.652.664-4.48-.749-4.355-2.374-4.355-2.374l-.658 4.233h9.382l3.792 1.798 4.458-1.798h5.493s.641-.178 1.094-.342c1.584-.571 1.773-2.956.438-1.993z" fill="#FFCB4C"></path><path d="M31.125 3.725c-.24 0-.467.045-.686.109a3.728 3.728 0 00-2.898-1.396c-.087 0-.169.02-.255.026a3.983 3.983 0 00-2.987-1.359c-1.505 0-2.8.839-3.486 2.066a2.236 2.236 0 00-3.825-.492 3.738 3.738 0 00-3.53-2.532c-1.323 0-2.48.689-3.148 1.723-.184-.029-.368-.058-.56-.058-1.432 0-2.661.812-3.293 1.992a3.377 3.377 0 00-.624-.063 3.375 3.375 0 100 6.75 3.31 3.31 0 001.614-.425c.376.282.838.456 1.345.456.145 0 .285-.016.422-.043a4.825 4.825 0 004.109 2.303 4.852 4.852 0 004.073-2.217 3.901 3.901 0 003.029 1.457 3.914 3.914 0 003.776-2.911c.034.001.065.01.099.01.283 0 .559-.031.826-.087a3.718 3.718 0 002.417.904c1.174 0 2.21-.551 2.897-1.396.219.064.446.109.686.109a2.463 2.463 0 10-.001-4.926z" fill="#E8596E"></path><path d="M27.795 7.888a2.121 2.121 0 100-4.242 2.121 2.121 0 000 4.242zM19.876 5.903a2.16 2.16 0 00-2.16-2.161c-.368 0-.71.101-1.013.263a1.665 1.665 0 00-2.905-.306 3.73 3.73 0 00-2.548-1.013 3.741 3.741 0 00-3.625 2.838 2.012 2.012 0 10-1.429 3.429c.703 0 1.319-.361 1.679-.907a3.74 3.74 0 002.749 2.079 2.24 2.24 0 004.131-.635c.324.18.691.292 1.087.292 1.07 0 1.962-.749 2.19-1.75a2.155 2.155 0 001.844-2.129z" fill="#F3AAB9"></path></svg>