<svg class="md:w-10 md:h-10 sm:w-8 sm:h-8 w-6 h-6" viewBox="0 0 36 36"><path d="M7.119 22.17c1.968-.502 2.974-3.224 2.246-6.079-.728-2.855-2.913-4.763-4.882-4.261-1.968.502-2.974 3.223-2.246 6.078.728 2.855 2.913 4.763 4.882 4.261zM33.764 17.91c.728-2.856-.278-5.577-2.247-6.079-1.968-.502-4.154 1.406-4.881 4.262-.728 2.855.278 5.576 2.246 6.078 1.968.501 4.154-1.406 4.882-4.262z" fill="#D79E84"></path><path d="M18.985 35h-1.97c-6.5 0-12.803-4.982-12.803-11.956 0-3.985 1.477-5.978 1.477-5.978s-.492-1.993-.492-3.985C5.197 7.103 11.5 2.121 18 2.121c6.5 0 12.803 5.978 12.803 10.96 0 1.993-.492 3.985-.492 3.985s1.477 1.993 1.477 5.978C31.788 30.018 25.485 35 18.985 35z" fill="#BF6952"></path><path d="M22.242.17s-5.303-1.061-7.424 2.121c-2.121 3.182 4.242 1.061 4.242 1.061S20.121.17 22.242.17z" fill="#BF6952"></path><path d="M29.667 15.379a6.895 6.895 0 00-6.894-6.894A6.87 6.87 0 0018 10.411a6.865 6.865 0 00-4.773-1.926 6.895 6.895 0 00-6.894 6.894 6.881 6.881 0 002.882 5.599 10.532 10.532 0 00-.761 3.946c0 5.565 4.274 9.015 9.545 9.015s9.545-3.45 9.545-9.015c0-1.401-.272-2.734-.761-3.946a6.878 6.878 0 002.884-5.599z" fill="#D79E84"></path></svg>