<svg class="md:w-10 md:h-10 sm:w-8 sm:h-8 w-6 h-6" viewBox="0 0 36 36"><path d="M10 25c0-2.209-.896-4-2-4s-2-2-2 3c0 2.209 1 5 3 5 1.104 0 1 0 1-4zm16.003 0c0-2.209.896-4 2-4 1.105 0 2-2 2 3 0 2.209-1 5-3 5-1.105 0-1 0-1-4z" fill="#D1D3D4"></path><path d="M6 18.562c0-8.526 5.373-15.438 12-15.438s12 6.912 12 15.438C30 28 23 34 18 34S6 28 6 18.562z" fill="#FFDC5D"></path><path d="M7 18c1.105 0 2-1.79 2-4s-.895-4-2-4-2 1.79-2 4 .895 4 2 4z" fill="#D1D3D4"></path><path d="M8 21c0 2.209-1.119 4-2.5 4S3 23.209 3 21s1.119-4 2.5-4S8 18.791 8 21z" fill="#FFDC5D"></path><path d="M29 18c1.105 0 2-1.79 2-4s-.895-4-2-4-2 1.79-2 4 .895 4 2 4z" fill="#D1D3D4"></path><path d="M33 21c0 2.209-1.119 4-2.5 4S28 23.209 28 21s1.119-4 2.5-4 2.5 1.791 2.5 4z" fill="#FFDC5D"></path><path d="M30.961 10c.016-.185.039-.368.039-.556C31 4.229 25.175 0 17.989 0 10.803 0 4.978 4.229 4.978 9.444c0 .188.024.371.039.556h25.944z" fill="#DD2E44"></path><path d="M18 15a4 4 0 100-8 4 4 0 000 8z" fill="#F1F2F2"></path><path d="M11.5 15a3.5 3.5 0 100-7 3.5 3.5 0 000 7z" fill="#F1F2F2"></path><path d="M6 15a3 3 0 100-6 3 3 0 000 6zM24.5 15a3.5 3.5 0 100-7 3.5 3.5 0 000 7z" fill="#F1F2F2"></path><path d="M30 15a3 3 0 100-6 3 3 0 000 6z" fill="#F1F2F2"></path><path d="M33 12c0-1.657-30-1.657-30 0a3 3 0 003 3h24a3 3 0 003-3z" fill="#F1F2F2"></path></svg>