<svg class="md:w-10 md:h-10 sm:w-8 sm:h-8 w-6 h-6" viewBox="0 0 36 36"><path d="M35 17c0 9.389-7.611 17-17 17-9.388 0-17-7.611-17-17C1 7.612 8.612 0 18 0c9.389 0 17 7.612 17 17z" fill="#FFCB4C"></path><path d="M25.712 32.287v-7.101c0-2.593-3.889-5.185-7.778-5.185s-7.778 2.593-7.778 5.185v7.101c-4.403.349-7.359.985-7.359 1.713 0 1.105 6.777 2 15.137 2s15.137-.895 15.137-2c0-.728-2.956-1.364-7.359-1.713z" fill="#77AF57"></path><path d="M15.875 24.463a1.235 1.235 0 100-2.47 1.235 1.235 0 000 2.47zM20.698 26.875a1.235 1.235 0 100-2.47 1.235 1.235 0 000 2.47zM22.452 30.712a1.235 1.235 0 10-2.438-.396 1.235 1.235 0 002.438.396zM16.85 32.83a1.765 1.765 0 10-3.485-.565 1.765 1.765 0 003.484.566z" fill="#5D8F3F"></path></svg>