<svg xmlns="http://www.w3.org/2000/svg" class="md:w-10 md:h-10 sm:w-8 sm:h-8 w-6 h-6" viewBox="0 0 36 36"><path d="M13.496 14.984l-2.38-.506a3.05 3.05 0 00-3.607 2.342 3.05 3.05 0 002.342 3.607l2.38.506a3.05 3.05 0 003.607-2.342 3.05 3.05 0 00-2.342-3.607zm9.008-.239l2.38-.506a3.05 3.05 0 013.607 2.342 3.05 3.05 0 01-2.342 3.607l-2.38.506a3.05 3.05 0 01-3.607-2.342 3.05 3.05 0 012.342-3.607z" fill="#55ACEE"></path><path d="M13.737 15.47l-1.956-.416a2.507 2.507 0 00-2.965 1.926 2.507 2.507 0 001.926 2.965l1.956.416a2.507 2.507 0 002.965-1.926 2.509 2.509 0 00-1.926-2.965z" fill="#FFCC4D"></path><path d="M12.739 19.208a1.5 1.5 0 100-3 1.5 1.5 0 000 3z" fill="#292F33"></path><path d="M22.263 15.47l1.956-.416a2.507 2.507 0 012.965 1.926 2.507 2.507 0 01-1.925 2.965l-1.956.416a2.507 2.507 0 01-2.965-1.926 2.507 2.507 0 011.925-2.965z" fill="#FFCC4D"></path><path d="M23.261 19.208a1.5 1.5 0 100-3 1.5 1.5 0 000 3zM15 16c-4.254 0-7.422-2.08-7.555-2.168a1 1 0 011.108-1.666C8.581 12.185 11.372 14 15 14a1 1 0 010 2zm6 0a1 1 0 110-2c3.655 0 6.418-1.814 6.445-1.832a1 1 0 111.11 1.664C28.422 13.92 25.254 16 21 16z" fill="#292F33"></path></svg>