<svg xmlns="http://www.w3.org/2000/svg" class="md:w-10 md:h-10 sm:w-8 sm:h-8 w-6 h-6" viewBox="0 0 36 36"><path d="M36 36l-14-4 3-6 11 2v8zM0 36l14-4-3-6-11 2v8z" fill="#BF6952"></path><path d="M12.369 25.001s.118-1.26.094-2.719c-.031-1.906-2.582-2.852-3.375-1.062-.969 2.188-2.188 7.438-1.469 9.656.719 2.218 2.531 3.969 6.594 3.844 4.063-.125 7.594-.906 8.688-1.594 1.094-.688.845-2.378-.406-2.656-1.125-.25-4.219.25-4.219.25s3.253-.694 4.156-1.281c1.25-.812.562-2.594-.656-2.625-1.202-.031-4.188.469-4.188.469s2.844-.75 3.75-1.531c.895-.771.562-2.469-1.031-2.531-1.593-.062-6.438.967-7.938 1.78z" fill="#D79E84"></path><path d="M13.806 35.227c-3.52 0-5.76-1.411-6.662-4.196-.806-2.487.56-7.919 1.487-10.013.418-.946 1.3-1.411 2.297-1.205.995.201 2.013 1.111 2.035 2.462.012.744-.011 1.432-.038 1.937 2.056-.774 5.966-1.559 7.401-1.491.911.036 1.618.522 1.89 1.302a1.947 1.947 0 01-.799 2.295c.135-.004.261-.005.371-.003.803.021 1.498.589 1.731 1.414.235.834-.077 1.65-.815 2.13a2.17 2.17 0 01-.185.107l.083.017a1.882 1.882 0 011.462 1.546 1.978 1.978 0 01-.898 2.021c-1.131.712-4.648 1.539-8.938 1.671-.143.003-.284.006-.422.006zm-3.318-14.459c-.294 0-.703.111-.943.654-1.014 2.29-2.093 7.314-1.45 9.3.796 2.456 2.794 3.616 6.103 3.498 3.912-.12 7.424-.881 8.437-1.517a.976.976 0 00.444-1.006.885.885 0 00-.693-.739c-.848-.188-3.196.121-4.031.255a.5.5 0 01-.184-.982c.88-.188 3.312-.771 3.988-1.211.523-.34.452-.827.397-1.021-.091-.322-.378-.675-.794-.686-1.174-.049-4.063.457-4.092.462a.5.5 0 01-.21-.977c.76-.201 2.88-.849 3.551-1.427a.944.944 0 00.261-1.021c-.079-.225-.312-.605-.985-.632-1.452-.06-6.245.944-7.68 1.721a.502.502 0 01-.737-.486c.001-.012.115-1.251.092-2.664a1.56 1.56 0 00-1.234-1.498 1.257 1.257 0 00-.24-.023z" fill="#BF6952"></path><path d="M23.631 25.001s-.118-1.26-.094-2.719c.031-1.906 2.582-2.852 3.375-1.062.969 2.188 2.188 7.438 1.469 9.656-.719 2.218-2.531 3.969-6.594 3.844-4.063-.125-7.594-.906-8.688-1.594-1.094-.688-.845-2.378.406-2.656 1.125-.25 4.219.25 4.219.25s-3.253-.694-4.156-1.281c-1.25-.812-.562-2.594.656-2.625 1.202-.031 4.188.469 4.188.469s-2.844-.75-3.75-1.531c-.895-.771-.562-2.469 1.031-2.531 1.593-.062 6.438.967 7.938 1.78z" fill="#D79E84"></path><path d="M22.194 35.227c-.139 0-.279-.003-.423-.007-4.29-.132-7.807-.959-8.938-1.671a1.978 1.978 0 01-.897-2.021 1.88 1.88 0 011.461-1.546l.083-.017a2.501 2.501 0 01-.184-.107c-.739-.479-1.051-1.296-.815-2.13.233-.825.929-1.394 1.731-1.414.111-.002.236-.001.371.003a1.951 1.951 0 01-.8-2.295c.272-.779.979-1.266 1.89-1.302 1.433-.049 5.346.718 7.401 1.491a29.057 29.057 0 01-.038-1.937c.022-1.35 1.04-2.261 2.034-2.462 1.004-.206 1.879.259 2.298 1.205.928 2.094 2.293 7.525 1.487 10.013-.901 2.785-3.141 4.196-6.661 4.197zm-7.824-4.329c-.304 0-.567.018-.755.06a.885.885 0 00-.693.739.975.975 0 00.444 1.006c1.012.636 4.525 1.396 8.437 1.517 3.3.101 5.308-1.042 6.103-3.498.644-1.985-.437-7.01-1.45-9.3-.319-.72-.933-.681-1.185-.63a1.559 1.559 0 00-1.233 1.498c-.022 1.413.091 2.652.092 2.665a.498.498 0 01-.223.463.497.497 0 01-.514.022c-1.435-.776-6.187-1.786-7.68-1.721-.674.026-.907.407-.985.632a.945.945 0 00.261 1.021c.671.579 2.791 1.227 3.551 1.427a.5.5 0 01-.211.977c-.03-.005-2.962-.493-4.092-.462-.416.011-.704.363-.795.686a.88.88 0 00.398 1.021c.677.439 3.108 1.023 3.988 1.211a.5.5 0 01-.184.982c-.648-.106-2.213-.316-3.274-.316z" fill="#BF6952"></path><path d="M9.643 21.265c-.29-.199-.561-.403-.809-.613a2.384 2.384 0 00-.204.366c-.532 1.201-1.203 3.497-1.531 5.708l-2.148.45 2.998.879.155-1.268c.296-1.973.875-4.091 1.439-5.365.03-.065.068-.104.1-.157zm19.273 5.558c-.322-2.24-1.007-4.587-1.547-5.805a2.268 2.268 0 00-.216-.381c-.254.216-.516.424-.789.624.031.051.063.1.091.161.688 1.554 1.405 4.366 1.594 6.634l3.021-.88-2.154-.353z" fill="#9B3C07"></path></svg>