<svg xmlns="http://www.w3.org/2000/svg" class="md:w-10 md:h-10 sm:w-8 sm:h-8 w-6 h-6" viewBox="0 0 36 36"><path d="M16.65 3.281a4.666 4.666 0 00-8.884.254 4.666 4.666 0 00-4.225-.58A4.67 4.67 0 00.692 8.911c.122.344.284.663.472.958 1.951 3.582 7.588 6.1 11.001 6.131 2.637-2.167 5.446-7.665 4.718-11.677a4.712 4.712 0 00-.233-1.042zm2.7 0a4.67 4.67 0 015.956-2.85 4.67 4.67 0 012.929 3.104 4.666 4.666 0 014.225-.58 4.671 4.671 0 012.85 5.956 4.72 4.72 0 01-.473.958c-1.951 3.582-7.588 6.1-11.002 6.131-2.637-2.167-5.445-7.665-4.717-11.677.037-.348.112-.698.232-1.042z" fill="#DD2E44"></path></svg>
