<svg xmlns="http://www.w3.org/2000/svg" class="md:w-10 md:h-10 sm:w-8 sm:h-8 w-6 h-6" viewBox="0 0 36 36"><path d="M6.874 23.245c.598-1.293.876-2.323.876-3.245 0-1.308-.604-2.56-1.09-3.566-.274-.568-.557-1.156-.557-1.434 0-.193.142-.793.267-1.323.387-1.636.868-3.673.263-4.649a1.065 1.065 0 00-.942-.528C3.74 8.5.75 12.756.75 18c0 2.576.174 4.177.555 5.112L.5 36h7l-.837-12.441c.085-.093.157-.197.211-.314z" fill="#BF6952"></path><path d="M6.874 23.245c.598-1.293.876-2.323.876-3.245 0-1.308-.604-2.56-1.09-3.566-.274-.568-.557-1.156-.557-1.434 0-.193.142-.793.267-1.323.387-1.636.868-3.673.263-4.649a1.226 1.226 0 00-.277-.303c-.734 1.341-1.159 2.814-1.159 4.356 0 1.992-.197 5.978-.197 9.963C5 23.359 7 36 7 36h.5l-.839-12.469c.079-.089.162-.175.213-.286z" fill="#9B3C07"></path><path d="M5.691 9.5c-1.373 0-4.118 3.675-4.118 8.5 0 2.542.185 4.174.55 4.851.255.475.985.47 1.688.463l.232-.001c1.16 0 1.985-.283 2.112-.558.519-1.121.771-2.023.771-2.755 0-1.036-.519-2.112-.977-3.061-.374-.776-.67-1.389-.67-1.939 0-.318.108-.791.299-1.599.264-1.116.755-3.194.396-3.771-.023-.039-.08-.13-.283-.13z" fill="#D79E84"></path><path d="M35.5 36l-.805-12.888c.381-.935.555-2.535.555-5.112 0-5.244-2.99-9.5-4.941-9.5-.508 0-.792.287-.942.528-.606.976-.124 3.013.263 4.649.125.53.267 1.13.267 1.323 0 .278-.283.866-.557 1.434-.486 1.006-1.09 2.259-1.09 3.566 0 .922.278 1.952.877 3.245.054.117.126.221.211.314L28.5 36h7z" fill="#BF6952"></path><path d="M31 23.044c0-3.985-.197-7.971-.197-9.963 0-1.374-.493-2.822-1.324-4.201-.042.05-.082.1-.112.148-.606.976-.124 3.013.263 4.649.125.53.267 1.13.267 1.323 0 .278-.283.866-.557 1.434-.486 1.006-1.09 2.259-1.09 3.566 0 .922.278 1.952.877 3.245.051.11.134.197.213.286L28.5 36h.5s2-12.641 2-12.956z" fill="#9B3C07"></path><path d="M30.309 9.5c-.203 0-.26.091-.284.13-.358.577.133 2.655.396 3.771.191.808.299 1.281.299 1.599 0 .55-.296 1.163-.67 1.939-.458.949-.977 2.025-.977 3.061 0 .732.252 1.634.77 2.755.127.274.951.558 2.112.558l.232.001c.702.007 1.432.012 1.689-.463.365-.676.55-2.308.55-4.851 0-4.825-2.744-8.5-4.117-8.5z" fill="#D79E84"></path></svg>