<svg xmlns="http://www.w3.org/2000/svg" class="md:w-10 md:h-10 sm:w-8 sm:h-8 w-6 h-6" viewBox="0 0 36 36"><path d="M29.001 14a.998.998 0 01-.801-.4c-2.432-3.244-6.514-.846-6.686-.743a1 1 0 11-1.029-1.715c1.998-1.199 6.514-2.477 9.314 1.257A1 1 0 0129.001 14zM6.999 14a1 1 0 01-.799-1.6c2.801-3.734 7.317-2.456 9.314-1.257a1 1 0 01-1.027 1.716c-.179-.106-4.274-2.475-6.688.742a.997.997 0 01-.8.399zM29 16a1 1 0 00-1-1h-7a1 1 0 100 2h5.092a1.496 1.496 0 002.872-.821c.012-.06.036-.116.036-.179zm-13 0a1 1 0 00-1-1H8a1 1 0 000 2h5.092a1.496 1.496 0 002.872-.821c.011-.06.036-.116.036-.179z" fill="#664500"></path></svg>