<svg xmlns="http://www.w3.org/2000/svg" class="md:w-10 md:h-10 sm:w-8 sm:h-8 w-6 h-6" viewBox="0 0 36 36"><path d="M21.229 3.947c0 .24.03.472.082.696.425 2.643 3.364 5.431 5.47 6.197 1.665-.605 3.846-2.476 4.898-4.539A18.027 18.027 0 0023.75.939a3.059 3.059 0 00-2.521 3.008zm-7.486 25.131c.057-.242.09-.494.09-.754a3.319 3.319 0 00-3.319-3.319 3.312 3.312 0 00-2.697 1.389 3.314 3.314 0 00-2.697-1.389 3.304 3.304 0 00-2.88 1.698 18.071 18.071 0 008.068 7.574c1.637-1.351 3.131-3.307 3.435-5.199zm20.558-3.436a2.29 2.29 0 00-4.062-.685 2.299 2.299 0 00-4.105 1.859c.307 1.905 2.348 3.896 3.909 4.561a18.045 18.045 0 004.258-5.735z" fill="#FFAC33"></path><path d="M33.625 3.269A3.063 3.063 0 0030.562.206a3.057 3.057 0 00-2.489 1.282 3.063 3.063 0 00-5.47 2.477c.426 2.643 3.364 5.431 5.47 6.197 2.106-.766 5.044-3.554 5.469-6.196.053-.225.083-.457.083-.697zM12.208 28.408a3.319 3.319 0 00-3.319-3.319 3.312 3.312 0 00-2.697 1.389 3.311 3.311 0 00-2.697-1.389 3.319 3.319 0 00-3.23 4.073c.461 2.863 3.644 5.884 5.926 6.714 2.282-.829 5.465-3.85 5.926-6.713.058-.244.091-.496.091-.755zm23.74-2.281a2.299 2.299 0 00-4.167-1.337 2.299 2.299 0 00-4.105 1.859c.319 1.983 2.524 4.076 4.105 4.65 1.58-.574 3.786-2.667 4.104-4.65.04-.168.063-.342.063-.522z" fill="#DD2E44"></path></svg>