<svg xmlns="http://www.w3.org/2000/svg" class="md:w-10 md:h-10 sm:w-8 sm:h-8 w-6 h-6" viewBox="0 0 36 36"><path d="M16 19c-.419 0-.809-.265-.949-.684C14.848 17.717 14.034 16 13 16c-1.062 0-1.888 1.827-2.051 2.316a.999.999 0 11-1.897-.633C9.177 17.307 10.356 14 13 14s3.823 3.307 3.949 3.684A1 1 0 0116 19zm10 0a.999.999 0 01-.948-.684C24.849 17.717 24.033 16 23 16c-1.062 0-1.889 1.827-2.052 2.316a1 1 0 11-1.897-.633C19.177 17.307 20.355 14 23 14c2.645 0 3.823 3.307 3.948 3.684A1 1 0 0126 19z" fill="#664500"></path></svg>