<svg xmlns="http://www.w3.org/2000/svg" class="md:w-10 md:h-10 sm:w-8 sm:h-8 w-6 h-6" viewBox="0 0 36 36"><g clip-path="url(#prefix__clip0)"><path d="M24.882 21.176a6.882 6.882 0 100-13.764 6.882 6.882 0 000 13.764z" fill="#F4F7F9"></path><path d="M32.824 36a1.059 1.059 0 01-1.059-1.059V14.824a1.059 1.059 0 112.118 0v20.118A1.06 1.06 0 0132.824 36z" fill="#292F33"></path><path d="M32.824 12.706c-.054 0-.105.012-.158.016-.732-3.628-3.943-6.369-7.784-6.369-4.379 0-7.941 3.562-7.941 7.941s3.562 7.941 7.941 7.941c3.468 0 6.416-2.238 7.496-5.343a2.118 2.118 0 10.446-4.186zm-7.942 7.412a5.83 5.83 0 01-5.823-5.824 5.83 5.83 0 015.823-5.824 5.83 5.83 0 015.824 5.824 5.83 5.83 0 01-5.824 5.824z" fill="#67757F"></path><path d="M28.049 9.411a5.788 5.788 0 00-3.167-.94 5.824 5.824 0 00-5.824 5.824c0 1.169.348 2.255.94 3.167l8.051-8.051zm-5.652 10.144a5.794 5.794 0 002.485.563 5.824 5.824 0 005.824-5.824c0-.89-.206-1.731-.563-2.485l-7.746 7.746z" fill="#BDDDF4"></path></g><defs><clipPath id="prefix__clip0"><path fill="#fff" d="M0 0h36v36H0z"></path></clipPath></defs></svg>