<svg xmlns="http://www.w3.org/2000/svg" class="md:w-10 md:h-10 sm:w-8 sm:h-8 w-6 h-6" viewBox="0 0 36 36"><path d="M11.5 19c1.38 0 2.5-1.567 2.5-3.5S12.88 12 11.5 12 9 13.567 9 15.5s1.12 3.5 2.5 3.5zM28.457 17.797c-.06-.135-1.499-3.297-4.457-3.297-2.957 0-4.397 3.162-4.457 3.297a.503.503 0 00.755.605c.012-.009 1.262-.902 3.702-.902 2.426 0 3.674.881 3.702.901a.498.498 0 00.755-.604zM5.999 11A1 1 0 015.2 9.4C8.462 5.05 12.816 5 13 5a1 1 0 01.004 2c-.155.002-3.568.086-6.204 3.6a.998.998 0 01-.801.4zm23.002 3a.998.998 0 01-.801-.4c-2.592-3.456-6.961-2.628-7.004-2.62a.998.998 0 01-1.177-.784 1.001 1.001 0 01.784-1.177c.231-.047 5.657-1.072 8.996 3.38A1 1 0 0129.001 14z" fill="#664500"></path></svg>