<svg xmlns="http://www.w3.org/2000/svg" class="md:w-10 md:h-10 sm:w-8 sm:h-8 w-6 h-6" viewBox="0 0 36 36"><path d="M31.95 5.13c-1.19 1.441-3.182 1.951-5.076 2.121C26.556 5.713 25.19 0 22.45 0c-2.403 0-3.27 1.091-4.5 1.091-1.231 0-2.097-1.091-4.5-1.091-2.741 0-4.106 5.713-4.424 7.251C7.132 7.081 5.14 6.57 3.95 5.13c-2.153-2.606-5-.686-3.558 2.174C2.67 11.821 8.18 15 17.95 15c9.769 0 15.279-3.179 17.558-7.696 1.442-2.86-1.405-4.78-3.558-2.174z" fill="#664500"></path><path d="M21.45 2c-1.87 0-2.543.964-3.5.964-.957 0-1.631-.964-3.5-.964-2.463 0-3.5 6.75-3.5 6.75s1.282 2.25 7 2.25c5.719 0 7-2.25 7-2.25S23.913 2 21.45 2z" fill="#825D0E"></path><path d="M10.95 5s2.074 2 7 2c4.927 0 7-2 7-2v2s-2.222 2-7 2c-4.778 0-7-2-7-2V5z" fill="#664500"></path></svg>