<svg xmlns="http://www.w3.org/2000/svg" class="md:w-10 md:h-10 sm:w-8 sm:h-8 w-6 h-6" viewBox="0 0 36 36"><path d="M10 27.004h15.001v-3L10 24.001c-1 0-1 1.003-1 1.003v1s0 1 1 1z" fill="#664500"></path><path d="M35.255 26.084l-7.713-2.121c-.72-.197-1.049.287-1.171.547l-1.64-.784L24 25.255v-2.254h-2v2h-2v-2h-2.001v2H16v-2h-2v2h-2v-2h-2v3h2v2h2v-2h1.999v2h2v-2H20v2h2v-2h1.643l-.58 1.212 1.648.788-.099.207s-.248.737.373 1.275c.621.537 5.285 4.735 5.285 4.735s.899.866 1.769.079c.738-.67 3.649-6.02 3.914-6.983.266-.964-.698-1.23-.698-1.23zm-3.772 6.071l-2.644-2.248 1.614-3.069 3.338 1.132-2.308 4.185z" fill="#99AAB5"></path></svg>