<svg xmlns="http://www.w3.org/2000/svg" class="md:w-10 md:h-10 sm:w-8 sm:h-8 w-6 h-6" viewBox="0 0 36 36"><path d="M30.961 10c.016-.185.039-.368.039-.556C31 4.229 25.175 0 17.989 0 10.803 0 4.978 4.229 4.978 9.444c0 .188.024.371.039.556h25.944z" fill="#DD2E44"></path><path d="M18 15a4 4 0 100-8 4 4 0 000 8z" fill="#F1F2F2"></path><path d="M11.5 15a3.5 3.5 0 100-7 3.5 3.5 0 000 7z" fill="#F1F2F2"></path><path d="M6 15a3 3 0 100-6 3 3 0 000 6zM24.5 15a3.5 3.5 0 100-7 3.5 3.5 0 000 7z" fill="#F1F2F2"></path><path d="M30 15a3 3 0 100-6 3 3 0 000 6z" fill="#F1F2F2"></path><path d="M33 12c0-1.657-30-1.657-30 0a3 3 0 003 3h24a3 3 0 003-3z" fill="#F1F2F2"></path></svg>