<svg xmlns="http://www.w3.org/2000/svg" class="md:w-10 md:h-10 sm:w-8 sm:h-8 w-6 h-6" viewBox="0 0 36 36"><path d="M27.335 23.629a.501.501 0 00-.635-.029c-.039.029-3.922 2.9-8.7 2.9-4.766 0-8.662-2.871-8.7-2.9a.5.5 0 00-.729.657C8.7 24.472 11.788 29.5 18 29.5s9.301-5.028 9.429-5.243a.499.499 0 00-.094-.628z" fill="#664500"></path><path d="M18 26.591c-.148 0-.291-.011-.438-.016v4.516h.875v-4.517c-.145.005-.289.017-.437.017z" fill="#65471B"></path><path d="M22 26c.016-.004-1.45.378-2.446.486-.366.042-.737.076-1.117.089v4.517H20c1.1 0 2-.9 2-2V26zm-8 0c-.016-.004 1.45.378 2.446.486.366.042.737.076 1.117.089v4.517H16c-1.1 0-2-.9-2-2V26z" fill="#fff"></path><path d="M26.7 23.6a.501.501 0 01.73.657c-.097.162-1.885 3.067-5.429 4.481v-1.829c.016-.004-1.45.378-2.446.486-.366.043-.737.076-1.117.089-.147.005-.29.016-.438.016-.148 0-.291-.011-.437-.016-.38-.013-.751-.047-1.117-.089-.985-.107-2.43-.482-2.446-.486v1.829c-3.544-1.414-5.332-4.319-5.429-4.481A.499.499 0 019.3 23.6c.03.022 2.259 1.668 5.411 2.47.443.113 1.868.431 3.292.431 1.422-.001 2.843-.318 3.286-.431 3.135-.798 5.357-2.43 5.41-2.47h.001z" fill="#65471B"></path></svg>