<svg xmlns="http://www.w3.org/2000/svg" class="md:w-10 md:h-10 sm:w-8 sm:h-8 w-6 h-6" viewBox="0 0 36 36"><g clip-path="url(#prefix__clip0)"><path d="M24.985 21.833a4 4 0 010 8h-14a4 4 0 010-8h14z" fill="#fff"></path><path d="M24.985 20.812h-14c-2.757 0-5 2.243-5 5s2.243 5 5 5h14c2.757 0 5-2.243 5-5s-2.243-5-5-5zm0 2a2.997 2.997 0 012.949 2.5h-3.449v-2.5h.5zm-1.5 0v2.5h-3v-2.5h3zm-4 0v2.5h-3v-2.5h3zm-4 0v2.5h-3v-2.5h3zm-4.5 0h.5v2.5h-3.45a3 3 0 012.95-2.5zm0 6a2.997 2.997 0 01-2.949-2.5h3.449v2.5h-.5zm1.5 0v-2.5h3v2.5h-3zm4 0v-2.5h3v2.5h-3zm4 0v-2.5h3v2.5h-3zm4.5 0h-.5v-2.5h3.449a2.997 2.997 0 01-2.949 2.5z" fill="#1C6399"></path></g><defs><clipPath id="prefix__clip0"><path fill="#fff" d="M0 0h36v36H0z"></path></clipPath></defs></svg>