<svg xmlns="http://www.w3.org/2000/svg" class="md:w-10 md:h-10 sm:w-8 sm:h-8 w-6 h-6" viewBox="0 0 36 36"><path d="M5.999 11A1 1 0 015.2 9.4C8.462 5.05 12.816 5 13 5a1 1 0 01.004 2c-.155.002-3.568.086-6.204 3.6a.998.998 0 01-.801.4zm24.002 0a.998.998 0 01-.801-.4c-2.64-3.521-6.061-3.598-6.206-3.6a1.002 1.002 0 01-.991-1.005A.997.997 0 0123 5c.184 0 4.537.05 7.8 4.4a1 1 0 01-.799 1.6zm-16.087 4.5l1.793-1.793a.999.999 0 10-1.414-1.414L12.5 14.086l-1.793-1.793a.999.999 0 10-1.414 1.414l1.793 1.793-1.793 1.793a.999.999 0 101.414 1.414l1.793-1.793 1.793 1.793a.997.997 0 001.414 0 .999.999 0 000-1.414L13.914 15.5zm11 0l1.793-1.793a.999.999 0 10-1.414-1.414L23.5 14.086l-1.793-1.793a.999.999 0 10-1.414 1.414l1.793 1.793-1.793 1.793a.999.999 0 101.414 1.414l1.793-1.793 1.793 1.793a.997.997 0 001.414 0 .999.999 0 000-1.414L24.914 15.5z" fill="#664500"></path></svg>