<svg xmlns="http://www.w3.org/2000/svg" class="md:w-10 md:h-10 sm:w-8 sm:h-8 w-6 h-6" viewBox="0 0 36 36"><path d="M9 21c2.973.578 5.377 1 9 1s6.027-.422 9-1c.679-.132 2 0 2 2 0 4-4.596 9-11 9-6.405 0-11-5-11-9 0-2 1.321-2.131 2-2z" fill="#664500"></path><path d="M9 23s3 1 9 1 9-1 9-1-1.344 6.75-9 6.75S9 23 9 23z" fill="#fff"></path><path d="M18 27.594c-3.596 0-6.272-.372-7.937-.745l-.825-1.871c.823.312 3.889.897 8.763.897 4.954 0 8.037-.616 8.864-.938l-.701 1.842c-1.634.38-4.419.815-8.164.815z" fill="#664500"></path></svg>