<svg xmlns="http://www.w3.org/2000/svg" class="md:w-10 md:h-10 sm:w-8 sm:h-8 w-6 h-6" viewBox="0 0 36 36"><path d="M16 18c-.419 0-.809-.265-.949-.684C14.848 16.717 14.034 15 13 15c-1.062 0-1.888 1.827-2.051 2.316a1 1 0 11-1.897-.633C9.177 16.307 10.356 13 13 13s3.823 3.307 3.949 3.684A1 1 0 0116 18zm10 0a.999.999 0 01-.948-.684C24.849 16.717 24.033 15 23 15c-1.062 0-1.889 1.827-2.052 2.316a1 1 0 01-1.897-.633C19.177 16.307 20.355 13 23 13c2.645 0 3.823 3.307 3.948 3.684A1 1 0 0126 18z" fill="#664500"></path></svg>