<svg xmlns="http://www.w3.org/2000/svg" class="md:w-10 md:h-10 sm:w-8 sm:h-8 w-6 h-6" viewBox="0 0 36 36"><path d="M29.969 22.243c-.005.02-.143.528-.466 1.277-.814 1.885-2.858 5.337-7.188 6.795C21.07 30.734 19.65 31 18 31c-9.669 0-11.948-8.67-11.97-8.758a1 1 0 011.94-.487C8.045 22.051 9.919 29 18 29s9.955-6.949 10.029-7.244a1 1 0 011.94.487z" fill="#664500"></path><path d="M33.175 27.309l-3.671-3.789c-.814 1.885-2.858 5.337-7.189 6.795L26 34c1.728 1.728 5 2 7 0s1.903-4.962.175-6.691z" fill="#E75A70"></path></svg>