<svg width="36" height="36" viewBox="0 0 36 36" fill="none" xmlns="http://www.w3.org/2000/svg">
<path d="M4 36C4 36 0 36 0 32V4C0 4 0 0 4 0H30C31 0 32 1 32 1L35 4C35 4 36 5 36 6V32C36 32 36 36 32 36H4Z" fill="#31373D"/>
<path d="M5 19V18C5 18 5 16 7 16H28C30 16 30 18 30 18V19H5Z" fill="#55ACEE"/>
<path d="M5 32.021V19H30V32C30 32 30 34 28 34H7C5 34 5 32.021 5 32.021ZM10 3C10 3 10 2 11 2H29C30.048 2 30 3 30 3V13C30 13 30 14 29 14H11C11 14 10 14 10 13V3ZM22 13H27V3H22V13Z" fill="#E1E8ED"/>
</svg>
