<svg width="36" height="36" viewBox="0 0 36 36" fill="none" xmlns="http://www.w3.org/2000/svg">
<path d="M1.06201 5.125C1.06201 5.125 5.93701 0.125 11.062 0.125C17.188 0.125 19 5.062 19 5.062C19 5.062 19.625 1.062 24 1.062C28.375 1.062 30.938 4.187 30.938 4.187C30.938 4.187 27.376 6.312 26.313 6.749C23.512 7.902 14.938 10.311 10.938 9.311C6.93801 8.311 1.06201 5.125 1.06201 5.125Z" fill="#5C913B"/>
<path d="M18 6C18 6 19.042 5.104 24 5.104C30.542 5.104 36 9.916 36 18.031C36 29.562 21.042 35.912 21.042 35.912C21.042 35.912 1 34.833 1 17.977C1 8.018 7.75 5 12 5C16.958 5 18 6 18 6Z" fill="#FF886C"/>
<path d="M1.06201 5.125C1.06201 5.125 5.93701 0.125 11.062 0.125C17.188 0.125 19 5.062 19 5.062C19 5.062 14.938 10.312 10.938 9.312C6.93801 8.312 1.06201 5.125 1.06201 5.125Z" fill="#77B255"/>
<path d="M22.999 30C22.809 30 22.616 29.945 22.445 29.832C21.985 29.525 21.861 28.905 22.168 28.445C22.183 28.423 24 25.538 24 19C24 12.555 19.422 8.818 19.375 8.781C18.944 8.436 18.874 7.807 19.219 7.376C19.565 6.945 20.194 6.875 20.625 7.22C20.844 7.395 26 11.604 26 19C26 26.22 23.921 29.422 23.832 29.555C23.64 29.844 23.322 30 22.999 30Z" fill="#DD2E44"/>
</svg>
