<svg width="36" height="36" viewBox="0 0 36 36" fill="none" xmlns="http://www.w3.org/2000/svg">
<path d="M18 36C27.9411 36 36 27.9411 36 18C36 8.05887 27.9411 0 18 0C8.05887 0 0 8.05887 0 18C0 27.9411 8.05887 36 18 36Z" fill="#77B255"/>
<path d="M26 18C26 24.048 28.792 28.221 31.802 29.546C34.42 26.42 36 22.396 36 18C36 13.604 34.42 9.57998 31.802 6.45398C28.792 7.77898 26 11.952 26 18Z" fill="#A6D388"/>
<path d="M27 18C27 11.952 28.792 7.77895 31.802 6.45395C31.357 5.92295 30.876 5.42595 30.374 4.94995C27.406 6.60495 25 10.578 25 18C25 25.421 27.406 29.3949 30.374 31.0499C30.876 30.5739 31.358 30.077 31.802 29.546C28.792 28.221 27 24.048 27 18Z" fill="white"/>
<path d="M10 18C10 11.952 7.208 7.77998 4.198 6.45398C1.58 9.57998 0 13.604 0 18C0 22.396 1.58 26.42 4.198 29.546C7.208 28.22 10 24.048 10 18Z" fill="#A6D388"/>
<path d="M4.198 6.45405C7.208 7.78005 9 11.952 9 18C9 24.048 7.208 28.22 4.198 29.546C4.643 30.077 5.124 30.573 5.626 31.05C8.593 29.395 11 25.421 11 18C11 10.579 8.594 6.60505 5.626 4.95105C5.124 5.42705 4.642 5.92305 4.198 6.45405Z" fill="white"/>
</svg>
