<svg width="36" height="36" viewBox="0 0 36 36" fill="none" xmlns="http://www.w3.org/2000/svg">
<path d="M18 36C27.9411 36 36 27.9411 36 18C36 8.05887 27.9411 0 18 0C8.05887 0 0 8.05887 0 18C0 27.9411 8.05887 36 18 36Z" fill="#31373D"/>
<path d="M18 27C22.9706 27 27 22.9706 27 18C27 13.0294 22.9706 9 18 9C13.0294 9 9 13.0294 9 18C9 22.9706 13.0294 27 18 27Z" fill="#E1E8ED"/>
<path d="M13.703 20.2029C13.703 18.7969 14.476 17.76 15.584 17.162C14.758 16.564 14.248 15.7559 14.248 14.6479C14.248 12.5909 15.953 11.2729 18.045 11.2729C20.084 11.2729 21.859 12.5739 21.859 14.6479C21.859 15.6319 21.367 16.617 20.505 17.162C21.7 17.76 22.386 18.8499 22.386 20.2029C22.386 22.6459 20.4 24.2109 18.044 24.2109C15.619 24.2109 13.703 22.5589 13.703 20.2029ZM16.445 20.0269C16.445 20.9229 16.972 21.7849 18.045 21.7849C19.047 21.7849 19.645 20.924 19.645 20.0269C19.645 18.92 19.012 18.2689 18.045 18.2689C17.025 18.2699 16.445 19.0429 16.445 20.0269ZM16.779 14.9299C16.779 15.7209 17.236 16.266 18.045 16.266C18.854 16.266 19.328 15.7209 19.328 14.9299C19.328 14.1739 18.871 13.5939 18.045 13.5939C17.219 13.5939 16.779 14.1739 16.779 14.9299Z" fill="#31373D"/>
</svg>
