<svg width="36" height="36" viewBox="0 0 36 36" fill="none" xmlns="http://www.w3.org/2000/svg">
<path d="M18 35.7999C17.61 35.7999 17.255 35.582 17.079 35.235L15.279 31.681L12.255 34.277C12.064 34.438 11.825 34.5239 11.583 34.5239C11.45 34.5239 11.316 34.499 11.189 34.4459C10.83 34.298 10.583 33.959 10.555 33.573L10.251 29.597L6.46295 30.8379C6.35795 30.872 6.24995 30.889 6.14195 30.889C5.87195 30.889 5.60995 30.783 5.41195 30.586C5.13795 30.313 5.04095 29.905 5.16195 29.535L6.40195 25.747L2.42995 25.4459C2.04295 25.4149 1.70395 25.1709 1.55495 24.812C1.40695 24.451 1.47195 24.04 1.72495 23.745L4.31895 20.721L0.764951 18.9209C0.417951 18.7449 0.199951 18.388 0.199951 18C0.199951 17.6119 0.417951 17.255 0.764951 17.079L4.31895 15.279L1.72495 12.255C1.47295 11.96 1.40695 11.547 1.55495 11.189C1.70395 10.83 2.04195 10.583 2.42995 10.555L6.40195 10.251L5.16195 6.46295C5.04095 6.09295 5.13795 5.68795 5.41195 5.41195C5.60995 5.21595 5.87195 5.11095 6.14195 5.11095C6.24995 5.11095 6.35795 5.12795 6.46295 5.16195L10.251 6.40195L10.555 2.42995C10.584 2.04195 10.83 1.70395 11.189 1.55495C11.316 1.50295 11.45 1.47695 11.583 1.47695C11.825 1.47695 12.064 1.56095 12.255 1.72495L15.279 4.31895L17.079 0.764951C17.255 0.417951 17.61 0.199951 18 0.199951C18.388 0.199951 18.745 0.417951 18.92 0.764951L20.722 4.31895L23.746 1.72495C23.936 1.56095 24.177 1.47695 24.417 1.47695C24.552 1.47695 24.6849 1.50295 24.813 1.55495C25.1709 1.70395 25.416 2.04195 25.447 2.42995L25.75 6.40195L29.535 5.16195C29.6399 5.12695 29.75 5.11095 29.856 5.11095C30.126 5.11095 30.3899 5.21595 30.5849 5.41195C30.8609 5.68795 30.958 6.09395 30.837 6.46295L29.596 10.251L33.5719 10.555C33.958 10.584 34.297 10.83 34.445 11.189C34.5929 11.547 34.5289 11.96 34.276 12.255L31.68 15.279L35.234 17.079C35.582 17.256 35.7999 17.6119 35.7999 18C35.7999 18.388 35.582 18.7439 35.235 18.9209L31.681 20.721L34.277 23.745C34.5299 24.04 34.5939 24.451 34.4459 24.812C34.298 25.17 33.959 25.4149 33.57 25.4459L29.597 25.747L30.8379 29.535C30.959 29.906 30.8619 30.312 30.586 30.586C30.391 30.783 30.1259 30.889 29.857 30.889C29.7509 30.889 29.6409 30.872 29.5359 30.8379L25.7509 29.597L25.448 33.57C25.417 33.959 25.1729 34.298 24.8139 34.4459C24.6849 34.499 24.552 34.5239 24.4179 34.5239C24.1779 34.5239 23.938 34.438 23.747 34.277L20.7229 31.681L18.9209 35.235C18.7449 35.582 18.388 35.7999 18 35.7999Z" fill="#F4900C"/>
<path d="M31 18C31 25.179 25.179 31 18 31C10.821 31 5 25.18 5 18C5 10.82 10.821 5 18 5C25.179 5 31 10.821 31 18Z" fill="#FFCC4D"/>
</svg>
