<svg width="36" height="36" viewBox="0 0 36 36" fill="none" xmlns="http://www.w3.org/2000/svg">
<path d="M32.664 8.519C29.364 5.134 23.42 4.75 18 4.75C12.58 4.75 6.636 5.134 3.336 8.519C0.582 11.344 0 15.751 0 19.791C0 25.054 1.982 31.102 6.357 34.035C9.364 36.051 13.95 35.871 18 35.871C22.05 35.871 26.636 36.051 29.643 34.035C34.018 31.101 36 25.054 36 19.791C36 15.751 35.418 11.344 32.664 8.519Z" fill="#F4900C"/>
<path d="M20.783 5.44401C20.852 5.86401 20.561 6.20801 20.136 6.20801H15.685C15.259 6.20801 14.968 5.86401 15.038 5.44401L15.783 0.972008C15.853 0.551008 16.259 0.208008 16.685 0.208008H19.136C19.562 0.208008 19.968 0.552008 20.037 0.972008L20.783 5.44401Z" fill="#3F7123"/>
</svg>
