<svg width="36" height="36" viewBox="0 0 36 36" fill="none" xmlns="http://www.w3.org/2000/svg">
<path d="M18 36C27.9411 36 36 27.9411 36 18C36 8.05887 27.9411 0 18 0C8.05887 0 0 8.05887 0 18C0 27.9411 8.05887 36 18 36Z" fill="#F4900C"/>
<path d="M36 17H27.019C27.207 11.494 28.962 7.705 31.803 6.454C31.358 5.923 30.877 5.427 30.375 4.95C27.545 6.528 25.23 10.223 25.021 16.999H19V0H17V17H10.979C10.771 10.224 8.456 6.529 5.626 4.951C5.124 5.427 4.642 5.923 4.198 6.454C7.039 7.705 8.793 11.494 8.981 17H0V19H8.981C8.793 24.506 7.039 28.295 4.198 29.546C4.643 30.077 5.124 30.573 5.626 31.05C8.457 29.472 10.771 25.777 10.979 19H17V36H19V19H25.021C25.23 25.776 27.544 29.471 30.375 31.05C30.877 30.574 31.359 30.077 31.803 29.546C28.962 28.295 27.208 24.506 27.019 19H36V17Z" fill="#231F20"/>
</svg>
