<svg width="36" height="36" viewBox="0 0 36 36" fill="none" xmlns="http://www.w3.org/2000/svg">
<path d="M33.5 18C34.8807 18 36 16.433 36 14.5C36 12.567 34.8807 11 33.5 11C32.1193 11 31 12.567 31 14.5C31 16.433 32.1193 18 33.5 18Z" fill="#F4900C"/>
<path d="M2.5 18C3.88071 18 5 16.433 5 14.5C5 12.567 3.88071 11 2.5 11C1.11929 11 0 12.567 0 14.5C0 16.433 1.11929 18 2.5 18Z" fill="#F4900C"/>
<path d="M34 19C34 19.553 33.553 20 33 20H30C29.447 20 29 19.553 29 19V10C29 9.448 29.447 9 30 9H33C33.553 9 34 9.448 34 10V19ZM7 19C7 19.553 6.552 20 6 20H3C2.448 20 2 19.553 2 19V10C2 9.448 2.448 9 3 9H6C6.552 9 7 9.448 7 10V19Z" fill="#FFAC33"/>
<path d="M28 5C28 7.761 23.522 9 18 9C12.477 9 8 7.761 8 5C8 2.239 12.477 0 18 0C23.522 0 28 2.239 28 5Z" fill="#FFCC4D"/>
<path d="M25 4.08302C25 5.69402 21.865 7.00002 18 7.00002C14.134 7.00002 11 5.69402 11 4.08302C11 2.47202 14.134 1.16602 18 1.16602C21.865 1.16602 25 2.47202 25 4.08302Z" fill="#F4900C"/>
<path d="M30 5.5C30 6.881 28.881 7 27.5 7H8.5C7.119 7 6 6.881 6 5.5C6 4.119 7.119 3 8.5 3H27.5C28.881 3 30 4.119 30 5.5Z" fill="#226699"/>
<path d="M30 6H6C4.896 6 4 6.896 4 8V34H32V8C32 6.896 31.104 6 30 6Z" fill="#55ACEE"/>
<path d="M35 33V32C35 30.896 34.104 30 33 30H22.071L18.7071 33.364C18.316 33.755 17.684 33.755 17.293 33.364L13.9291 30H3.00005C1.89605 30 1.00005 30.896 1.00005 32V33C1.00005 34.104 0.89605 35 2.00005 35H34C35.104 35 35 34.104 35 33Z" fill="#3B88C3"/>
</svg>
