<svg width="36" height="36" viewBox="0 0 36 36" fill="none" xmlns="http://www.w3.org/2000/svg">
<path d="M18 36C27.9411 36 36 27.9411 36 18C36 8.05887 27.9411 0 18 0C8.05887 0 0 8.05887 0 18C0 27.9411 8.05887 36 18 36Z" fill="#E1E8ED"/>
<path d="M31.802 29.546C28.792 28.221 27 24.048 27 18C27 11.952 28.792 7.77895 31.802 6.45395C31.357 5.92295 30.876 5.42595 30.374 4.94995C27.406 6.60495 25 10.578 25 18C25 25.421 27.406 29.3949 30.374 31.0499C30.876 30.573 31.358 30.077 31.802 29.546ZM11 18C11 10.579 8.594 6.60495 5.626 4.95095C5.124 5.42695 4.642 5.92295 4.198 6.45395C7.208 7.77995 9 11.952 9 18C9 24.048 7.208 28.22 4.198 29.546C4.643 30.077 5.124 30.573 5.626 31.0499C8.593 29.3949 11 25.421 11 18Z" fill="#B3BEC4"/>
<path d="M5.09197 10.164C4.85497 10.164 4.63497 10.144 4.44097 10.108C3.89797 10.006 3.54097 9.484 3.64197 8.941C3.74397 8.398 4.26697 8.039 4.80897 8.142C5.23897 8.219 7.49997 8.148 7.95697 5.866C8.06497 5.325 8.58897 4.974 9.13397 5.082C9.67597 5.19 10.027 5.717 9.91797 6.259C9.33497 9.171 6.77897 10.164 5.09197 10.164ZM6.79197 14.125C6.26197 14.125 5.83997 13.802 5.81397 13.266C5.78797 12.715 6.21397 12.355 6.76597 12.329C6.76597 12.329 9.32997 12.294 10.635 10.035C10.91 9.557 11.521 9.405 12 9.683C12.478 9.959 12.642 10.577 12.365 11.056C10.514 14.262 6.80797 14.125 6.79197 14.125ZM8.99997 19.282C8.26597 19.282 7.58597 19.147 7.07197 18.904C6.57297 18.668 6.35997 18.071 6.59597 17.572C6.83297 17.072 7.42997 16.861 7.92797 17.096C8.75797 17.489 10.854 17.335 11.658 16.084C11.957 15.619 12.575 15.484 13.04 15.783C13.505 16.082 13.639 16.701 13.341 17.165C12.377 18.666 10.565 19.282 8.99997 19.282ZM10.161 24.807C8.60697 24.807 7.16597 24.108 6.23497 23.331C5.81097 22.977 5.75397 22.347 6.10697 21.922C6.46097 21.497 7.09097 21.442 7.51497 21.794C7.70897 21.957 9.46697 23.36 11.297 22.579C11.804 22.364 12.392 22.6 12.608 23.109C12.824 23.618 12.587 24.205 12.078 24.421C11.439 24.692 10.79 24.807 10.161 24.807ZM9.74997 30H9.72197C7.21797 30 5.04297 28.43 4.18797 26.892C3.91897 26.41 4.09397 25.848 4.57597 25.58C5.05897 25.311 5.66797 25.51 5.93597 25.992C6.41997 26.863 7.93197 28.126 9.77697 28.177C10.329 28.193 10.764 28.565 10.749 29.116C10.734 29.658 10.29 30 9.74997 30ZM27.188 30.188C27.122 30.188 27.057 30.182 26.991 30.168C26.45 30.06 26.098 29.533 26.207 28.991C26.871 25.669 30.101 24.841 31.685 25.142C32.228 25.244 32.585 25.766 32.483 26.309C32.382 26.851 31.866 27.212 31.316 27.107C30.891 27.027 28.626 27.1 28.169 29.383C28.073 29.859 27.655 30.188 27.188 30.188ZM24.624 25.688C24.454 25.688 24.282 25.645 24.125 25.554C23.646 25.278 23.482 24.665 23.759 24.188C25.611 20.982 27.743 20.884 29.153 20.819L29.264 20.814C29.803 20.781 30.285 21.213 30.311 21.765C30.337 22.317 29.912 22.786 29.36 22.812L29.245 22.817C28.041 22.873 26.796 22.929 25.491 25.188C25.306 25.509 24.97 25.688 24.624 25.688ZM23.624 19.625C23.438 19.625 23.252 19.574 23.084 19.466C22.62 19.168 22.485 18.549 22.784 18.085C24.199 15.882 27.44 15.584 29.052 16.347C29.551 16.583 29.765 17.18 29.528 17.679C29.293 18.179 28.694 18.391 28.197 18.155C27.368 17.762 25.271 17.916 24.465 19.167C24.275 19.463 23.953 19.625 23.624 19.625ZM29.249 13.688C29.023 13.688 28.797 13.612 28.609 13.456C28.415 13.294 26.657 11.897 24.828 12.671C24.319 12.886 23.733 12.65 23.516 12.141C23.3 11.633 23.537 11.045 24.046 10.83C26.265 9.888 28.581 10.829 29.89 11.92C30.314 12.273 30.372 12.904 30.018 13.328C29.82 13.565 29.536 13.688 29.249 13.688ZM31.063 9.75C30.711 9.75 30.371 9.564 30.188 9.236C29.704 8.364 28.192 7.113 26.347 7.062C25.794 7.047 25.36 6.556 25.374 6.003C25.391 5.461 25.835 5 26.374 5H26.402C28.907 5 31.082 6.694 31.936 8.232C32.205 8.715 32.031 9.34 31.547 9.608C31.395 9.694 31.228 9.75 31.063 9.75Z" fill="#DD2E44"/>
</svg>
