<svg xmlns="http://www.w3.org/2000/svg" class="md:w-10 md:h-10 sm:w-8 sm:h-8 w-6 h-6" viewBox="0 0 36 36"><g clip-path="url(#prefix__clip0)"><path d="M33.541 23.198c.364-1.578.243-3.266-.458-4.946a8.018 8.018 0 00-3.271-3.773c.318-1.192.234-2.475-.324-3.75-.841-1.92-2.66-3.201-4.712-3.562.249-.572.329-1.289.036-2.167-1-3-5-1-8-4.999-2.44 1.464-2.97 3.64-2.878 5.487-2.421.412-3.8.936-3.8.936v.002a3.713 3.713 0 00-2.322 3.442c0 .879.318 1.676.828 2.312l-.692.258.001.003c-2.33.871-3.975 2.976-3.975 5.439 0 1.047.3 2.027.82 2.878C1.971 22.027 0 24.781 0 28c0 4.418 3.691 8 8.244 8 3.269 0 6.559-.703 9.531-1.665C20.018 35.375 23.47 36 28.667 36A7.333 7.333 0 0036 28.667a7.31 7.31 0 00-2.459-5.469z" fill="#BF6952"></path></g><defs><clipPath id="prefix__clip0"><path fill="#fff" d="M0 0h36v36H0z"></path></clipPath></defs></svg>