<svg width="36" height="36" viewBox="0 0 36 36" fill="none" xmlns="http://www.w3.org/2000/svg">
<path d="M6 4C9 4 11 6 14 10C17 14 21.957 17.191 26 18C31 19 35 23 35 29C35 33.897 31.154 36 26 36C21 36 17 33 12 28C7 23 2 14 2 10C2 6 3 4 6 4Z" fill="#744EAA"/>
<path d="M3.51501 0C4.76301 0 4.76301 1.248 4.76301 2.495C4.76301 4.259 6.01101 3.624 7.25901 3.624C8.50501 3.624 11 6 11 6H7.25801C6.01001 6 7.25801 8.614 6.01001 8.614C4.76201 8.614 4.76201 7.426 3.51501 7.426C2.26801 7.426 2.00001 11 2.00001 11C2.00001 11 0.396014 6.847 2.26701 4.976C3.51501 3.728 1.02001 0 3.51501 0Z" fill="#77B255"/>
</svg>
