<svg width="36" height="36" viewBox="0 0 36 36" fill="none" xmlns="http://www.w3.org/2000/svg">
<path d="M18 20.411C8.62896 20.411 1.03296 20.186 1.03296 26.838C1.03296 33.487 8.62896 35 18 35C27.371 35 34.967 33.487 34.967 26.838C34.967 20.187 27.371 20.411 18 20.411Z" fill="#D99E82"/>
<path d="M34.47 20.916C34.47 20.916 26.251 19.932 18 19.89C9.74901 19.932 1.53001 20.916 1.53001 20.916C0.717013 27.39 7.46701 30.057 18 30.057C28.533 30.057 35.283 27.39 34.47 20.916Z" fill="#662113"/>
<path d="M33.886 18.328L2.03104 18.974C0.931043 18.974 0.0100433 21.203 1.17704 21.786C9.88504 24.494 16.885 27.234 16.885 27.234C17.847 27.766 18.172 27.768 19.135 27.237C19.135 27.237 28.801 23.369 35.01 21.744C35.891 21.514 34.985 18.328 33.886 18.328Z" fill="#FFCC4D"/>
<path d="M34.7251 18.412C32.8251 16.661 32.9351 17.593 31.4791 17.182C30.9261 17.026 26.9691 11.911 17.9501 11.911H17.9301C8.91106 11.911 4.95406 17.026 4.40106 17.182C2.94506 17.593 3.05506 16.661 1.15506 18.412C0.283061 19.216 0.0470609 19.634 0.967061 19.842C2.35306 20.155 2.22706 20.994 3.22006 21.286C4.42206 21.639 4.91606 20.994 6.85406 21.258C8.50706 21.483 8.61506 23.627 10.2831 23.627C11.9511 23.627 11.9511 22.827 13.6181 22.827C15.2851 22.827 16.2711 24.973 17.9391 24.973C19.6071 24.973 20.5921 22.827 22.2601 22.827C23.9281 22.827 23.9281 23.627 25.5951 23.627C27.2631 23.627 27.3711 21.483 29.0241 21.258C30.9621 20.995 31.4571 21.639 32.6581 21.286C33.6511 20.994 33.5251 20.156 34.9111 19.842C35.8331 19.635 35.5981 19.216 34.7251 18.412Z" fill="#77B255"/>
<path d="M34.077 16.52C34.077 19.504 26.879 20.913 18 20.913C9.12097 20.913 1.92297 19.504 1.92297 16.52C1.92297 11.117 2.88897 11.117 18 11.117C33.111 11.117 34.077 11.118 34.077 16.52Z" fill="#DD2E44"/>
<path d="M18 0.523987C8.62896 0.523987 1.03296 4.91499 1.03296 11.566C1.03296 17.691 8.62896 17.941 18 17.941C27.371 17.941 34.967 17.691 34.967 11.566C34.967 4.91399 27.371 0.523987 18 0.523987Z" fill="#D99E82"/>
<path d="M10.784 3.69499C10.286 3.37599 9.625 3.52199 9.307 4.01999C8.989 4.51799 9.134 5.17999 9.632 5.49699C10.13 5.81599 11.392 6.05399 11.711 5.55599C12.029 5.05799 11.282 4.01299 10.784 3.69499ZM20.518 2.65999C19.956 2.84199 18.969 3.66599 19.152 4.22799C19.335 4.78999 20.616 4.87599 21.178 4.69399C21.74 4.51199 22.047 3.90799 21.864 3.34599C21.682 2.78499 21.078 2.47699 20.518 2.65999ZM31.427 9.69499C30.975 9.31499 29.842 9.91999 29.461 10.372C29.081 10.825 29.14 11.499 29.592 11.879C30.044 12.259 30.719 12.2 31.099 11.748C31.48 11.295 31.88 10.075 31.427 9.69499ZM27.784 4.69499C27.286 4.37699 26.625 4.52299 26.306 5.02099C25.988 5.51899 26.134 6.17999 26.632 6.49799C27.13 6.81699 28.392 7.05499 28.71 6.55699C29.029 6.05799 28.282 5.01299 27.784 4.69499ZM12.784 11.695C12.286 11.377 11.625 11.523 11.306 12.021C10.988 12.518 11.134 13.18 11.632 13.497C12.13 13.816 13.392 14.055 13.71 13.556C14.029 13.058 13.282 12.013 12.784 11.695ZM15.83 6.88699C15.494 7.37299 15.21 8.62599 15.697 8.96199C16.183 9.29799 17.254 8.58799 17.59 8.10199C17.926 7.61599 17.803 6.94999 17.317 6.61399C16.832 6.27799 16.165 6.40099 15.83 6.88699ZM23.784 11.695C23.286 11.377 22.625 11.523 22.306 12.021C21.988 12.518 22.134 13.181 22.632 13.497C23.13 13.816 24.392 14.055 24.71 13.556C25.029 13.058 24.282 12.013 23.784 11.695ZM4.948 7.80799C4.554 8.24899 4.115 9.45599 4.556 9.84999C4.995 10.244 6.147 9.67599 6.541 9.23499C6.936 8.79499 6.898 8.11899 6.458 7.72399C6.019 7.32999 5.342 7.36799 4.948 7.80799Z" fill="#FFE8B6"/>
</svg>
