<svg xmlns="http://www.w3.org/2000/svg" class="md:w-10 md:h-10 sm:w-8 sm:h-8 w-6 h-6" viewBox="0 0 36 36"><path d="M33.5 18c1.38 0 2.5-1.567 2.5-3.5S34.88 11 33.5 11 31 12.567 31 14.5s1.12 3.5 2.5 3.5zM2.5 18C3.88 18 5 16.433 5 14.5S3.88 11 2.5 11 0 12.567 0 14.5 1.12 18 2.5 18z" fill="#F4900C"></path><path d="M34 19a1 1 0 01-1 1h-3a1 1 0 01-1-1v-9a1 1 0 011-1h3a1 1 0 011 1v9zM7 19a1 1 0 01-1 1H3a1 1 0 01-1-1v-9a1 1 0 011-1h3a1 1 0 011 1v9z" fill="#FFAC33"></path><path d="M28 5c0 2.761-4.478 4-10 4C12.477 9 8 7.761 8 5s4.477-5 10-5c5.522 0 10 2.239 10 5z" fill="#FFCC4D"></path><path d="M25 4.083C25 5.694 21.865 7 18 7c-3.866 0-7-1.306-7-2.917 0-1.611 3.134-2.917 7-2.917 3.865 0 7 1.306 7 2.917z" fill="#F4900C"></path><path d="M30 5.5C30 6.881 28.881 7 27.5 7h-19C7.119 7 6 6.881 6 5.5A2.5 2.5 0 018.5 3h19A2.5 2.5 0 0130 5.5z" fill="#269"></path><path d="M30 6H6a2 2 0 00-2 2v26h28V8a2 2 0 00-2-2z" fill="#55ACEE"></path><path d="M35 33v-1a2 2 0 00-2-2H22.071l-3.364 3.364a.999.999 0 01-1.414 0L13.929 30H3a2 2 0 00-2 2v1c0 1.104-.104 2 1 2h32c1.104 0 1-.896 1-2z" fill="#3B88C3"></path></svg>