<svg width="36" height="36" viewBox="0 0 36 36" fill="none" xmlns="http://www.w3.org/2000/svg">
<path d="M36 18C36 27.941 27.941 36 18 36C8.059 36 0 27.941 0 18C0 8.059 8.059 0 18 0C27.941 0 36 8.059 36 18Z" fill="#E1E8ED"/>
<path d="M30 18C30 24.628 24.628 30 18 30C11.372 30 6 24.628 6 18C6 11.372 11.372 6 18 6C24.628 6 30 11.372 30 18Z" fill="#CCD6DD"/>
<path d="M29 18C29 24.075 24.075 29 18 29C11.924 29 7 24.075 7 18C7 11.924 11.925 7 18 7C24.075 7 29 11.924 29 18Z" fill="#E1E8ED"/>
<path d="M1 2C1.55228 2 2 1.55228 2 1C2 0.447715 1.55228 0 1 0C0.447715 0 0 0.447715 0 1C0 1.55228 0.447715 2 1 2Z" fill="#99AAB5"/>
<path d="M0 1H2V8H0V1Z" fill="#99AAB5"/>
<path d="M5 2C5.55228 2 6 1.55228 6 1C6 0.447715 5.55228 0 5 0C4.44772 0 4 0.447715 4 1C4 1.55228 4.44772 2 5 2Z" fill="#99AAB5"/>
<path d="M4 1H6V8H4V1Z" fill="#99AAB5"/>
<path d="M9 2C9.55228 2 10 1.55228 10 1C10 0.447715 9.55228 0 9 0C8.44772 0 8 0.447715 8 1C8 1.55228 8.44772 2 9 2Z" fill="#99AAB5"/>
<path d="M8 1H10V8H8V1ZM3 14H7V34H3V14Z" fill="#99AAB5"/>
<path d="M5 36C6.10457 36 7 35.1046 7 34C7 32.8954 6.10457 32 5 32C3.89543 32 3 32.8954 3 34C3 35.1046 3.89543 36 5 36Z" fill="#99AAB5"/>
<path d="M8 8C8 8.552 7.552 9 7 9C6.448 9 6 8.552 6 8H4C4 8.552 3.552 9 3 9C2.448 9 2 8.552 2 8H0C0 11.866 1 15 5 15C9 15 10 11.866 10 8H8Z" fill="#99AAB5"/>
<path d="M1 9C1.55228 9 2 8.55228 2 8C2 7.44772 1.55228 7 1 7C0.447715 7 0 7.44772 0 8C0 8.55228 0.447715 9 1 9Z" fill="#99AAB5"/>
<path d="M5 9C5.55228 9 6 8.55228 6 8C6 7.44772 5.55228 7 5 7C4.44772 7 4 7.44772 4 8C4 8.55228 4.44772 9 5 9Z" fill="#99AAB5"/>
<path d="M9 9C9.55228 9 10 8.55228 10 8C10 7.44772 9.55228 7 9 7C8.44772 7 8 7.44772 8 8C8 8.55228 8.44772 9 9 9Z" fill="#99AAB5"/>
<path d="M30 14H34V34H30V14Z" fill="#99AAB5"/>
<path d="M32 36C33.1046 36 34 35.1046 34 34C34 32.8954 33.1046 32 32 32C30.8954 32 30 32.8954 30 34C30 35.1046 30.8954 36 32 36Z" fill="#99AAB5"/>
<path d="M32 0C33 0 34 1 34 3V19C34 19 27 21 27 11C27 5 30 0 32 0Z" fill="#99AAB5"/>
</svg>
