<svg width="36" height="36" viewBox="0 0 36 36" fill="none" xmlns="http://www.w3.org/2000/svg">
<path d="M0.25 13C0.25 5.84197 10.25 -2.00003 18.25 4.99997C20.964 7.37497 23.25 8.99997 23.25 12C35.25 9.99997 36.953 20.892 35.25 26C34.25 29 29.382 37.059 11.25 29C2.25 25 0.25 17.384 0.25 13Z" fill="#D99E82"/>
<path d="M17.71 14.822C19.537 13.085 21.338 12.324 23.359 11.984L23.25 11.999C23.25 11.141 23.046 10.402 22.716 9.71899C20.642 10.491 18.428 12 17.71 14.822Z" fill="#C1694F"/>
<path d="M10.25 17C10.8023 17 11.25 16.5523 11.25 16C11.25 15.4477 10.8023 15 10.25 15C9.69772 15 9.25 15.4477 9.25 16C9.25 16.5523 9.69772 17 10.25 17Z" fill="#C1694F"/>
<path d="M30.25 27C30.8023 27 31.25 26.5523 31.25 26C31.25 25.4477 30.8023 25 30.25 25C29.6977 25 29.25 25.4477 29.25 26C29.25 26.5523 29.6977 27 30.25 27Z" fill="#C1694F"/>
<path d="M14.75 27C15.5784 27 16.25 26.3284 16.25 25.5C16.25 24.6716 15.5784 24 14.75 24C13.9216 24 13.25 24.6716 13.25 25.5C13.25 26.3284 13.9216 27 14.75 27Z" fill="#C1694F"/>
<path d="M5.75 21C6.57843 21 7.25 20.3284 7.25 19.5C7.25 18.6716 6.57843 18 5.75 18C4.92157 18 4.25 18.6716 4.25 19.5C4.25 20.3284 4.92157 21 5.75 21Z" fill="#C1694F"/>
</svg>
