<svg width="36" height="36" viewBox="0 0 36 36" fill="none" xmlns="http://www.w3.org/2000/svg">
<path d="M17.182 23H9.81799C9.81799 23 11.171 29.5 12.169 32.752C13.167 36.006 16.773 36 17.591 36C19.226 36 22.015 36.006 23.013 32.752C24.01 29.5 26.183 23 26.183 23H17.182Z" fill="#FFCC4D"/>
<path d="M18 28C21.46 28 23.831 27.249 25.097 26.275C25.446 25.215 25.75 24.298 25.947 23.706C25.797 23.456 25.574 23.219 25.277 23H10.723C10.382 23.252 10.138 23.526 9.99097 23.817C10.1 24.325 10.253 25.031 10.438 25.854C11.527 27.024 14.055 28 18 28Z" fill="#FFAC33"/>
<path d="M9 20V23C9 24.657 13.03 26 18 26C22.97 26 27 24.657 27 23V20H9Z" fill="#FFCC4D"/>
<path d="M26.183 20.5C26.183 21.881 22.519 23 18 23C13.481 23 9.81799 21.881 9.81799 20.5C9.81799 19.119 13.481 18 18 18C22.519 18 26.183 19.119 26.183 20.5Z" fill="#F4900C"/>
<path d="M26.902 13.908C27.12 12.969 27.061 11.967 26.644 10.966C26.24 9.99698 25.538 9.23998 24.688 8.72698C24.878 8.01798 24.842 7.25798 24.509 6.49898C24.008 5.35398 22.92 4.59598 21.695 4.38598C21.847 4.04498 21.909 3.62598 21.734 3.09798C21.139 1.31598 18.764 2.51398 16.983 0.138977C15.507 1.02398 15.206 2.34698 15.276 3.45398C13.924 3.69498 13.144 3.98598 13.144 3.98598V3.98698C12.336 4.31398 11.765 5.10598 11.765 6.03098C11.765 6.52098 11.93 6.96998 12.201 7.33598L11.721 7.51498L11.722 7.51698C10.338 8.03398 9.362 9.28398 9.362 10.746C9.362 11.368 9.553 11.943 9.862 12.448C8.176 13.198 7 14.838 7 16.754C7 19.249 8.989 21.272 11.508 21.466C14.171 22.292 19.498 22.066 23.584 21.375C25.955 20.975 28.375 19.555 28.375 17.15C28.375 15.855 27.799 14.705 26.902 13.908Z" fill="#FFE8B6"/>
<path d="M14.75 18.212C12.51 18.846 9.14799 19.008 7.35999 18.526C8.08499 20.27 9.83799 21.503 11.895 21.503C18.04 21.503 24.312 17.32 24.312 17.32C26.281 16.094 27.284 14.16 26.961 12.132C24.919 15.02 17.092 17.549 14.75 18.212ZM13.135 14.231C17.874 14.231 22.71 11.162 22.71 11.162C24.293 10.225 25.082 8.72401 24.73 7.16801C18.704 11.086 13.166 12.238 9.81199 12.366C10.445 13.47 11.688 14.231 13.135 14.231ZM11.833 6.55501C12.069 7.51901 12.933 8.23601 13.969 8.23601C14.624 8.23601 15.281 8.12501 15.905 7.95901C16.289 7.84301 16.669 7.71901 17.048 7.58401C18.504 7.01901 19.565 6.29301 19.565 6.29301C20.621 5.61601 21.708 4.42001 21.708 4.42001C21.708 4.42001 22.077 3.58901 21.458 3.10101C19.713 4.84901 14.145 6.57901 11.833 6.55501Z" fill="#FFD983"/>
</svg>
