<svg width="36" height="36" viewBox="0 0 36 36" fill="none" xmlns="http://www.w3.org/2000/svg">
<path d="M18 2C9.716 2 3 6.492 3 14.5C3 14.559 3.052 15.258 3.125 16.009C3.391 15.995 18 28 18 28C18 28 32.607 15.994 32.871 16.008C32.921 15.514 33 14.577 33 14.5C33 6.492 26.284 2 18 2Z" fill="#BE1931"/>
<path d="M30.166 11.509C29.833 11.471 29.517 11.549 29.248 11.705C29.245 11.273 29.189 10.894 29.046 10.601L29.422 9.47299C29.684 8.68699 29.26 7.838 28.474 7.576C28.123 7.457 27.761 7.483 27.442 7.61199C27.25 6.89199 26.558 6.406 25.797 6.512C25.674 6.529 25.559 6.56399 25.449 6.60799C25.296 6.04299 24.819 5.59599 24.203 5.51199C23.372 5.40099 22.625 5.975 22.514 6.79599L22.2 9.10199C21.904 8.705 21.421 8.45999 20.894 8.50199C20.251 8.54799 19.737 8.99299 19.565 9.57699L19.492 8.84899C19.409 8.02399 18.667 7.42199 17.85 7.506C17.034 7.588 16.438 8.30999 16.507 9.12499L16.487 9.13499C16.536 8.60399 16.304 8.094 15.887 7.789L15.47 5.70499C15.307 4.89299 14.52 4.36399 13.705 4.52799C12.893 4.68999 12.366 5.481 12.528 6.293L13.246 9.88399L12.864 11.489L11.41 7.48699C11.126 6.70799 10.265 6.306 9.48796 6.59C8.70896 6.874 8.30696 7.73399 8.58996 8.51299L9.69796 11.56C9.35296 11.796 9.10396 12.17 9.05196 12.618L8.80696 14.717L8.47996 12.754C8.34396 11.936 7.56896 11.382 6.75396 11.521C5.93696 11.657 5.38496 12.43 5.52096 13.247L7.07096 22.546H30.376C30.425 22.424 31.492 13.166 31.492 13.166C31.582 12.342 30.989 11.601 30.166 11.509Z" fill="#F4900C"/>
<path d="M27.4859 7.79697C27.4769 7.73297 27.4579 7.67397 27.4419 7.61297C27.2499 6.89297 26.5579 6.40697 25.7969 6.51297C25.6739 6.52997 25.5589 6.56497 25.4489 6.60897C24.8219 6.85697 24.4179 7.50397 24.5139 8.20197L26.4699 22.545H29.4979L27.4859 7.79697ZM22.4959 9.89297C22.4749 9.59597 22.3649 9.32597 22.1989 9.10297C21.9029 8.70597 21.4199 8.46097 20.8929 8.50297C20.2499 8.54897 19.7359 8.99397 19.5639 9.57797C19.5149 9.74497 19.4899 9.92197 19.5029 10.106L20.3819 22.418L20.3909 22.545H23.3999L23.3979 22.518L22.4959 9.89297ZM10.7149 11.301C10.3409 11.258 9.98694 11.361 9.69794 11.559C9.35294 11.795 9.10394 12.169 9.05194 12.617L7.89294 22.546H10.9129L12.0309 12.965C12.1269 12.142 11.5379 11.397 10.7149 11.301ZM15.4709 5.70597C15.3079 4.89397 14.5209 4.36497 13.7059 4.52897C12.8939 4.69097 12.3669 5.48197 12.5289 6.29397L15.7789 22.546H18.8379L15.4709 5.70597Z" fill="#FFCC4D"/>
<path d="M29 17C29 19.762 24.627 22 18 22C11.373 22 7 19.762 7 17C7 15.896 5.104 16 4 16C3.684 16 3.391 15.995 3.125 16.009C3.186 16.644 5 31 5 31C5 33.209 6.791 35 9 35H27C29.209 35 31 33.209 31 31C31 31 32.858 16.136 32.871 16.008C32.607 15.994 32.314 16 32 16C30.896 16 29 15.896 29 17Z" fill="#DD2E44"/>
<path d="M18 32C20.2091 32 22 30.2091 22 28C22 25.7909 20.2091 24 18 24C15.7909 24 14 25.7909 14 28C14 30.2091 15.7909 32 18 32Z" fill="#BE1931"/>
</svg>
