<svg width="36" height="36" viewBox="0 0 36 36" fill="none" xmlns="http://www.w3.org/2000/svg">
<path d="M29 5C30.1046 5 31 4.10457 31 3C31 1.89543 30.1046 1 29 1C27.8954 1 27 1.89543 27 3C27 4.10457 27.8954 5 29 5Z" fill="#4289C1"/>
<path d="M33 11C34.6569 11 36 9.65685 36 8C36 6.34315 34.6569 5 33 5C31.3431 5 30 6.34315 30 8C30 9.65685 31.3431 11 33 11Z" fill="#4289C1"/>
<path d="M33 7C34.6569 7 36 5.65685 36 4C36 2.34315 34.6569 1 33 1C31.3431 1 30 2.34315 30 4C30 5.65685 31.3431 7 33 7Z" fill="#4289C1"/>
<path d="M7 5C8.10457 5 9 4.10457 9 3C9 1.89543 8.10457 1 7 1C5.89543 1 5 1.89543 5 3C5 4.10457 5.89543 5 7 5Z" fill="#4289C1"/>
<path d="M3 11C4.65685 11 6 9.65685 6 8C6 6.34315 4.65685 5 3 5C1.34315 5 0 6.34315 0 8C0 9.65685 1.34315 11 3 11Z" fill="#4289C1"/>
<path d="M3 7C4.65685 7 6 5.65685 6 4C6 2.34315 4.65685 1 3 1C1.34315 1 0 2.34315 0 4C0 5.65685 1.34315 7 3 7Z" fill="#4289C1"/>
<path d="M36 18C36 27.941 27.941 36 18 36C8.059 36 0 27.941 0 18C0 8.059 8.059 0 18 0C27.941 0 36 8.059 36 18Z" fill="#FEE7B8"/>
<path d="M30.5 7C31.8807 7 33 5.88071 33 4.5C33 3.11929 31.8807 2 30.5 2C29.1193 2 28 3.11929 28 4.5C28 5.88071 29.1193 7 30.5 7Z" fill="#4289C1"/>
<path d="M32 9C33.1046 9 34 8.10457 34 7C34 5.89543 33.1046 5 32 5C30.8954 5 30 5.89543 30 7C30 8.10457 30.8954 9 32 9Z" fill="#4289C1"/>
<path d="M5.5 7C6.88071 7 8 5.88071 8 4.5C8 3.11929 6.88071 2 5.5 2C4.11929 2 3 3.11929 3 4.5C3 5.88071 4.11929 7 5.5 7Z" fill="#4289C1"/>
<path d="M4 9C5.10457 9 6 8.10457 6 7C6 5.89543 5.10457 5 4 5C2.89543 5 2 5.89543 2 7C2 8.10457 2.89543 9 4 9Z" fill="#4289C1"/>
</svg>
