<svg width="36" height="36" viewBox="0 0 36 36" fill="none" xmlns="http://www.w3.org/2000/svg">
<path d="M18 36C27.9411 36 36 27.9411 36 18C36 8.05887 27.9411 0 18 0C8.05887 0 0 8.05887 0 18C0 27.9411 8.05887 36 18 36Z" fill="#88C9F9"/>
<path d="M2.812 25.375C2.75 24.375 2.75 24.188 2.75 23C2.75 21.812 3.312 22 3.875 21.438C4.438 20.876 4.313 20.813 5.25 20.197C6.187 19.581 5.688 18.876 5.625 18.501C5.562 18.126 5 18.438 4.062 18.562C3.124 18.686 3.438 18.25 2.875 18C2.312 17.75 2.063 17.375 1.687 16.25C1.311 15.125 1.249 14.812 1.375 13.875C1.501 12.938 1.938 13.812 2 14.812C2.062 15.812 2.938 15.437 2.938 16.062C2.938 16.687 4.188 17.374 4.5 17.562C4.812 17.75 5.688 16.624 6 16.312C6.312 16 6.688 15.562 6.812 15.312C6.936 15.062 8.5 14.874 8.812 14.874C9.124 14.874 9.874 15.812 9.874 16.249C9.874 16.686 10.249 17.874 10.562 18.561C10.875 19.248 11.562 19.373 12.187 19.873C12.812 20.373 13.125 19.935 13.125 19.935C13.125 19.935 12.875 18.873 12.875 17.997C12.875 17.121 13.625 16.372 13.625 16.372C13.625 16.372 14.813 17.247 14.875 17.497C14.937 17.747 15.875 18.622 15.937 19.059C15.999 19.496 16.499 20.059 17.42 20.184C18.341 20.309 17.687 19.122 17.999 18.309C18.311 17.496 18.749 17.371 19.311 17.247C19.873 17.123 20.311 16.622 20.686 16.122C21.061 15.622 21.748 14.934 21.686 14.372C21.624 13.81 21.436 13.434 21.186 12.747C20.936 12.06 21.936 11.809 22.374 10.997C22.812 10.185 22.374 10.997 23.374 10.747C24.374 10.497 23.936 10.497 24.124 10.122C24.312 9.74698 24.436 9.37198 24.249 8.68398C24.062 7.99598 23.374 8.68398 22.687 8.68398C22 8.68398 22.938 7.74998 23 6.99998C23.062 6.24998 23.938 6.43798 24.562 6.37498C25.186 6.31198 25.374 7.18698 25.562 7.37498C25.75 7.56298 27.687 6.12498 28.187 5.43698C28.687 4.74898 27.75 4.93798 28 4.64798C28.25 4.35798 26.5 4.29898 25.812 4.18798C25.124 4.07698 23.375 3.99998 22.688 3.57598C22.001 3.15198 19.376 3.47198 18.688 3.81298C18 4.15398 17.563 3.78398 17.25 3.31298C16.937 2.84198 15.625 3.07798 15.25 2.81298C14.875 2.54798 14.5 3.24998 14 3.43798C13.5 3.62598 13.312 3.68798 12.688 3.31298C12.064 2.93798 12.875 2.49998 12 2.18798C11.414 1.97898 10.712 2.10098 9.62 2.07698C3.902 5.09198 0 11.087 0 18C0 21.42 0.971 24.605 2.627 27.327C2.935 26.809 2.858 26.11 2.812 25.375ZM17.312 24.188C17.75 24.25 19 24.188 18 23.376C17 22.564 16.438 23.188 16.562 22.251C16.686 21.314 15.937 21.313 15.937 21.313C15.937 22.001 15.437 22.751 15.937 23.438C16.437 24.125 16.875 24.125 17.312 24.188Z" fill="#5C913B"/>
<path d="M23.688 13.75C22.688 12.938 23.438 13.188 23.563 12.25C23.688 11.312 22.938 11.312 22.938 11.312C22.938 12 22.438 12.75 22.938 13.437C23.438 14.124 21.938 14.687 22.376 14.749C22.814 14.811 24.688 14.562 23.688 13.75ZM19.808 23.5C20.428 24.188 20.188 23.5 21 23.188C21.812 22.876 20.312 22.188 19.812 21.813C19.312 21.438 18.815 21.424 18.378 22.251C17.882 23.188 19.188 22.812 19.808 23.5ZM27.125 24.75C26.813 24.375 26.125 24.188 25.375 24.205C24.625 24.223 24.687 23.375 23.937 23.437C23.187 23.499 22.651 22.933 22.312 22.758C21.575 22.378 22.062 23.249 22.312 24.204C22.562 25.159 23.5 24.436 24.374 24.936C25.248 25.436 25.312 24.748 26.124 24.998C26.936 25.248 27.249 25.81 28.028 25.748C28.807 25.686 27.438 25.125 27.125 24.75ZM25.5 27.5C25.188 26.875 24.274 26.312 23.899 25.995C23.524 25.678 22.937 25.571 22.437 25.755C21.937 25.939 21.625 25.755 21.375 25.26C21.125 24.765 20.687 24.938 20.313 25C19.939 25.062 18.438 25.688 17.563 26.125C16.688 26.562 16.29 26.942 15.716 27.5C14.818 28.374 15.313 27.812 15.716 28.375C16.119 28.937 15.274 30.687 15.212 31.687C15.15 32.687 16.814 31.375 17.439 31.249C18.064 31.123 17.88 30.749 18.38 30.374C18.88 29.999 19.205 29.911 19.754 30.411C20.303 30.911 21.022 31.374 21.022 31.936C21.022 32.498 23.001 33.436 23.751 33.061C24.501 32.686 24.939 31.936 25.626 31.311C26.313 30.686 26.064 29.499 26.251 28.749C26.438 27.999 25.812 28.125 25.5 27.5Z" fill="#5C913B"/>
</svg>
