<svg xmlns="http://www.w3.org/2000/svg" class="md:w-10 md:h-10 sm:w-8 sm:h-8 w-6 h-6" viewBox="0 0 36 36"><path d="M33 21c0 8.284-6.716 15-15 15-8.284 0-15-6.716-15-15C3 12.716 9.716 6 18 6c8.284 0 15 6.716 15 15z" fill="#FFCC4D"></path><path d="M32 6.13c-1.19 1.441-3.182 1.951-5.076 2.121C26.606 6.713 25.241 1 22.5 1c-2.403 0-3.269 1.091-4.5 1.091C16.769 2.091 15.903 1 13.5 1c-2.741 0-4.106 5.713-4.424 7.251C7.182 8.081 5.19 7.57 4 6.13 1.847 3.524-1 5.444.442 8.304 2.72 12.821 8.23 16 18 16c9.769 0 15.279-3.179 17.558-7.696C37 5.444 34.153 3.524 32 6.13z" fill="#664500"></path><path d="M21.5 3c-1.869 0-2.543.964-3.5.964-.957 0-1.631-.964-3.5-.964C12.037 3 11 9.75 11 9.75S12.282 12 18 12c5.719 0 7-2.25 7-2.25S23.963 3 21.5 3z" fill="#825D0E"></path><path d="M11 6s2.074 2 7 2c4.927 0 7-2 7-2v2s-2.222 2-7 2c-4.778 0-7-2-7-2V6z" fill="#664500"></path></svg>