<svg xmlns="http://www.w3.org/2000/svg" class="md:w-10 md:h-10 sm:w-8 sm:h-8 w-6 h-6" viewBox="0 0 36 36"><path d="M18 36c9.941 0 18-8.059 18-18S27.941 0 18 0 0 8.059 0 18s8.059 18 18 18z" class="fill-current text-gray-400"></path><path d="M15.391 20.08a.997.997 0 00-1.239.39l-5 8A1 1 0 0010 30h3a.999.999 0 00.97-.758l2-8a1 1 0 00-.579-1.162zm11.457 8.39l-5-8a.998.998 0 00-1.817.772l2 8c.111.446.51.758.969.758h3a1 1 0 00.848-1.53z" fill="#F5F8FA"></path><path d="M31.982 30.178c.003-.06.018-.117.018-.178 0-1.656-1.344-3-3-3a2.996 2.996 0 00-2.473 1.305A4 4 0 1025 36a3.994 3.994 0 003.29-1.731A2.995 2.995 0 0034 33a2.99 2.99 0 00-2.018-2.822zM11 28c-.542 0-1.056.11-1.527.305A2.996 2.996 0 007 27c-1.656 0-3 1.344-3 3 0 .061.014.118.018.178A2.99 2.99 0 002 33a3 3 0 003 3 2.991 2.991 0 002.709-1.731A3.996 3.996 0 0011 36a4 4 0 000-8z" fill="#E1E8ED"></path></svg>