<svg xmlns="http://www.w3.org/2000/svg" class="md:w-10 md:h-10 sm:w-8 sm:h-8 w-6 h-6" viewBox="0 0 36 36"><path d="M18 36c9.941 0 18-8.059 18-18S27.941 0 18 0 0 8.059 0 18s8.059 18 18 18z" class="fill-current text-gray-400"></path><g clip-path="url(#prefix__clip0)"><path d="M.701 25a.5.5 0 01-.31-.892c.162-.127 4.02-3.12 10.648-2.605.275.02.481.261.46.536-.021.275-.257.501-.537.46-6.233-.474-9.915 2.366-9.951 2.395a.51.51 0 01-.31.106zm8.868-4.663a.512.512 0 01-.149-.022c-4.79-1.497-8.737-.347-8.777-.336a.499.499 0 11-.288-.957c.173-.052 4.286-1.247 9.362.338a.5.5 0 01-.148.977zM35.299 25a.5.5 0 00.31-.892c-.162-.127-4.02-3.12-10.648-2.605a.499.499 0 00-.46.536c.021.275.257.501.537.46 6.233-.474 9.915 2.366 9.951 2.395a.51.51 0 00.31.106zm-8.868-4.663c.049 0 .1-.007.149-.022 4.79-1.497 8.737-.347 8.777-.336a.499.499 0 10.288-.957c-.173-.052-4.286-1.247-9.362.338a.5.5 0 00.148.977z" fill="#FEE7B8"></path></g><defs><clipPath id="prefix__clip0"><path fill="#fff" d="M0 0h36v36H0z"></path></clipPath></defs></svg>