<svg xmlns="http://www.w3.org/2000/svg" class="md:w-10 md:h-10 sm:w-8 sm:h-8 w-6 h-6" viewBox="0 0 36 36"><path d="M18 36c9.941 0 18-8.059 18-18S27.941 0 18 0 0 8.059 0 18s8.059 18 18 18z" class="fill-current text-gray-400"></path><path d="M18.406 18.033c2.678 2.676-3.974 15.524-5.25 16.8-1.05 1.05-4.2 1.05-5.25-1.05-1.05-2.1-4.2 0-5.25-1.05-2.1-2.1 1.05-3.15 0-5.25s-3.15-3.15-1.05-5.25c2.1-2.1 7.35-1.05 10.5-3.15 3.15-2.1 5.249-2.1 6.3-1.05z" fill="#CCD6DD"></path><path d="M17.322 19.872c-.016-.062-.053-.113-.079-.17-.03-.066-.05-.135-.094-.194a1.042 1.042 0 00-.694-.415h-.001a1.066 1.066 0 00-.406.022c-.091.023-.169.071-.249.117-.038.021-.08.03-.115.056a1.053 1.053 0 00-.278.305c-2.934 4.89-9.942 7.944-10.013 7.975a1.05 1.05 0 00.828 1.93c.223-.096 4.055-1.77 7.425-4.712-2.068 3.825-5.23 5.995-5.273 6.025a1.05 1.05 0 001.167 1.747c.273-.183 6.703-4.549 7.807-12.274.018-.14.009-.279-.025-.412z" fill="#F5F8FA"></path></svg>