<svg xmlns="http://www.w3.org/2000/svg" class="md:w-10 md:h-10 sm:w-8 sm:h-8 w-6 h-6" viewBox="0 0 36 36"><path d="M18 36c9.941 0 18-8.059 18-18S27.941 0 18 0 0 8.059 0 18s8.059 18 18 18z" class="fill-current text-gray-400"></path><path d="M2.5 35a1.5 1.5 0 100-3 1.5 1.5 0 000 3zM29 4a2 2 0 100-4 2 2 0 000 4z" fill="#55ACEE"></path><path d="M4.864 29.246L2.526 23.63.412 29.675l4.452-.429zM26 5l-4 1 1-4 3 3z" fill="#EA596E"></path><path d="M31.999 13L36 7.999 33 6l-1.001 7z" fill="#77B255"></path></svg>