<svg xmlns="http://www.w3.org/2000/svg" class="md:w-10 md:h-10 sm:w-8 sm:h-8 w-6 h-6" viewBox="0 0 36 36"><path d="M18 36c9.941 0 18-8.059 18-18S27.941 0 18 0 0 8.059 0 18s8.059 18 18 18z" class="fill-current text-gray-500"></path><path d="M10.847 28.229a5 5 0 01-9.693-2.461c.679-2.677 6.337-8.708 7.307-8.462.97.247 3.065 8.247 2.386 10.923zm14.286 0a5 5 0 006.077 3.615 4.998 4.998 0 003.616-6.076c-.68-2.677-6.338-8.708-7.308-8.462-.968.247-3.064 8.247-2.385 10.923z" fill="#5DADEC"></path></svg>