<svg xmlns="http://www.w3.org/2000/svg" class="md:w-10 md:h-10 sm:w-8 sm:h-8 w-6 h-6" viewBox="0 0 36 36"><path d="M18 36c9.941 0 18-8.059 18-18S27.941 0 18 0 0 8.059 0 18s8.059 18 18 18z" class="fill-current text-gray-400"></path><path d="M34.202 25.803a3.034 3.034 0 00-1.578-1.875 3.054 3.054 0 00-2.793.06 3.051 3.051 0 00-1.67-2.237 3.057 3.057 0 00-4.087 1.406c-.105.215-.18.437-.23.659-.775 2.556.64 6.341 2.192 7.948 1.23.13 2.953-.198 4.513-.873a18.035 18.035 0 003.653-5.088z" fill="#FFAC33"></path><path d="M35.654 27.222a3.054 3.054 0 00-4.198-4.026 3.051 3.051 0 00-1.67-2.237 3.058 3.058 0 00-4.087 1.406c-.105.215-.18.437-.23.659-.774 2.556.64 6.341 2.192 7.948 2.223.234 6.077-.979 7.615-3.161.145-.179.273-.374.378-.589z" fill="#DD2E44"></path></svg>